<svg id="Layer_1" data-name="Layer 1" xmlns="http://www.w3.org/2000/svg" viewBox="0 0 265.37 156.3"><defs><style>.cls-1{fill:#c5e7ec;}.cls-2{fill:#67c4cb;}.cls-3{fill:#b3aaa1;}</style></defs><circle class="cls-1" cx="102.1" cy="71.95" r="33.71"/><path class="cls-2" d="M-1148.87,514.85a6.68,6.68,0,0,0,7.2-7.2,6.7,6.7,0,0,0-6.11-6.11,6.68,6.68,0,0,0-7.2,7.2A6.7,6.7,0,0,0-1148.87,514.85Zm-25.06,51.86a6.68,6.68,0,0,0-7.2,7.2A6.7,6.7,0,0,0-1175,580a6.68,6.68,0,0,0,7.2-7.2A6.7,6.7,0,0,0-1173.93,566.71Zm78.43-65.17a6.68,6.68,0,0,0-7.2,7.2,6.7,6.7,0,0,0,6.11,6.11,6.68,6.68,0,0,0,7.2-7.2A6.7,6.7,0,0,0-1095.5,501.53Zm-4.94,42.75a21.77,21.77,0,0,1-22,21.74,21.92,21.92,0,0,1-21.53-22V529.29a.77.77,0,0,0-.77-.77H-1152a.77.77,0,0,0-.77.77v15a30.59,30.59,0,0,0,26.14,30.22v14.3a22.05,22.05,0,0,1-21.86,22.06,21.78,21.78,0,0,1-21.23-17.63A20.48,20.48,0,0,0-1154,572.82a20.53,20.53,0,0,0-19.33-19.89,20.49,20.49,0,0,0-21.59,20.43,20.5,20.5,0,0,0,16.37,20.05,30.58,30.58,0,0,0,30.6,26.25,30.75,30.75,0,0,0,30.18-30.85v-14.3a30.59,30.59,0,0,0,26.14-30.22v-15a.77.77,0,0,0-.77-.77h-7.26a.77.77,0,0,0-.77.77Zm-73,40.69a11.68,11.68,0,0,1-12.68-12.68,11.69,11.69,0,0,1,10.55-10.55,11.68,11.68,0,0,1,12.68,12.68A11.69,11.69,0,0,1-1173.41,585Z" transform="translate(1276.62 -501.51)"/><path class="cls-2" d="M-1276.62,639.48h3.94v7.43l6.94-7.43h5.15l-8,8.31,8.64,9.57h-5.51l-7.27-8.49v8.49h-3.94Z" transform="translate(1276.62 -501.51)"/><path class="cls-2" d="M-1243.83,639.48v11.47q0,.51,0,1.1a4.1,4.1,0,0,1-.21,1.1,2,2,0,0,1-.56.85,1.55,1.55,0,0,1-1.06.34,1.89,1.89,0,0,1-1.34-.54,2.8,2.8,0,0,1-.61-1l-5.62-13.29h-3.26l-7.73,17.88h4.34l1.49-3.79h6.94l.07.17a4.17,4.17,0,0,0,.59,1.45,5.83,5.83,0,0,0,1.63,1.62,5.33,5.33,0,0,0,1,.56,6.77,6.77,0,0,0,2.54.45,6.81,6.81,0,0,0,2.94-.54,4.27,4.27,0,0,0,1.73-1.44,5.38,5.38,0,0,0,.82-2.06,13.23,13.23,0,0,0,.21-2.4v-11.9Zm-13.35,10.76,2.17-5.56,2.2,5.56Z" transform="translate(1276.62 -501.51)"/><path class="cls-2" d="M-1236,639.48h3.94v17.88H-1236Z" transform="translate(1276.62 -501.51)"/><path class="cls-2" d="M-1228.07,639.48h5.35l7.6,12.43h.05V639.48h3.94v17.88h-5.15l-7.8-12.73h-.05v12.73h-3.94Z" transform="translate(1276.62 -501.51)"/><path class="cls-3" d="M-1207.19,637.62h3.94v6.67h7.65v-6.67h3.94V655.5h-3.94v-7.73h-7.65v7.73h-3.94Z" transform="translate(1276.62 -501.51)"/><path class="cls-3" d="M-1187.71,637.62h12.15v3.64h-8.21v3.33h7.75v3.64h-7.75v3.64h12.56v3.64h-16.5Z" transform="translate(1276.62 -501.51)"/><path class="cls-3" d="M-1167.79,637.62h3.26l7.78,17.88h-4.44l-1.54-3.79h-6.94l-1.49,3.79h-4.34Zm1.52,5.2-2.17,5.56h4.37Z" transform="translate(1276.62 -501.51)"/><path class="cls-3" d="M-1156.75,637.62h3.94v14.24h5.26v3.64h-9.2Z" transform="translate(1276.62 -501.51)"/><path class="cls-3" d="M-1142.45,641.11h-5.1v-3.49h14.14v3.49h-5.1v14.4h-3.94Z" transform="translate(1276.62 -501.51)"/><path class="cls-3" d="M-1130.6,637.62h3.94v6.67h7.65v-6.67h3.94V655.5H-1119v-7.73h-7.65v7.73h-3.94Z" transform="translate(1276.62 -501.51)"/><path class="cls-3" d="M-1078.4,641.73a68.75,68.75,0,0,1-2.49,11.84l-2.21-1.36a57.2,57.2,0,0,0,2.3-10.93Zm3.95-1.36v12.48a.71.71,0,0,0,.82.82h4.23a.7.7,0,0,0,.66-.52,23.27,23.27,0,0,0,.33-4.89l2.21.64c-.19,3.43-.49,5.43-.92,6a2.17,2.17,0,0,1-2,.94h-5.31a2.37,2.37,0,0,1-1.69-.61,2.27,2.27,0,0,1-.61-1.69v-13.2Zm6,.35-2.28,1.57a51.57,51.57,0,0,0-4.23-5.78l1.93-1.2A66.19,66.19,0,0,1-1068.41,640.71Zm6.63,10.93-2.3,1a95.32,95.32,0,0,0-3-10.55l2.21-.73A94,94,0,0,1-1061.78,651.64Z" transform="translate(1276.62 -501.51)"/><path class="cls-3" d="M-1053.14,641.73a68.75,68.75,0,0,1-2.49,11.84l-2.21-1.36a57.2,57.2,0,0,0,2.3-10.93Zm3.95-1.36v12.48a.71.71,0,0,0,.82.82h4.23a.7.7,0,0,0,.66-.52,23.27,23.27,0,0,0,.33-4.89l2.21.64c-.19,3.43-.49,5.43-.92,6a2.17,2.17,0,0,1-2,.94h-5.31a2.37,2.37,0,0,1-1.69-.61,2.27,2.27,0,0,1-.61-1.69v-13.2Zm6,.35-2.28,1.57a51.57,51.57,0,0,0-4.23-5.78l1.93-1.2A66.19,66.19,0,0,1-1043.16,640.71Zm6.63,10.93-2.3,1a95.32,95.32,0,0,0-3-10.55l2.21-.73A94.08,94.08,0,0,1-1036.53,651.64Z" transform="translate(1276.62 -501.51)"/><path class="cls-3" d="M-1024.76,636v2.12h-3v4.68h2.49v2.12h-2.49v5.22c1-.38,2-.75,2.94-1.18v2.3a59.59,59.59,0,0,1-7.61,2.85l-.64-2.3c1.13-.28,2.18-.61,3.19-.94V645h-2.56v-2.12h2.56v-4.68h-2.75V636Zm12.4-.65v11.37h-5v2.3h5V651h-5v2.66h6v1.93h-14.85v-1.93h6.6V651h-4.58v-1.93h4.58v-2.3h-4.77V635.41Zm-7.16,4.68v-2.84h-2.65v2.84Zm0,1.83h-2.65v3h2.65Zm2.21-1.83h2.84v-2.84h-2.84Zm2.84,1.83h-2.84v3h2.84Z" transform="translate(1276.62 -501.51)"/><path class="cls-3" d="M-1098.41,643.78h-7.14v12.95h-2.11V635.89h9.26Zm-2.09-4.77v-1.39h-5.05V639Zm0,3v-1.57h-5.05V642Zm9,2.84v1.74h-2.66v2.47h3.31v1.76h-3.31v4.93h-2v-4.93h-2.7a5.76,5.76,0,0,1-.75,2.47,8.39,8.39,0,0,1-3,2.66l-1.74-1.46a7.3,7.3,0,0,0,2.77-2,3.1,3.1,0,0,0,.66-1.72h-3.43v-1.76h3.48v-2.47h-2.75v-1.74Zm-4.68,1.74h-2.65v2.47h2.65Zm8.81-10.74v18.26a2.32,2.32,0,0,1-.66,1.76,2.83,2.83,0,0,1-1.9.54h-2.21l-.45-2.11,2.28.09c.54,0,.82-.3.82-.92v-9.73h-7.24v-7.89h9.35Zm-2.11,3.13v-1.39h-5.22V639Zm0,1.46h-5.22V642h5.22Z" transform="translate(1276.62 -501.51)"/></svg>