<svg id="Layer_1" data-name="Layer 1" xmlns="http://www.w3.org/2000/svg" viewBox="0 0 232.31 39.64"><defs><style>.cls-1{fill:#cbcbcb;}</style></defs><path class="cls-1" d="M1413.53,4567.23c1.42-1.77,2.9-3.53,5.52-2.67s3.45,2.94,3.19,5.49c-.2,2,.69,2.56,2.52,2.41a30.15,30.15,0,0,1,4.05,0,3.85,3.85,0,0,1,3.75,3.73c.23,1.88-.86,3.22-2.76,3.9a10.05,10.05,0,0,1-4.57.41c-2.5-.27-3.26.77-3,3.12.16,1.43,0,2.89,0,4.34,0,4.11,1.22,5.06,5.29,4.33,3.86-.69,6,1,5.75,4.28a3.71,3.71,0,0,1-1.79,2.81c-4.44,3.17-13.08,1.63-16.2-2.8-.72-1-.63-2.47-1.78-3.23Z" transform="translate(-1413.53 -4561.43)"/><path class="cls-1" d="M1496,4581c0-4.93,0-9.86,0-14.79,0-2.93,1.74-4.83,4.21-4.8s4.36,1.85,4.49,4.67c.08,1.64-.55,3.72.23,4.81.92,1.28,2.89-.21,4.43-.31,8.23-.49,11.91,4.42,12.16,12.06.13,4.15.05,8.31,0,12.47,0,3.09-1.49,5-3.88,5.21-2.9.25-4.27-.88-5-4.32-.83-4.11-.21-8.28-.36-12.42-.12-3.38-1.71-4.75-5-4.14-1.71.32-2.72,1.13-2.66,3.12.11,4.15.06,8.31,0,12.47,0,3.42-1.6,5.3-4.36,5.31-3.07,0-4.34-1.46-4.36-5.14C1496,4590.49,1496,4585.75,1496,4581Z" transform="translate(-1413.53 -4561.43)"/><path class="cls-1" d="M1526.77,4586.26c0-2.8.1-5.61,0-8.41s1.1-4.32,3.48-5.4a22.37,22.37,0,0,1,12.76-1.57c5.91.88,9.27,5.1,9.34,11.06,0,4.45,0,8.89,0,13.34,0,3.18-1.66,5-4.3,5.06s-4.35-1.86-4.39-5c-.05-4-.07-7.93,0-11.89,0-1.75-.52-3.21-2.09-3.77a6.41,6.41,0,0,0-5.33.3c-1,.53-.71,1.5-.72,2.34,0,4.35,0,8.7,0,13,0,3-1.61,4.9-4.05,5-2.7.06-4.57-1.81-4.64-4.8S1526.77,4589.35,1526.77,4586.26Z" transform="translate(-1413.53 -4561.43)"/><path class="cls-1" d="M1479.61,4570.69a12.32,12.32,0,0,1,10.32,4.17c1.88,2.1,1.92,5.53.18,7.1s-4.55,1.21-6.64-.89c-1.58-1.59-3.29-2.62-5.65-1.85-2.59.85-3.06,3-3.26,5.27a12.47,12.47,0,0,0,.21,3.45c.38,2,1.17,3.65,3.48,4.09a5.24,5.24,0,0,0,5.15-1.85c2.32-2.5,4.5-2.8,6.49-1s2.07,4.6.08,7c-3.76,4.49-9.87,5.86-16.1,3.62-4.91-1.77-8-6.42-8.05-12.22a39.37,39.37,0,0,1,.13-6.36C1467,4574.42,1471.84,4570.68,1479.61,4570.69Z" transform="translate(-1413.53 -4561.43)"/><path class="cls-1" d="M1614.46,4566.67c0-3-1.59-5.06-3.92-5.22-2.65-.17-4.61,1.85-4.77,5-.08,1.62,0,3.25,0,5a17.12,17.12,0,0,1-1.69-.29c-6.67-1.94-14.36,1.16-15.41,9.18a33.48,33.48,0,0,0,0,10.07,11.8,11.8,0,0,0,5.32,8.24c5,3.27,14.89,1.94,19.18-1.43a3.81,3.81,0,0,0,1.34-3.33C1614.46,4584.85,1614.49,4575.76,1614.46,4566.67Zm-12.37,25.51a4.38,4.38,0,0,1-5-3.83,30.24,30.24,0,0,1,0-6.08c.22-2.2,2.44-3.63,4.92-3.41s4.18.9,3.73,3.87a19.45,19.45,0,0,0,0,2.9,14.71,14.71,0,0,0,0,2.32C1606.24,4590.88,1604.71,4592,1602.09,4592.18Z" transform="translate(-1413.53 -4561.43)"/><path class="cls-1" d="M1584.28,4586.14c0-1.25,0-2,0-2.8-.06-6.8-4.54-11.89-11.11-12.61-7.8-.86-13.47,2.87-15.17,9.78a27,27,0,0,0-.41,7.2c.11,5,2.1,9,6.68,11.35a14.14,14.14,0,0,0,14.33-.4C1583.62,4595.77,1584.63,4591,1584.28,4586.14Zm-8.73-.15c0,5-1.43,6.67-5.23,6.2-3-.37-4.09-2.27-4.06-7.1,0-4,1.32-5.91,4.13-6.22a4.48,4.48,0,0,1,5.14,4.23C1575.61,4584.06,1575.55,4585,1575.55,4586Z" transform="translate(-1413.53 -4561.43)"/><path class="cls-1" d="M1449.27,4570.69c-6.79,0-11.42,3.18-12.83,9a27.58,27.58,0,0,0-.37,4.31c-.71,8.94,1.91,15.26,11.63,16.69,4.14.61,8.35.12,11.66-3,1.92-1.78,1.61-4.09-.4-5.72-1.79-1.45-3.42-.6-5.13.09-3.46,1.39-7,1-8.6-1-.43-.52-1-1-.72-1.78s1.12-.61,1.75-.62q5.66,0,11.32,0c2.24,0,3.71-1,4.12-3.23C1463.15,4577.28,1457.63,4570.71,1449.27,4570.69Zm2.22,12.25c-.86-.05-1.72,0-2.58,0a12,12,0,0,1-1.72,0c-.88-.13-2.19.55-2.52-.59a4.41,4.41,0,0,1,.72-2.67c.84-1.7,2.53-2,4.16-1.91a4,4,0,0,1,3.72,2.27C1454,4581.7,1453.95,4583.09,1451.49,4582.94Z" transform="translate(-1413.53 -4561.43)"/><path class="cls-1" d="M1629.25,4571.12c-5,1.44-9.65,5.34-9.1,14.59a32.8,32.8,0,0,0,.32,5.48c2,8.82,16.13,13,22.73,6.75,1.17-1.1,1.85-2.43,1.1-4.17a3.28,3.28,0,0,0-3.94-2.16c-1.88.36-3.71,1-5.58,1.45a5.77,5.77,0,0,1-5.54-1.68,1.9,1.9,0,0,1-.63-2.1c.35-.82,1.16-.54,1.79-.55,3.58,0,7.16,0,10.74,0,3.34,0,4.49-1.17,4.69-4.51C1646.36,4575,1638.13,4568.56,1629.25,4571.12Zm8.41,10.59c-.21,2-1.92,1-3,1.22a8.73,8.73,0,0,1-1.73,0,7.4,7.4,0,0,1-1.44,0c-1-.21-2.58.7-3-.89a3.4,3.4,0,0,1,1.67-3.45,5.22,5.22,0,0,1,5.22-.54A3.32,3.32,0,0,1,1637.66,4581.71Z" transform="translate(-1413.53 -4561.43)"/></svg>