<!-- Generator: Adobe Illustrator 20.1.0, SVG Export Plug-In  -->
<svg version="1.1"
	 xmlns="http://www.w3.org/2000/svg" xmlns:xlink="http://www.w3.org/1999/xlink" xmlns:a="http://ns.adobe.com/AdobeSVGViewerExtensions/3.0/"
	 x="0px" y="0px" width="22.26px" height="80.003px" viewBox="0 0 22.26 80.003" style="enable-background:new 0 0 22.26 80.003;"
	 xml:space="preserve">
<style type="text/css">
	.st0{opacity:0.3;fill:#B3ADA6;}
	.st1{fill:#2B1607;}
	.st2{fill:#FFC0AD;}
	.st3{fill:#C0B2B9;}
	.st4{fill:#2D2D32;}
	.st5{fill:#333333;}
	.st6{fill:#90868B;}
	.st7{fill:#67C5CC;}
	.st8{fill:#5EB4BA;}
</style>
<defs>
</defs>
<g>
	<path class="st0" d="M21.348,76.578c-3.282-1.102-6.867-1.361-10.308-1.357c-3.438,0.004-7.036,0.308-10.31,1.415
		c-0.822,0.278-1.103,1.75-0.025,1.904c0.563,0.08,1.119,0.149,1.674,0.198c0.11,0.098,0.239,0.172,0.377,0.21
		c3.107,0.836,6.449,1.033,9.651,1.054c1.752,0.012,3.507-0.084,5.242-0.336c1.332-0.194,2.78-0.511,3.911-1.277
		C22.279,77.902,22.208,76.866,21.348,76.578z"/>
	<path class="st1" d="M15.077,2.985c-0.06-0.158-0.139-0.318-0.23-0.477c-0.334-0.77-1.242-1.62-2.397-2.1
		c-1.138-0.504-2.489-0.61-3.786,0.077c-0.887-0.017-1.79,0.289-2.569,0.952c-0.7,0.596-1.75,1.744-1.737,4.155
		c0.013,2.411,2.209,4.444,2.746,4.952l0,0c0.045-0.39,0.145-1.307,0.347-1.654c0.134-0.228,0.299-0.433,0.486-0.613
		C7.688,8.237,7.283,8.022,7.351,7.02c0.097-1.431,1.255-0.461,1.255-0.461c0.031-0.013,0.283,0.802,0.316,0.805
		c0.234,0.016,0.46-0.967,0.46-0.967l2.062-2.682c0.321,0.003,1.706,0.04,2.361,0.444c0.741,0.456,0.747,1.423,0.747,1.432
		c-0.048,0.32-0.092,0.626-0.09,0.899c0.01,1.509,0.579,2.192,0.467,2.378c-0.112,0.185-0.864,0.31-0.864,0.31
		s0.034,0.579,0.185,0.829c0.15,0.25-0.35,0.4-0.35,0.4s0.251,0.551-0.1,0.651c0,0,0,0.291-0.036,0.638
		c0.44,0.222,0.816,0.351,0.816,0.351s0.545-1.246,0.867-4.553C15.558,6.356,15.737,4.719,15.077,2.985z"/>
	<path class="st2" d="M13.9,10.407c0,0,0.501-0.15,0.35-0.4c-0.151-0.25-0.185-0.829-0.185-0.829s0.751-0.125,0.864-0.31
		c0.112-0.185-0.457-0.869-0.467-2.378c-0.002-0.273,0.042-0.579,0.09-0.899c0-0.009-0.007-0.976-0.747-1.432
		c-0.655-0.403-2.041-0.44-2.361-0.444L9.382,6.397c0,0-0.226,0.983-0.46,0.967C8.889,7.362,8.636,6.546,8.606,6.559
		c0,0-1.158-0.97-1.255,0.461C7.283,8.022,7.688,8.237,7.937,8.277C7.749,8.456,7.584,8.661,7.451,8.889
		c-0.201,0.347-0.302,1.264-0.347,1.654c0.042,0.053,0.084,0.106,0.124,0.157c1.377,1.747-0.364,4.029-0.364,4.029l4.231,1.522
		c0,0-1.373-4.943,0.15-4.46c1.768,0.56,2.454,0.434,2.504,0.033c0.005-0.043,0.01-0.086,0.014-0.128
		c0.036-0.347,0.036-0.638,0.036-0.638C14.151,10.958,13.9,10.407,13.9,10.407z"/>
	<path class="st2" d="M17.348,44.136c-0.654-1.049-1.295-3.026-1.859-4.294c-0.071-0.16-0.137-0.309-0.197-0.446l0.065,0.392
		l-1.906-0.521c-0.125,2.727,1.245,4.117,1.348,3.884c0.11-0.246-0.473-1.758-0.473-1.758c0.178,0.595,1.545,2.164,2.074,2.69
		C17.036,44.716,17.764,44.803,17.348,44.136z"/>
	<polygon class="st3" points="15.293,39.396 12.214,20.717 11.938,19.763 8.139,20.217 13.142,39.184 13.452,39.268 15.358,39.789 	
		"/>
	<path class="st4" d="M20.562,75.626c-1.359,0.438-1.98-1.314-2.244-2.537l-2.886,0.378l0.094,4.687l0.852,0.034l0.141-2.898
		c0,0,0.891,2.66,1.586,2.776c0.696,0.116,3.114-0.663,3.886-1.099C22.764,76.534,21.739,75.247,20.562,75.626z"/>
	<path class="st4" d="M0.232,76.388l0.748,0.41l1.416-2.532c0,0-0.387,2.778,0.185,3.192c0.572,0.414,3.084,0.792,3.968,0.746
		c0.885-0.046,0.54-1.655-0.682-1.839c-1.678-0.253-1.046-2.812-0.708-3.872l-2.742-0.73L0.232,76.388z"/>
	<path class="st5" d="M7.637,43.761c-0.607-0.384-1.144-0.775-1.605-1.19c1.108,2.323,0.25,11.945,0.25,11.945L2.248,71.718
		l0.169,0.045l2.742,0.73l0.085,0.023c0,0,4.07-13.323,4.737-16.934c0.209-1.131,0.602-3.159,1.029-5.36
		C9.977,47.469,8.642,44.396,7.637,43.761z"/>
	<path class="st4" d="M18.465,73.07c0,0-1.266-15.028-2.023-18.62c-0.664-3.155-2.674-13.394-3.002-14.645
		c-0.156-0.593-0.293-1.196-0.412-1.766c-4.504,1.549-8.67-0.724-8.67-0.724c0.001-0.026,0.002-0.055,0.003-0.082
		c-0.501,2.386,0.168,3.987,1.671,5.339c0.461,0.414,0.998,0.806,1.605,1.19c1.005,0.635,2.34,3.708,3.375,6.461
		c0.921,2.451,1.604,4.65,1.604,4.65l2.775,18.602l0.042-0.006l2.886-0.378L18.465,73.07z"/>
	<path class="st6" d="M13.028,38.039c0.09-0.031,0.179-0.06,0.269-0.094c0.163-0.972,0.006-5.913-0.182-10.588
		c-0.11-2.739,0.575-2.389,1.03-3.778c0.931-2.842-3.049-7.327-3.049-7.327s-3.188-2.14-3.886-2.074
		c-1.231,0.116-2.852,0.729-2.257,8.01c0.331,4.054-0.485,11.719-0.592,15.046c-0.001,0.027-0.002,0.056-0.003,0.082
		C4.358,37.314,8.525,39.588,13.028,38.039z"/>
	<polygon class="st7" points="9.202,48.031 3.702,43.216 3.702,48.631 14.702,48.631 14.702,43.216 	"/>
	<polygon class="st8" points="15.233,42.926 15.238,42.631 15.233,42.631 3.212,42.631 3.207,42.631 3.212,42.926 9.222,47.74 	"/>
	<path class="st2" d="M12.874,46.277c-0.228-0.599-0.763-1.398-1.036-1.787l-2.052,0.604c0.033,0.536,0.171,1.677,0.739,3.082
		c0.581,1.438,1.442,2.315,2.108,1.951c0.521-0.284,0.047-2.926,0.047-2.926S13.186,47.098,12.874,46.277z"/>
	<path class="st3" d="M11.988,44.446L9.366,31.943c0,0,1.653-12.158-0.258-16.024c-0.564-1.142-2.376-1.743-3.321,0.075
		c-0.654,1.258-0.431,7.413,0.927,16.802c0.6,4.148,1.813,7.559,2.996,12.321l0.077-0.023l2.052-0.604L11.988,44.446z"/>
</g>
</svg>