<!-- Generator: Adobe Illustrator 20.1.0, SVG Export Plug-In  -->
<svg version="1.1"
	 xmlns="http://www.w3.org/2000/svg" xmlns:xlink="http://www.w3.org/1999/xlink" xmlns:a="http://ns.adobe.com/AdobeSVGViewerExtensions/3.0/"
	 x="0px" y="0px" width="193.119px" height="209.409px" viewBox="0 0 193.119 209.409"
	 style="enable-background:new 0 0 193.119 209.409;" xml:space="preserve">
<style type="text/css">
	.st0{clip-path:url(#SVGID_2_);}
	.st1{fill:#FFD0A1;}
	.st2{fill:#FFFFFF;}
	.st3{fill:#FF3645;}
	.st4{opacity:0.1;}
	.st5{fill:#F9D0AF;}
	.st6{fill:#E6E6E6;}
	.st7{fill:#CCE4F2;}
	.st8{opacity:0.05;}
	.st9{opacity:0.15;}
	.st10{clip-path:url(#SVGID_4_);}
</style>
<defs>
</defs>
<g>
	<defs>
		<rect id="SVGID_1_" x="19.493" width="173.626" height="209.409"/>
	</defs>
	<clipPath id="SVGID_2_">
		<use xlink:href="#SVGID_1_"  style="overflow:visible;"/>
	</clipPath>
	<g class="st0">
		<g>
			<g>
				<path class="st1" d="M155.073,28.022c-1.426,0.798-3.229,0.289-4.028-1.137l0,0c-0.797-1.427-0.289-3.23,1.137-4.029
					l17.118-8.94c1.426-0.798,3.229-0.289,4.027,1.137l0,0c0.798,1.427,0.289,3.23-1.137,4.029L155.073,28.022z"/>
				<path class="st1" d="M154.098,36.235c-1.427,0.798-3.23,0.29-4.028-1.137l0,0c-0.798-1.427-0.289-3.23,1.137-4.028l17.117-8.94
					c1.426-0.799,3.23-0.289,4.028,1.137l0,0c0.798,1.426,0.289,3.229-1.138,4.028L154.098,36.235z"/>
				<path class="st1" d="M153.2,44.219c-1.426,0.798-3.23,0.288-4.027-1.137l0,0c-0.798-1.427-0.29-3.23,1.136-4.028l17.118-8.941
					c1.426-0.798,3.23-0.289,4.028,1.138l0,0c0.798,1.426,0.289,3.229-1.137,4.028L153.2,44.219z"/>
				<path class="st1" d="M159.66,47.782c-1.427,0.797-3.231,0.288-4.028-1.138l0,0c-0.798-1.426-0.29-3.229,1.137-4.027l6.79-3.585
					c1.426-0.798,3.229-0.289,4.028,1.138l0,0c0.797,1.426,0.289,3.229-1.138,4.027L159.66,47.782z"/>
				<path class="st1" d="M150.13,51.862c-4.741,1.801-10.28,0.393-12.08-4.347l-3.137-8.26c-1.8-4.741,0.583-10.043,5.324-11.843
					l10.061-3.956c11.958-5.744,8.242,1.403,8.444,5.84l3.136,8.26c3.088,6.577,0.43,9.251-4.096,11.539
					C153.397,51.311,150.13,51.862,150.13,51.862z"/>
				<polygon class="st1" points="143.793,50.043 142.873,35.136 3.484,50.681 3.169,75.044 				"/>
			</g>
		</g>
		<g>
			<path class="st2" d="M161.212,45.175c-1.476,4.627-6.423,7.181-11.05,5.705l-0.08-0.026c-4.627-1.476-7.18-6.423-5.704-11.05
				l8.383-26.273c1.476-4.626,6.423-7.181,11.05-5.704l0.079,0.025c4.627,1.476,7.181,6.423,5.704,11.05L161.212,45.175z"/>
			<path class="st3" d="M148.727,26.175l-4.349,13.628c-1.476,4.627,1.078,9.574,5.704,11.05l0.08,0.026
				c4.627,1.476,9.574-1.078,11.05-5.705l4.287-13.433L148.727,26.175z"/>
			<path class="st4" d="M163.812,7.826l0.079,0.025c4.627,1.476,7.181,6.423,5.704,11.05l-8.383,26.273
				c-1.476,4.627-6.423,7.181-11.05,5.705l-0.08-0.026L163.812,7.826z"/>
		</g>
		<g>
			<path class="st1" d="M141.067,34.445c-1.331,1.226-3.401,1.14-4.626-0.189l0,0c-1.225-1.33-1.141-3.4,0.19-4.626l16.125-14.016
				c1.33-1.224,3.401-1.14,4.626,0.19l0,0c1.225,1.33,1.141,3.401-0.19,4.627L141.067,34.445z"/>
			<path class="st1" d="M165.497,29.856c-1.427,0.798-3.23,0.289-4.028-1.137l0,0c-0.798-1.427-0.289-3.23,1.138-4.028l5.832-3.03
				c1.427-0.799,3.23-0.289,4.028,1.137l0,0c0.798,1.427,0.29,3.229-1.137,4.028L165.497,29.856z"/>
			<path class="st1" d="M162.473,38.81c-1.426,0.798-3.229,0.289-4.027-1.138l0,0c-0.798-1.426-0.29-3.23,1.137-4.028l7.962-4.019
				c1.426-0.797,3.23-0.289,4.028,1.138l0,0c0.798,1.426,0.289,3.229-1.137,4.028L162.473,38.81z"/>
			<path class="st1" d="M161.103,47.366c-1.351,0.92-3.193,0.572-4.113-0.779l0,0c-0.92-1.35-0.574-3.191,0.777-4.111l4.411-2.607
				c1.35-0.92,3.192-0.572,4.112,0.778l0,0c0.921,1.35,0.573,3.191-0.778,4.112L161.103,47.366z"/>
		</g>
	</g>
	<g class="st0">
		<g>
			<g>
				<path class="st5" d="M155.186,107.82c-1.61,0.071-2.973-1.174-3.045-2.784l0,0c-0.072-1.609,1.173-2.972,2.783-3.044
					l19.03-0.302c1.609-0.073,2.972,1.173,3.044,2.782l0,0c0.073,1.61-1.173,2.973-2.783,3.045L155.186,107.82z"/>
				<path class="st5" d="M157.427,114.381c-1.609,0.072-2.971-1.174-3.044-2.783l0,0c-0.072-1.61,1.174-2.972,2.783-3.044
					l19.03-0.303c1.609-0.073,2.973,1.173,3.044,2.782l0,0c0.073,1.61-1.173,2.972-2.783,3.044L157.427,114.381z"/>
				<path class="st5" d="M156.39,121.009c-1.609,0.073-2.971-1.173-3.044-2.783l0,0c-0.071-1.609,1.174-2.972,2.783-3.044
					l19.03-0.304c1.609-0.071,2.972,1.174,3.044,2.783l0,0c0.073,1.609-1.173,2.973-2.781,3.045L156.39,121.009z"/>
				<path class="st5" d="M152.746,127.781c-1.609,0.072-2.972-1.173-3.044-2.783l0,0c-0.073-1.609,1.172-2.972,2.782-3.044
					l19.03-0.303c1.61-0.072,2.973,1.173,3.044,2.783l0,0c0.073,1.609-1.173,2.971-2.783,3.044L152.746,127.781z"/>
				<path class="st5" d="M139.867,126.773c-4.85-0.498-8.378-4.835-7.88-9.684l0.87-8.451c0.498-4.85,4.835-8.378,9.685-7.879
					l10.352,0.941c12.755,0.225,6.477,4.762,4.736,8.663l-0.869,8.451c-0.185,6.984-3.567,8.816-8.443,8.829
					C143.594,127.653,139.867,126.773,139.867,126.773z"/>
				<polygon class="st5" points="135.702,123.5 138.931,106.505 13.552,106.611 9.168,129.626 				"/>
			</g>
		</g>
		<g>
			<path class="st6" d="M158.341,128.46c-1.928,2.108-5.199,2.253-7.306,0.325l-12.413-11.356c-2.108-1.928-2.253-5.199-0.325-7.306
				l19.514-21.33c1.928-2.108,5.199-2.253,7.307-0.325l12.413,11.357c2.107,1.928,2.252,5.199,0.324,7.306L158.341,128.46z"/>
			<path class="st2" d="M158.33,127.655c-1.85,2.022-4.988,2.161-7.01,0.312l-11.909-10.896c-2.022-1.849-2.162-4.988-0.312-7.01
				l18.723-20.464c1.85-2.022,4.988-2.162,7.01-0.312l11.909,10.895c2.021,1.85,2.161,4.988,0.311,7.01L158.33,127.655z"/>
			<g>
				<path class="st3" d="M167.005,96.446c-0.558,0.61-1.504,0.652-2.114,0.094l-4.417-4.041c-0.61-0.558-0.652-1.505-0.094-2.114
					l0,0c0.558-0.61,1.505-0.652,2.115-0.094l4.417,4.04C167.521,94.889,167.563,95.836,167.005,96.446L167.005,96.446z"/>
				<path class="st7" d="M166.911,94.331l-2.208-2.02l-2.02,2.208l2.208,2.02c0.61,0.558,1.557,0.516,2.114-0.094
					C167.563,95.836,167.521,94.889,166.911,94.331z"/>
				<path class="st4" d="M160.359,90.414c-0.532,0.61-0.485,1.536,0.116,2.085l4.417,4.041c0.6,0.55,1.526,0.514,2.087-0.07
					L160.359,90.414z"/>
			</g>
			<g>
				<path class="st3" d="M176.216,104.873c-0.558,0.61-1.504,0.652-2.114,0.094l-4.417-4.041c-0.609-0.558-0.651-1.505-0.094-2.114
					l0,0c0.558-0.609,1.505-0.652,2.114-0.094l4.417,4.041C176.732,103.316,176.774,104.263,176.216,104.873L176.216,104.873z"/>
				<path class="st7" d="M176.122,102.759l-2.208-2.021l-2.02,2.208l2.208,2.02c0.61,0.558,1.557,0.516,2.114-0.094
					C176.774,104.263,176.732,103.316,176.122,102.759z"/>
				<path class="st4" d="M169.57,98.841c-0.532,0.61-0.485,1.536,0.115,2.085l4.417,4.041c0.601,0.55,1.527,0.514,2.087-0.07
					L169.57,98.841z"/>
			</g>
			<g>
				<path class="st3" d="M162.947,100.881c-0.558,0.609-1.504,0.652-2.114,0.094l-4.417-4.041c-0.61-0.558-0.652-1.505-0.094-2.114
					l0,0c0.558-0.61,1.505-0.652,2.114-0.094l4.417,4.041C163.463,99.325,163.505,100.271,162.947,100.881L162.947,100.881z"/>
				<path class="st7" d="M162.854,98.767l-2.208-2.02l-2.02,2.208l2.208,2.02c0.61,0.558,1.556,0.516,2.114-0.094
					C163.505,100.271,163.463,99.325,162.854,98.767z"/>
				<path class="st4" d="M156.301,94.849c-0.532,0.611-0.485,1.536,0.116,2.085l4.417,4.041c0.601,0.55,1.526,0.514,2.087-0.07
					L156.301,94.849z"/>
			</g>
			<g>
				<path class="st3" d="M172.159,109.308c-0.558,0.61-1.505,0.652-2.114,0.094l-4.417-4.041c-0.61-0.558-0.652-1.504-0.094-2.114
					l0,0c0.558-0.609,1.504-0.652,2.114-0.094l4.417,4.041C172.674,107.752,172.716,108.699,172.159,109.308L172.159,109.308z"/>
				<path class="st7" d="M172.065,107.194l-2.208-2.02l-2.02,2.208l2.208,2.02c0.609,0.558,1.556,0.516,2.114-0.094
					C172.716,108.699,172.674,107.752,172.065,107.194z"/>
				<path class="st4" d="M165.512,103.276c-0.532,0.61-0.485,1.535,0.115,2.085l4.417,4.041c0.601,0.55,1.526,0.514,2.087-0.07
					L165.512,103.276z"/>
			</g>
			<g>
				<path class="st3" d="M159.246,104.927c-0.558,0.61-1.505,0.652-2.115,0.094l-4.417-4.04c-0.61-0.558-0.652-1.505-0.094-2.115
					l0,0c0.558-0.609,1.505-0.652,2.114-0.094l4.417,4.041C159.761,103.371,159.803,104.318,159.246,104.927L159.246,104.927z"/>
				<path class="st7" d="M159.152,102.813l-2.208-2.02l-2.021,2.208l2.208,2.02c0.61,0.558,1.557,0.516,2.115-0.094
					C159.803,104.318,159.761,103.371,159.152,102.813z"/>
				<path class="st4" d="M152.599,98.895c-0.532,0.61-0.485,1.536,0.115,2.086l4.417,4.04c0.601,0.55,1.526,0.514,2.087-0.07
					L152.599,98.895z"/>
			</g>
			<g>
				<path class="st3" d="M168.456,113.355c-0.558,0.61-1.505,0.652-2.114,0.094l-4.417-4.041c-0.61-0.558-0.651-1.505-0.094-2.114
					l0,0c0.558-0.61,1.505-0.652,2.115-0.094l4.417,4.04C168.972,111.798,169.014,112.745,168.456,113.355L168.456,113.355z"/>
				<path class="st7" d="M168.363,111.24l-2.208-2.02l-2.02,2.208l2.208,2.02c0.61,0.558,1.557,0.516,2.114-0.094
					C169.014,112.745,168.972,111.798,168.363,111.24z"/>
				<path class="st4" d="M161.81,107.323c-0.532,0.611-0.485,1.536,0.115,2.085l4.417,4.041c0.601,0.55,1.527,0.514,2.087-0.07
					L161.81,107.323z"/>
			</g>
			<g>
				<path class="st3" d="M155.187,109.363c-0.558,0.61-1.504,0.652-2.114,0.094l-4.416-4.04c-0.61-0.558-0.652-1.505-0.094-2.114
					l0,0c0.558-0.61,1.504-0.652,2.114-0.094l4.417,4.04C155.703,107.807,155.745,108.753,155.187,109.363L155.187,109.363z"/>
				<path class="st7" d="M155.094,107.249l-2.208-2.02l-2.02,2.208l2.208,2.02c0.61,0.558,1.557,0.516,2.114-0.094
					C155.745,108.753,155.703,107.807,155.094,107.249z"/>
				<path class="st4" d="M148.541,103.331c-0.532,0.61-0.485,1.536,0.116,2.085l4.416,4.04c0.601,0.55,1.527,0.514,2.087-0.07
					L148.541,103.331z"/>
			</g>
			<g>
				<path class="st3" d="M164.398,117.79c-0.558,0.61-1.504,0.652-2.114,0.094l-4.417-4.041c-0.61-0.558-0.651-1.505-0.094-2.114
					l0,0c0.558-0.609,1.505-0.652,2.114-0.094l4.417,4.041C164.915,116.234,164.956,117.18,164.398,117.79L164.398,117.79z"/>
				<path class="st7" d="M164.305,115.676l-2.208-2.02l-2.02,2.208l2.208,2.02c0.61,0.558,1.557,0.516,2.114-0.094
					C164.956,117.18,164.915,116.234,164.305,115.676z"/>
				<path class="st4" d="M157.752,111.758c-0.531,0.61-0.484,1.536,0.116,2.085l4.417,4.041c0.601,0.55,1.526,0.514,2.087-0.07
					L157.752,111.758z"/>
			</g>
			<g>
				<path class="st3" d="M150.842,114.113c-0.558,0.61-1.505,0.652-2.115,0.094l-4.416-4.04c-0.61-0.558-0.652-1.505-0.094-2.115
					l0,0c0.558-0.61,1.505-0.652,2.115-0.094l4.416,4.041C151.358,112.556,151.4,113.503,150.842,114.113L150.842,114.113z"/>
				<path class="st7" d="M150.748,111.999l-2.208-2.02l-2.02,2.208l2.208,2.02c0.61,0.558,1.557,0.516,2.115-0.094
					C151.4,113.503,151.358,112.556,150.748,111.999z"/>
				<path class="st4" d="M144.195,108.081c-0.532,0.61-0.485,1.536,0.116,2.086l4.416,4.04c0.601,0.549,1.527,0.514,2.087-0.07
					L144.195,108.081z"/>
			</g>
			<g>
				<path class="st3" d="M160.053,122.54c-0.558,0.61-1.505,0.652-2.115,0.094l-4.416-4.041c-0.61-0.558-0.652-1.504-0.094-2.115
					l0,0c0.558-0.609,1.505-0.652,2.114-0.094l4.417,4.041C160.569,120.984,160.611,121.93,160.053,122.54L160.053,122.54z"/>
				<path class="st7" d="M159.959,120.426l-2.208-2.02l-2.02,2.208l2.208,2.02c0.61,0.558,1.557,0.515,2.115-0.094
					C160.611,121.93,160.569,120.984,159.959,120.426z"/>
				<path class="st4" d="M153.406,116.508c-0.532,0.611-0.485,1.536,0.116,2.086l4.416,4.041c0.601,0.55,1.527,0.514,2.088-0.07
					L153.406,116.508z"/>
			</g>
			<g>
				<path class="st3" d="M146.784,118.548c-0.558,0.61-1.504,0.652-2.114,0.094l-4.417-4.041c-0.61-0.558-0.652-1.505-0.094-2.114
					l0,0c0.558-0.61,1.504-0.652,2.115-0.094l4.417,4.04C147.3,116.992,147.342,117.939,146.784,118.548L146.784,118.548z"/>
				<path class="st7" d="M146.69,116.434l-2.208-2.02l-2.021,2.208l2.208,2.02c0.61,0.558,1.557,0.516,2.114-0.094
					C147.342,117.939,147.3,116.992,146.69,116.434z"/>
				<path class="st4" d="M140.137,112.516c-0.532,0.61-0.485,1.536,0.116,2.085l4.417,4.041c0.6,0.55,1.527,0.514,2.087-0.07
					L140.137,112.516z"/>
			</g>
			<g>
				<path class="st3" d="M155.995,126.976c-0.558,0.609-1.504,0.652-2.114,0.094l-4.417-4.041c-0.61-0.558-0.651-1.505-0.094-2.114
					l0,0c0.558-0.61,1.505-0.652,2.114-0.094l4.417,4.041C156.511,125.419,156.553,126.366,155.995,126.976L155.995,126.976z"/>
				<path class="st7" d="M155.901,124.861l-2.208-2.02l-2.02,2.208l2.208,2.02c0.61,0.558,1.557,0.515,2.114-0.094
					C156.553,126.366,156.511,125.419,155.901,124.861z"/>
				<path class="st4" d="M149.348,120.943c-0.531,0.611-0.485,1.536,0.116,2.086l4.417,4.041c0.601,0.55,1.527,0.514,2.087-0.07
					L149.348,120.943z"/>
			</g>
			<path class="st8" d="M165.118,88.467l12.413,11.357c2.107,1.928,2.252,5.199,0.324,7.306l-19.514,21.33L165.118,88.467z"/>
		</g>
		<path class="st5" d="M138.64,107.638c-1.497,0.884-3.427,0.386-4.311-1.11l0,0c-0.884-1.497-0.388-3.427,1.111-4.311l17.984-9.931
			c1.497-0.884,3.428-0.387,4.311,1.111l0,0c0.885,1.497,0.387,3.428-1.111,4.311L138.64,107.638z"/>
	</g>
	<g class="st0">
		<path class="st5" d="M162.438,174.804c-1.608-0.114-2.819-1.507-2.706-3.115l0,0c0.113-1.606,1.506-2.818,3.114-2.705
			l18.939,1.882c1.607,0.112,2.818,1.506,2.705,3.113l0,0c-0.112,1.607-1.506,2.818-3.114,2.706L162.438,174.804z"/>
		<path class="st5" d="M163.911,181.578c-1.606-0.113-2.817-1.507-2.704-3.114l0,0c0.113-1.608,1.507-2.818,3.113-2.705
			l18.939,1.881c1.607,0.112,2.818,1.506,2.705,3.113l0,0c-0.113,1.608-1.506,2.818-3.114,2.705L163.911,181.578z"/>
		<path class="st5" d="M162.121,188.044c-1.607-0.112-2.817-1.506-2.705-3.114l0,0c0.114-1.607,1.507-2.817,3.114-2.705l18.94,1.881
			c1.606,0.114,2.818,1.507,2.704,3.114l0,0c-0.112,1.607-1.506,2.819-3.112,2.706L162.121,188.044z"/>
		<path class="st5" d="M157.724,194.353c-1.607-0.113-2.818-1.507-2.704-3.113l0,0c0.112-1.607,1.505-2.818,3.113-2.705
			l18.939,1.881c1.608,0.113,2.819,1.506,2.705,3.114l0,0c-0.112,1.607-1.506,2.817-3.113,2.704L157.724,194.353z"/>
		<path class="st5" d="M145.046,191.875c-4.761-1.051-7.768-5.764-6.717-10.524l1.833-8.296c1.051-4.761,5.764-7.769,10.524-6.717
			l10.176,2.122c12.645,1.686,5.888,5.473,3.712,9.149l-1.832,8.295c-0.985,6.917-4.555,8.349-9.4,7.802
			C148.647,193.177,145.046,191.875,145.046,191.875z"/>
		<path class="st5" d="M146.021,172.725c-1.588,0.707-3.449-0.009-4.155-1.597l0,0c-0.706-1.589,0.008-3.449,1.598-4.155
			l19.004-7.803c1.588-0.707,3.45,0.008,4.155,1.598l0,0c0.707,1.589-0.008,3.449-1.598,4.156L146.021,172.725z"/>
		
			<ellipse transform="matrix(0.8362 -0.5484 0.5484 0.8362 -71.6973 118.0652)" class="st2" cx="161.799" cy="179.058" rx="13.106" ry="13.107"/>
		<path class="st9" d="M150.964,186.424l21.909-14.368c3.817,6.032,2.106,14.033-3.886,17.962
			C162.995,193.947,154.976,192.329,150.964,186.424z"/>
		
			<ellipse transform="matrix(0.8363 -0.5483 0.5483 0.8363 -71.7646 118.1111)" class="st8" cx="161.918" cy="179.24" rx="12.927" ry="1.974"/>
		<polygon class="st1" points="141.585,173.566 141.321,188.5 1.383,179.083 0,154.757 		"/>
	</g>
</g>
</svg>