<svg id="Layer_1" data-name="Layer 1" xmlns="http://www.w3.org/2000/svg" viewBox="0 0 265.47 26.42"><defs><style>.cls-1{fill:#67c4cb;}.cls-2{fill:#fbfeff;}</style></defs><path class="cls-1" d="M62.51,233.41H68v20H78.31v5.11H62.51Z" transform="translate(-62.51 -232.77)"/><path class="cls-1" d="M81.58,233.41H98.66v5.11H87.12v4.69H98v5.11H87.12v5.11H99.3v5.11H81.58Z" transform="translate(-62.51 -232.77)"/><path class="cls-1" d="M112,233.41h4.58l10.94,25.14h-6.25l-2.17-5.33h-9.77l-2.1,5.33h-6.11Zm2.13,7.32-3.05,7.81h6.14Z" transform="translate(-62.51 -232.77)"/><path class="cls-1" d="M130.05,233.41h9.73a17.19,17.19,0,0,1,3.64.37,8.64,8.64,0,0,1,3,1.24,6.21,6.21,0,0,1,2.06,2.34,7.94,7.94,0,0,1,.76,3.68,7.38,7.38,0,0,1-1.39,4.53,6.23,6.23,0,0,1-4,2.36l6.39,10.62h-6.64l-5.26-10.05h-2.73v10.05h-5.54Zm5.54,10.41h3.27q.75,0,1.58-.05a5,5,0,0,0,1.51-.32,2.61,2.61,0,0,0,1.12-.83,2.54,2.54,0,0,0,.44-1.6,2.66,2.66,0,0,0-.39-1.53,2.61,2.61,0,0,0-1-.87,4.42,4.42,0,0,0-1.38-.41,11.31,11.31,0,0,0-1.53-.11h-3.62Z" transform="translate(-62.51 -232.77)"/><path class="cls-1" d="M153.07,233.41h7.53l10.69,17.47h.07V233.41h5.54v25.14h-7.25l-11-17.9h-.07v17.9h-5.54Z" transform="translate(-62.51 -232.77)"/><path class="cls-2" d="M192.52,233.41h8.38l5.79,16.41h.07l5.82-16.41h8.35v25.14H215.4V239.27h-.07l-6.61,19.28h-4.23l-6.36-19.28h-.07v19.28h-5.54Z" transform="translate(-62.51 -232.77)"/><path class="cls-2" d="M224.7,246a14.2,14.2,0,0,1,1-5.47,12,12,0,0,1,2.82-4.17,12.45,12.45,0,0,1,4.3-2.65,16.45,16.45,0,0,1,10.87,0,12.45,12.45,0,0,1,4.3,2.65,12,12,0,0,1,2.82,4.17,15.28,15.28,0,0,1,0,10.94,12,12,0,0,1-2.82,4.17,12.44,12.44,0,0,1-4.3,2.65,16.45,16.45,0,0,1-10.87,0,12.44,12.44,0,0,1-4.3-2.65,12,12,0,0,1-2.82-4.17A14.2,14.2,0,0,1,224.7,246Zm5.75,0a9.21,9.21,0,0,0,.55,3.25,7.43,7.43,0,0,0,1.58,2.56,7.2,7.2,0,0,0,2.47,1.69,8.86,8.86,0,0,0,6.43,0,7.21,7.21,0,0,0,2.47-1.69,7.45,7.45,0,0,0,1.58-2.56,9.82,9.82,0,0,0,0-6.48,7.43,7.43,0,0,0-1.58-2.57,7.23,7.23,0,0,0-2.47-1.69,8.86,8.86,0,0,0-6.43,0,7.22,7.22,0,0,0-2.47,1.69,7.41,7.41,0,0,0-1.58,2.57A9.26,9.26,0,0,0,230.45,246Z" transform="translate(-62.51 -232.77)"/><path class="cls-2" d="M255.6,233.41h9.73a17.19,17.19,0,0,1,3.64.37,8.64,8.64,0,0,1,3,1.24,6.21,6.21,0,0,1,2.06,2.34,7.94,7.94,0,0,1,.76,3.68,7.38,7.38,0,0,1-1.39,4.53,6.23,6.23,0,0,1-4,2.36l6.39,10.62h-6.64l-5.26-10.05h-2.73v10.05H255.6Zm5.54,10.41h3.27q.75,0,1.58-.05a5,5,0,0,0,1.51-.32,2.61,2.61,0,0,0,1.12-.83,2.54,2.54,0,0,0,.44-1.6,2.66,2.66,0,0,0-.39-1.53,2.61,2.61,0,0,0-1-.87,4.42,4.42,0,0,0-1.38-.41,11.31,11.31,0,0,0-1.53-.11h-3.62Z" transform="translate(-62.51 -232.77)"/><path class="cls-2" d="M278.82,233.41h17.08v5.11H284.36v4.69h10.9v5.11h-10.9v5.11h12.18v5.11H278.82Z" transform="translate(-62.51 -232.77)"/><path class="cls-2" d="M300.42,255.5a3.32,3.32,0,0,1,.25-1.28,3.14,3.14,0,0,1,1.74-1.74,3.41,3.41,0,0,1,2.56,0,3.14,3.14,0,0,1,1.74,1.74,3.41,3.41,0,0,1,0,2.56,3.14,3.14,0,0,1-1.74,1.74,3.41,3.41,0,0,1-2.56,0,3.14,3.14,0,0,1-1.74-1.74A3.32,3.32,0,0,1,300.42,255.5Z" transform="translate(-62.51 -232.77)"/><path class="cls-2" d="M310.93,255.5a3.32,3.32,0,0,1,.25-1.28,3.14,3.14,0,0,1,1.74-1.74,3.41,3.41,0,0,1,2.56,0,3.14,3.14,0,0,1,1.74,1.74,3.41,3.41,0,0,1,0,2.56,3.14,3.14,0,0,1-1.74,1.74,3.41,3.41,0,0,1-2.56,0,3.14,3.14,0,0,1-1.74-1.74A3.32,3.32,0,0,1,310.93,255.5Z" transform="translate(-62.51 -232.77)"/><path class="cls-2" d="M321.44,255.5a3.32,3.32,0,0,1,.25-1.28,3.14,3.14,0,0,1,1.74-1.74,3.41,3.41,0,0,1,2.56,0,3.14,3.14,0,0,1,1.74,1.74,3.41,3.41,0,0,1,0,2.56,3.14,3.14,0,0,1-1.74,1.74,3.41,3.41,0,0,1-2.56,0,3.14,3.14,0,0,1-1.74-1.74A3.32,3.32,0,0,1,321.44,255.5Z" transform="translate(-62.51 -232.77)"/></svg>