<svg id="Layer_1" data-name="Layer 1" xmlns="http://www.w3.org/2000/svg" viewBox="0 0 78.94 78.94"><defs><style>.cls-1{fill:#f99891;}.cls-2{fill:#fff;}</style></defs><path class="cls-1" d="M407.51-4.49l78.94,78.94V48.61l-53.1-53.1Z" transform="translate(-407.51 4.49)"/><path class="cls-2" d="M441.9,17.8c.19.19.19.36.05.49a.49.49,0,0,1-.52,0,7.41,7.41,0,0,1-.76-.69.71.71,0,0,0-.88-.17c-.93.42-1.86.88-2.79,1.34a1.07,1.07,0,0,1-1.42-.24c-.69-.76.46-1.57,1-1.71.83-.22,9.05-4,9.48-4.23a.76.76,0,0,1,.93.15,22.8,22.8,0,0,1,2.23,2.2.25.25,0,0,1,0,.34.34.34,0,0,1-.34,0,6.47,6.47,0,0,1-1-.91.59.59,0,0,0-.63-.15,3.7,3.7,0,0,0-.46.19c-1.07.49-3.43,1.4-5.48,2.37-.07,0-.32.12-.2.24Z" transform="translate(-407.51 4.49)"/><path class="cls-2" d="M443.4,21.9l-1.88,1c-.54.27-1,.54-1.44.08s.29-1.27.91-1.56c1.91-.9,9.24-4.7,9.24-4.7a1,1,0,0,1,1.27.36c1.61,1.61,2.81,3.08.9,5A6.2,6.2,0,0,1,446,23c-.12,0-.22-.09-.34-.1s-.39,0-.36.25,0,.95-.88,2.13a.91.91,0,0,0-.14.78c.08.25.2.57,0,.69a.6.6,0,0,1-.78-.37c-.56-1.3.13-1.9.66-3.16a1.21,1.21,0,0,0-.2-1.46C443.84,21.69,443.55,21.81,443.4,21.9Zm8.43-3.59c-.37-.37-.54-.41-1.29,0-1.86,1-5.23,2.52-5.5,2.79a.19.19,0,0,0,0,.3c2,2,5.35.68,6.87-.85A1.42,1.42,0,0,0,451.82,18.31Z" transform="translate(-407.51 4.49)"/><path class="cls-2" d="M448.85,27.31a5.37,5.37,0,0,0-1.17.76,3,3,0,0,0-.31.37c-.2.3-.34.54-.12.86s.37.58.17.74c-.05,0-.24.07-.31,0a3,3,0,0,1-1-1.47c-.22-1,1.15-2.23,2-2.71a33.57,33.57,0,0,1,7.8-3.47.9.9,0,0,1,.91.17,22.1,22.1,0,0,1,1.86,1.73.61.61,0,0,1,.12.32.28.28,0,0,1-.12.22.2.2,0,0,1-.24,0c-.1-.07-1.32-1.12-1.45-1.15a2.12,2.12,0,0,0-.78.24,59.4,59.4,0,0,0-5.67,2.45c-.51.24-.54.47-.15.86a5.35,5.35,0,0,1,.46.42c.25.25.25.46.14.58s-.32.12-.59-.12c-.07-.07-.61-.58-.68-.68A.7.7,0,0,0,448.85,27.31Z" transform="translate(-407.51 4.49)"/><path class="cls-2" d="M466.53,41a1.89,1.89,0,0,1-2.79.22.54.54,0,0,1,0-.78.63.63,0,0,1,.9.12,1,1,0,0,0,1.52-.17A1.54,1.54,0,0,0,466,38c-1.62-1.62-3.37-1.84-5-2.28-.17.2-.35.42-.58.64-2.59,2.59-6.78,3.3-9.68.4-1.39-1.39-2.55-3.4-.73-5.8a4.56,4.56,0,0,1,.93-1,4.35,4.35,0,0,1,.73-.52,33.57,33.57,0,0,1,7.8-3.47,1,1,0,0,1,.91.17,22.31,22.31,0,0,1,1.86,1.73.61.61,0,0,1,.12.32.28.28,0,0,1-.12.22.2.2,0,0,1-.24,0c-.1-.07-1.32-1.12-1.44-1.13s-.36.05-.8.22a59.4,59.4,0,0,0-5.67,2.45c-.51.24-.56.49-.15.86a5.58,5.58,0,0,1,.46.42c.25.25.25.46.14.58s-.32.12-.59-.12l-.69-.66a.67.67,0,0,0-.86-.15c-.14.07-.24.14-.35.19-2.76,1.68-2.22,4-.95,5.31,2.74,2.74,6.56,2,9-.47a3.07,3.07,0,0,0,.29-.36,5.13,5.13,0,0,1-2.13-1.25,1.65,1.65,0,0,1-.19-2.52,2.12,2.12,0,0,1,3,0,2.89,2.89,0,0,1,.19,3.57c1.72.54,3.65.88,5.21,2.44A2.15,2.15,0,0,1,466.53,41Zm-5.89-5.82a2.51,2.51,0,0,0,0-3.1,1.55,1.55,0,0,0-2.13,0,1.23,1.23,0,0,0,0,1.88A5.63,5.63,0,0,0,460.64,35.15Z" transform="translate(-407.51 4.49)"/></svg>