<!-- Generator: Adobe Illustrator 20.1.0, SVG Export Plug-In  -->
<svg version="1.1"
	 xmlns="http://www.w3.org/2000/svg" xmlns:xlink="http://www.w3.org/1999/xlink" xmlns:a="http://ns.adobe.com/AdobeSVGViewerExtensions/3.0/"
	 x="0px" y="0px" width="21.807px" height="70.25px" viewBox="0 0 21.807 70.25" style="enable-background:new 0 0 21.807 70.25;"
	 xml:space="preserve">
<style type="text/css">
	.st0{opacity:0.3;fill:#B3ADA6;}
	.st1{fill:#FFC0AD;}
	.st2{fill:#2B1607;}
	.st3{fill:#808080;}
	.st4{fill:none;stroke:#2D2D32;stroke-width:0.5047;stroke-miterlimit:10;}
	.st5{fill:#FFAA2F;}
	.st6{fill:#333333;}
	.st7{fill:#2D2D32;}
	.st8{fill:#999999;}
	.st9{fill:#1A1A1A;}
	.st10{fill:none;stroke:#2D2D32;stroke-width:0.481;stroke-miterlimit:10;}
	.st11{fill:#67C5CC;}
	.st12{fill:#FFC0A6;}
</style>
<defs>
</defs>
<g>
	<path class="st0" d="M21.291,66.396c-3.188-1.299-6.809-1.281-10.19-1.058c-2.694,0.178-5.388,0.565-8.04,1.107
		c-0.361,0.02-0.714,0.091-1.05,0.222c-0.446,0.098-0.892,0.201-1.335,0.308c-0.915,0.221-0.907,1.757,0.065,1.877
		c0.894,0.11,1.789,0.176,2.684,0.209c2.645,0.655,5.37,1.029,8.086,1.156c3.336,0.155,7.008-0.187,9.839-2.119
		C21.911,67.715,22.026,66.695,21.291,66.396z"/>
	<path class="st1" d="M13.153,12.013c1.44-1.333,1.787-4.684,1.787-4.684s0.772,0.153,0.686-1.118
		c-0.086-1.271-1.114-0.409-1.114-0.409c-0.027-0.011-0.051-0.038-0.081-0.036c-1.368,0.096-2.926-2.287-3.435-3.133
		c-0.588-0.032-1.348,0.097-1.66,0.889c0,0-0.195,0.599-0.14,1.194C9.25,5.083,9.312,5.434,9.31,5.74
		C9.302,7.08,8.796,7.687,8.896,7.852c0.1,0.165,0.767,0.276,0.767,0.276s-0.03,0.514-0.164,0.736
		C9.365,9.086,9.81,9.219,9.81,9.219S9.587,9.708,9.898,9.797c0,0,0,0.324,0.044,0.68c0.044,0.356,0.654,0.563,2.224,0.066
		c1.353-0.429,0.133,4.056,0.133,4.056h3.291c0,0-0.479-1.611-0.437-3.062c-0.616,0.116-1.235,0.2-1.88,0.484
		C13.234,12.038,13.194,11.995,13.153,12.013z"/>
	<path class="st2" d="M16.74,1.253c-0.668-0.655-1.579-0.958-2.502-0.943c-2.398-1.05-5.01,0.791-5.355,2.137
		C8.482,4.01,9.23,4.943,9.23,4.943C9.214,4.868,9.203,4.792,9.196,4.716c-0.055-0.595,0.14-1.194,0.14-1.194
		c0.312-0.792,1.072-0.921,1.66-0.889c0.508,0.846,2.066,3.229,3.435,3.133c0.029-0.002,0.054,0.024,0.081,0.036
		c0,0,1.029-0.862,1.114,0.409c0.086,1.271-0.686,1.118-0.686,1.118s-0.347,3.351-1.787,4.684c0.041-0.018,0.08-0.037,0.122-0.055
		c0.645-0.283,1.263-0.43,1.88-0.546c0.915-0.172,1.824-0.275,2.803-0.648c0.019-0.496,0.262-1.717,0.325-2.081
		C18.54,7.191,19.311,3.777,16.74,1.253z"/>
	<path class="st1" d="M8.398,35.357c-0.5,1.126-1.07,2.882-1.65,3.813c-0.369,0.592,0.278,0.515,0.841-0.046
		c0.47-0.468,1.683-1.86,1.842-2.389c0,0-0.517,1.342-0.42,1.561c0.093,0.21,1.344-1.063,1.192-3.556l-1.461-0.167
		C8.657,34.769,8.539,35.04,8.398,35.357z"/>
	<polygon class="st3" points="14.925,17.93 11.552,17.527 11.307,17.612 8.515,34.548 8.741,34.574 10.202,34.741 10.482,34.773 	
		"/>
	<path class="st4" d="M9.279,37.485c0,0,0.118-18.499,3.043-22.973"/>
	<polygon class="st3" points="7.623,42.345 17.743,42.851 17.754,33.518 7.635,33.012 	"/>
	<path class="st5" d="M10.399,33.932c0.023,0.114,0.047,0.231,0.071,0.352c0.024-0.108,0.048-0.215,0.07-0.321
		C10.493,33.952,10.446,33.942,10.399,33.932z"/>
	<path class="st6" d="M16.575,48.388c0,0-0.762-8.545,0.222-10.607c-0.409,0.368-0.886,0.716-1.425,1.057
		c-0.893,0.564-2.078,3.292-2.997,5.737c0.379,1.954,0.729,3.756,0.914,4.76c0.592,3.207,4.206,15.037,4.206,15.037l2.661-0.708
		L16.575,48.388z"/>
	<path class="st7" d="M15.372,38.838c0.539-0.341,1.016-0.689,1.425-1.057c1.334-1.201,1.928-2.622,1.484-4.741
		c0.001,0.024,0.002,0.049,0.003,0.073c0,0-3.97,1.637-7.742,0.849c-0.023,0.106-0.046,0.213-0.07,0.321
		c-0.077,0.344-0.161,0.695-0.252,1.041c-0.292,1.111-2.076,10.203-2.666,13.005C6.88,51.52,5.756,64.864,5.756,64.864l2.731,0.358
		l2.464-16.518c0,0,0.606-1.952,1.425-4.129C13.294,42.13,14.479,39.402,15.372,38.838z"/>
	<path class="st8" d="M18.283,33.113c-0.001-0.023-0.002-0.049-0.003-0.073c-0.095-2.954-0.82-9.761-0.526-13.361
		c0.528-6.466-0.89-6.729-1.984-6.832c-1.093-0.103-5.2,1.721-5.972,5.149c-0.285,1.267,0.515,3.539,0.417,5.972
		c-0.167,4.152-1.083,8.767-0.938,9.63c0.368,0.139,0.743,0.248,1.121,0.333c0.047,0.011,0.094,0.02,0.141,0.03
		C14.313,34.75,18.283,33.113,18.283,33.113z"/>
	<path class="st9" d="M5.958,64.757c0,0-0.519,1.349-1.78,1.853c-1.262,0.505-2.586,0.422-2.754,1.263c0,0,0.918,1.095,6.918,0.422
		v-3.112L5.958,64.757z"/>
	<path class="st9" d="M17.705,64.258c0,0-0.278,1.174-1.346,1.942c-1.069,0.768-2.366,1.007-2.328,1.837
		c0,0,2.862,0.959,6.571-1.206l-0.615-3.122L17.705,64.258z"/>
	<polygon class="st3" points="15.687,12.013 15.95,12.867 10.976,15.81 11.561,14.011 	"/>
	<path class="st10" d="M13.355,46.612v-3.409c0-0.708-0.574-1.283-1.283-1.283h-1.603c-0.708,0-1.283,0.574-1.283,1.283v3.404"/>
	<polygon class="st11" points="16.544,56.599 5.889,56.599 6.663,44.373 15.861,44.398 	"/>
	<path class="st12" d="M10.721,41.072c-0.277,0.729,0.172,0.82,0.172,0.82s-0.421,2.347,0.042,2.599
		c0.592,0.323,1.356-0.456,1.872-1.733c0.504-1.248,0.627-2.261,0.656-2.737l-1.822-0.536C11.398,39.83,10.923,40.54,10.721,41.072z
		"/>
	<path class="st3" d="M16.864,13.666c-0.537-1.138-2.006-0.096-2.507,0.918c-1.697,3.434-0.521,13.759-0.521,13.759l-2.329,11.103
		l0.133,0.039l1.822,0.536l0.068,0.02c1.051-4.229,2.128-7.258,2.661-10.941C17.397,20.762,17.401,14.805,16.864,13.666z"/>
</g>
</svg>