<svg id="Layer_1" data-name="Layer 1" xmlns="http://www.w3.org/2000/svg" viewBox="0 0 229.16 90.98"><defs><style>.cls-1{fill:#67c4cb;}.cls-2{fill:#fff;}.cls-3{fill:#fbfeff;}</style></defs><path class="cls-1" d="M389.75,233.4h5.59v10.53l9.85-10.53h7.31l-11.28,11.79,12.25,13.58h-7.81l-10.32-12v12h-5.59Z" transform="translate(-389.75 -168.43)"/><path class="cls-1" d="M436.26,233.4v16.26q0,.72-.05,1.56a5.81,5.81,0,0,1-.3,1.56,2.85,2.85,0,0,1-.79,1.2,2.21,2.21,0,0,1-1.5.48,2.68,2.68,0,0,1-1.9-.76,4,4,0,0,1-.86-1.45l-8-18.85h-4.62l-11,25.36h6.16l2.11-5.37h9.85l.1.24a5.92,5.92,0,0,0,.84,2.05,8.27,8.27,0,0,0,2.31,2.29,7.57,7.57,0,0,0,1.49.79,11.05,11.05,0,0,0,7.78-.13,6.06,6.06,0,0,0,2.45-2,7.63,7.63,0,0,0,1.16-2.92,18.77,18.77,0,0,0,.3-3.4V233.4Zm-18.93,15.26,3.08-7.88,3.12,7.88Z" transform="translate(-389.75 -168.43)"/><path class="cls-1" d="M447.44,233.4H453v25.36h-5.59Z" transform="translate(-389.75 -168.43)"/><path class="cls-1" d="M458.62,233.4h7.59L477,251h.07V233.4h5.59v25.36h-7.31l-11.07-18.05h-.07v18.05h-5.59Z" transform="translate(-389.75 -168.43)"/><path class="cls-2" d="M488.24,233.4h5.59v9.46h10.85V233.4h5.59v25.36h-5.59v-11H493.83v11h-5.59Z" transform="translate(-389.75 -168.43)"/><path class="cls-2" d="M515.86,233.4h17.23v5.16H521.45v4.73h11v5.16h-11v5.16h17.82v5.16H515.86Z" transform="translate(-389.75 -168.43)"/><path class="cls-2" d="M544.13,233.4h4.62l11,25.36h-6.3l-2.19-5.37h-9.85l-2.11,5.37h-6.16Zm2.15,7.38-3.08,7.88h6.2Z" transform="translate(-389.75 -168.43)"/><path class="cls-2" d="M559.78,233.4h5.59v20.2h7.47v5.16H559.78Z" transform="translate(-389.75 -168.43)"/><path class="cls-2" d="M580.07,238.35h-7.24V233.4H592.9v4.94h-7.24v20.42h-5.59Z" transform="translate(-389.75 -168.43)"/><path class="cls-2" d="M596.87,233.4h5.59v9.46h10.85V233.4h5.59v25.36h-5.59v-11H602.46v11h-5.59Z" transform="translate(-389.75 -168.43)"/><path class="cls-3" d="M459.32,183.68a163.41,163.41,0,0,1-5.92,28.14l-5.25-3.24a136,136,0,0,0,5.47-26Zm9.38-3.24v29.65a1.7,1.7,0,0,0,2,2h10.05a1.67,1.67,0,0,0,1.56-1.23c.39-.78.67-4.69.78-11.62l5.25,1.51c-.45,8.15-1.17,12.9-2.18,14.35s-2.46,2.23-4.8,2.23H468.7a5.64,5.64,0,0,1-4-1.45,5.4,5.4,0,0,1-1.45-4V180.44Zm14.35.84L477.64,185a122.57,122.57,0,0,0-10.05-13.74l4.58-2.85A157.32,157.32,0,0,1,483.05,181.28Zm15.75,26-5.47,2.4a226.56,226.56,0,0,0-7.2-25.07l5.25-1.73A223.4,223.4,0,0,1,498.8,207.24Z" transform="translate(-389.75 -168.43)"/><path class="cls-3" d="M519.33,183.68a163.41,163.41,0,0,1-5.92,28.14l-5.25-3.24a136,136,0,0,0,5.47-26Zm9.38-3.24v29.65a1.7,1.7,0,0,0,2,2h10.05a1.67,1.67,0,0,0,1.56-1.23c.39-.78.67-4.69.78-11.62l5.25,1.51c-.45,8.15-1.17,12.9-2.18,14.35s-2.46,2.23-4.8,2.23H528.72a5.64,5.64,0,0,1-4-1.45,5.4,5.4,0,0,1-1.45-4V180.44Zm14.35.84L537.65,185a122.57,122.57,0,0,0-10.05-13.74l4.58-2.85A157.32,157.32,0,0,1,543.07,181.28Zm15.75,26-5.47,2.4a226.56,226.56,0,0,0-7.2-25.07l5.25-1.73A223.62,223.62,0,0,1,558.81,207.24Z" transform="translate(-389.75 -168.43)"/><path class="cls-3" d="M586.81,170.17v5h-7.2v11.11h5.92v5h-5.92v12.4c2.46-.9,4.75-1.79,7-2.8v5.47a141.64,141.64,0,0,1-18.09,6.77L567,207.72c2.68-.67,5.19-1.46,7.59-2.24V191.35h-6.09v-5h6.09V175.21H568v-5Zm29.48-1.54,0,27H604.53v5.47h11.95v4.58H604.54V212H618.9v4.58l-35.29,0v-4.58l15.69,0v-6.31H588.4v-4.58h10.89v-5.47H587.95l0-27Zm-17,11.13V173H593v6.76Zm0,4.35H593v7.2h6.31Zm5.25-4.36h6.76V173h-6.76Zm6.76,4.35h-6.76v7.2h6.76Z" transform="translate(-389.75 -168.43)"/><path class="cls-3" d="M411.75,188.57h-17v30.77h-5V169.81h22Zm-5-11.34v-3.3h-12v3.3Zm0,7.2V180.7h-12v3.74Zm21.33,6.76v4.13H421.8v5.86h7.87v4.19H421.8v11.73H417V205.38h-6.42a13.7,13.7,0,0,1-1.79,5.86c-1.23,2.12-3.57,4.19-7,6.31l-4.13-3.46c3.13-1.45,5.31-3,6.59-4.64a7.37,7.37,0,0,0,1.56-4.08h-8.15v-4.19h8.26v-5.86h-6.53V191.2ZM417,195.33h-6.31v5.86H417Zm20.94-25.52V213.2a5.52,5.52,0,0,1-1.56,4.19,6.73,6.73,0,0,1-4.52,1.28H426.6l-1.06-5,5.42.22c1.28,0,2-.72,2-2.18V188.57h-17.2V169.81h22.22Zm-5,7.43v-3.3h-12.4v3.3Zm0,3.46h-12.4v3.74h12.4Z" transform="translate(-389.75 -168.43)"/></svg>