<svg id="Layer_1" data-name="Layer 1" xmlns="http://www.w3.org/2000/svg" viewBox="0 0 245.19 68.67"><defs><style>.cls-1{fill:#cbcbcb;}.cls-2{fill:#ccc;}.cls-3{fill:#e3e3e3;}.cls-4{fill:#e4e4e4;}.cls-5{fill:#e5e5e5;}.cls-6{fill:#ddd;}.cls-7{fill:#fefefe;}</style></defs><path class="cls-1" d="M1871.21,4566c-2.85,0-5.71,0-8.56,0-.77,0-1-.12-.65-.93.93-2.2.9-2.21,3.24-2.21,4,0,7.94,0,11.9,0,.8,0,1.17-.25,1.15-1a.55.55,0,0,1,0-.1c.11-.7.6-1.64.23-2.05s-1.49-.18-2.26-.18c-3.61,0-7.21,0-10.82,0-.85,0-1.07-.23-.7-1,.27-.56.54-1.12.76-1.7s.67-.44,1.07-.44c2.85,0,5.71,0,8.56,0,.77,0,1.09-.21,1.22-1,.35-2.19.39-2.18-1.81-2.18-3.25,0-6.49,0-9.74,0a1.06,1.06,0,0,0-1.2.84c-2.72,7.78-5.48,15.55-8.2,23.33-.22.62-.5.91-1.19.86a15,15,0,0,0-2.26,0c-.73,0-.83-.2-.59-.83q1.83-4.81,3.63-9.64c1.73-4.63,3.44-9.26,5.18-13.88.29-.76-.15-.65-.59-.65-2.43,0-4.85,0-7.28,0-.63,0-.69-.17-.53-.73.84-2.8.83-2.81,3.7-2.81,1.77,0,3.54,0,5.31,0a1.13,1.13,0,0,0,1.29-.89c.44-1.3.94-2.58,1.35-3.89a.91.91,0,0,1,1.06-.75,16.36,16.36,0,0,0,2.16,0c.76-.06.8.24.59.85-.4,1.14-.75,2.3-1.12,3.45s-.36,1.22.85,1.22c4.33,0,8.66,0,13,0,1,0,1.05.31.88,1.11-.37,1.66-.65,3.33-1,5-.12.54.06.63.52.61.62,0,1.25,0,1.87,0s.88.26.74.94c-.32,1.63-.57,3.28-.87,4.91-.1.56.14.66.63.69,1.49.07,1.49.08,1.49,1.54a67.2,67.2,0,0,1-.37,8.62c-.45,3.51-1.66,4.4-5,4.73-2.52.26-2.52.15-3.68-2.51-.27-.63-.14-.82.53-.8,1.11,0,2.23,0,3.34,0s1.39-.36,1.43-1.33c.1-2.09.25-4.18.24-6.28,0-.73-.28-.87-.92-.86C1876.91,4566,1874.06,4566,1871.21,4566Z" transform="translate(-1719.89 -4539.01)"/><path class="cls-2" d="M1888,4584.11h75c1.27,0,1.24,0,1.26,1.3,0,.62-.16.94-.82.86a4,4,0,0,0-.49,0H1813c-.66,0-1.43.22-1.39-.94s0-1.22,1.25-1.22Z" transform="translate(-1719.89 -4539.01)"/><path class="cls-3" d="M1957.59,4568.65c0-2.72,0-5.44,0-8.16,0-.8-.25-1-1-1-1,.06-2,0-2.95,0-.61,0-.77.21-.79.79a54.13,54.13,0,0,1-1.51,10.62c-.61,2.5-2.08,4.57-3.09,6.87-.15.34-.35.34-.61.16-1-.64-1.89-1.29-2.86-1.9-.58-.36-.09-.65.07-.86a33.53,33.53,0,0,0,2.18-3.37,13.6,13.6,0,0,0,2.1-7.53c0-.36,0-.72,0-1.08-.1-5.17.33-10.34.19-15.52,0-.65.22-.86.88-1,4.17-.89,8.33-1.86,12.49-2.81,1.29-.29,1.28-.31,1.61,1,.14.57.31,1.14.49,1.69s0,1-.73,1.16c-3.38.7-6.75,1.46-10.13,2.16-.79.16-1.15.47-1.08,1.35a28.84,28.84,0,0,1,0,3.73c0,.86.29,1,1.07,1,3.38,0,6.75,0,10.13,0,.84,0,1,.26,1,1.06,0,2.5,0,2.55-2.52,2.48-1,0-1.26.25-1.25,1.25.05,5.34,0,10.69,0,16,0,.8-.2,1.07-1,1.06-2.72,0-2.72,0-2.72-2.7Q1957.59,4571.9,1957.59,4568.65Z" transform="translate(-1719.89 -4539.01)"/><path class="cls-1" d="M1837.3,4570.34c-2.16,0-4.33,0-6.49,0-.72,0-1,.18-1,.93,0,2.19,0,4.39,0,6.59,0,.73-.25,1-1,1-2.16,0-2.16,0-2.16-2.17,0-1.74-.06-3.48,0-5.21,0-1-.32-1.12-1.18-1.12-4.29,0-8.59,0-12.88,0-.86,0-1.15-.25-1.13-1.12.07-2.35-.23-2,2.07-2,4,0,8,0,12,0,.84,0,1.16-.17,1.12-1.07-.07-1.7,0-1.7,1.71-1.7,1.39,0,1.39,0,1.39,1.41s0,1.35,1.4,1.35c4.16,0,8.32,0,12.49,0,.84,0,1.15.17,1.12,1.07-.06,2.07,0,2.07-2.07,2.07Z" transform="translate(-1719.89 -4539.01)"/><path class="cls-3" d="M1926.08,4560.6a1.06,1.06,0,0,1-.65-.48q-4.91-5.58-9.81-11.18c-.48-.55-.76-.57-1.29,0-2.89,2.95-5.83,5.84-8.73,8.78-.47.48-.74.64-1.29.05-1.52-1.59-1.53-1.54,0-3.13q4.91-5.07,9.79-10.18c1.58-1.66,1.53-1.64,3.21-.13.64.57.89,1,.12,1.58-.39.32-.1.64.16.91,1.42,1.45,2.85,2.88,4.22,4.38,1.94,2.13,4,4.16,6,6.21.47.47.54.81,0,1.29s-.91,1-1.36,1.54C1926.36,4560.36,1926.21,4560.49,1926.08,4560.6Z" transform="translate(-1719.89 -4539.01)"/><path class="cls-1" d="M1859.39,4599.84c.39-2.11.79-4.23,1.17-6.34.07-.41.26-.57.65-.54h.2c2.06,0,1.62-.23,2,1.54s.78,3.7,1.17,5.56c.3-.12.27-.39.33-.62q.66-2.91,1.33-5.82c.06-.27,0-.65.45-.65a4.56,4.56,0,0,1,1.84.1c.19.08.06.35,0,.54-.88,3.14-1.75,6.29-2.65,9.43-.29,1-1.15.43-1.75.55s-.71-.22-.81-.73c-.44-2.32-.94-4.64-1.45-7.12-.52,2.47-1,4.75-1.46,7.06-.1.54-.26.89-.85.8s-1.39.39-1.68-.66c-.86-3.15-1.76-6.29-2.65-9.43,0-.15-.14-.31,0-.46.29-.33,2.29,0,2.38.39.47,2.2,1.15,4.35,1.42,6.59a.27.27,0,0,1,0,.41C1859.21,4600.28,1859.25,4600,1859.39,4599.84Z" transform="translate(-1719.89 -4539.01)"/><path class="cls-1" d="M1838.54,4554c-1.28,0-2.36,0-3.44,0-.5,0-.68-.17-.7-.68a4.88,4.88,0,0,1,.87-3.32,47.77,47.77,0,0,0,2.75-4.41,1.69,1.69,0,0,1,1.89-1c.63.11,1.55-.32,1.83.21s-.51,1.1-.85,1.63c-.94,1.49-1.91,3-2.89,4.45,1.42.44,1.95.29,2.72-.74a2.56,2.56,0,0,0,.33-.49c.65-1.49,1.86-1.69,3.3-1.55.66.07.72.24.42.76q-2,3.59-4,7.19c-.11.2-.24.39-.35.59-1.21,2.26-1.29,2.29-3.8,2.09-.57,0-.6-.24-.36-.66l1.12-2Z" transform="translate(-1719.89 -4539.01)"/><path class="cls-1" d="M1815.76,4554.78c-1.22,0-2.26,0-3.29,0-.63,0-.85-.23-.88-.86a4.74,4.74,0,0,1,.83-3c1-1.54,2-3.13,3-4.73a1.44,1.44,0,0,1,1.51-.81c.71.05,1.44,0,2.4,0l-4.07,6.31c1.51.45,2.1.35,2.77-.91,1-1.8,2.36-2.25,4.33-1.74-.72,1.31-1.45,2.64-2.19,4-1,1.82-2.09,3.62-3.09,5.46a1.37,1.37,0,0,1-1.45.89c-.75-.06-1.5,0-2.42,0Z" transform="translate(-1719.89 -4539.01)"/><path class="cls-3" d="M1906.7,4578.15c-.33,0-.42-.36-.57-.58-1.3-1.85-1.3-1.88.76-2.71a42.7,42.7,0,0,0,10.72-6.07,20.35,20.35,0,0,0,3.38-3.4c.36-.46.61-.49,1-.15l1.5,1.26c.47.39,0,.67-.16.9a24.3,24.3,0,0,1-4.74,4.8,35.39,35.39,0,0,1-11.39,5.79Z" transform="translate(-1719.89 -4539.01)"/><path class="cls-4" d="M1940.47,4599.65c0-1.93,0-3.86,0-5.79,0-.91.44-.91,1.09-.9s1.13-.07,1.11.87c-.06,3,0,6,0,8.94,0,.65-.24.78-.85.85a2,2,0,0,1-2.19-1.31c-1-2-2.21-3.89-3.47-6.08,0,2.31-.05,4.33,0,6.34,0,1-.37,1-1.15,1.05s-1.06-.22-1.05-1c0-2.88,0-5.77,0-8.65,0-.7.16-.91.91-1a2.16,2.16,0,0,1,2.4,1.47c.93,1.81,2,3.57,3,5.34Z" transform="translate(-1719.89 -4539.01)"/><path class="cls-5" d="M1836.39,4598.25c0-1.47,0-2.95,0-4.42,0-.61.13-.89.81-.88,2.16,0,4.32,0,6.48,0,.61,0,.83.21.78.8s.13,1.18-.76,1.18c-1.38,0-2.75,0-4.13,0-1,0-.81.58-.83,1.15s0,1.1.83,1c1.08-.07,2.16,0,3.24,0,.79,0,1.07.17,1.08,1s-.4,1-1.13,1c-1,0-2.1,0-3.14,0-.69,0-.91.21-.89.9.06,2-.18,1.65,1.66,1.68,1.18,0,2.36,0,3.54,0,.88,0,.69.55.72,1.05s0,.95-.74.94c-2.26,0-4.52,0-6.78,0-.65,0-.76-.29-.75-.84C1836.4,4601.27,1836.39,4599.76,1836.39,4598.25Z" transform="translate(-1719.89 -4539.01)"/><path class="cls-5" d="M1832.05,4598.32c0,1.44,0,2.88,0,4.32,0,.81-.27,1.06-1,1a3.29,3.29,0,0,0-.69,0c-.52,0-.69-.2-.68-.7,0-1.08,0-2.16,0-3.24,0-.59-.18-.83-.79-.8a21.29,21.29,0,0,1-2.36,0c-.67,0-.84.25-.82.86,0,1,0,2.1,0,3.14,0,.56-.2.72-.75.74-1.62,0-1.62.07-1.62-1.53,0-2.72,0-5.44,0-8.15,0-1,.53-1,1.22-1s1.29,0,1.18,1c-.08.74,0,1.5,0,2.26,0,.5.17.71.68.7.85,0,1.7,0,2.55,0,.58,0,.73-.24.72-.77,0-.82,0-1.64,0-2.45,0-.56.2-.72.74-.74,1.62,0,1.62-.07,1.62,1.53Q1832.05,4596.4,1832.05,4598.32Z" transform="translate(-1719.89 -4539.01)"/><path class="cls-3" d="M1906.94,4570.92c-.64,0-.74-.44-.94-.74-1.17-1.69-1.13-1.65.73-2.47a34.78,34.78,0,0,0,7.46-4.83c1.48-1.18,2.76-2.57,4.12-3.88.25-.24.41-.24.66,0,.57.48,1.16.94,1.75,1.41s.06.62-.17.86a60.89,60.89,0,0,1-6.43,5.56,32.63,32.63,0,0,1-6.56,3.87Z" transform="translate(-1719.89 -4539.01)"/><path class="cls-3" d="M1896.42,4550.27c-1.77,0-3.54,0-5.31,0-.56,0-.84-.13-.82-.76.07-3.1-.4-2.53,2.5-2.58,1.63,0,1.43.16,1.45-1.5s-.17-1.45,1.48-1.46c.75,0,1.68-.22,2.21.13s.19,1.4.22,2.13.28.71.79.7c.92,0,1.84,0,2.75,0,.58,0,.8.15.82.77.08,2.57.1,2.57-2.45,2.57Z" transform="translate(-1719.89 -4539.01)"/><path class="cls-4" d="M1907,4592.77c2.34,0,3.8,1,4.38,2.88.21.7,0,.88-.66.87s-1.45.07-2-.95c-.69-1.4-3.08-1.15-3.81.35a5.29,5.29,0,0,0-.05,4.73,2.27,2.27,0,0,0,4.18-.12,2,2,0,0,1,2.25-.58c.24.22.11.47,0,.72a4.56,4.56,0,0,1-3.86,3.3,4.76,4.76,0,0,1-4.74-2.45c-1.18-2.18-1-6.16,1.06-7.71A4.53,4.53,0,0,1,1907,4592.77Z" transform="translate(-1719.89 -4539.01)"/><path class="cls-4" d="M1953.44,4598.3c0-2,.43-3.86,2.33-5,2.11-1.23,6-.8,7,2.4.16.55.12.78-.52.78-.88,0-1.64.1-2.15-1s-2.85-1.13-3.59.08a5.39,5.39,0,0,0-.28,5,2.11,2.11,0,0,0,2.07,1.39,2.14,2.14,0,0,0,2.12-1.46,2,2,0,0,1,2.24-.58c.29.23.09.5,0,.72a4.19,4.19,0,0,1-4.42,3.29,4.68,4.68,0,0,1-4.59-3.43A8.37,8.37,0,0,1,1953.44,4598.3Z" transform="translate(-1719.89 -4539.01)"/><path class="cls-1" d="M1832.55,4574.75c.24-.78.48-1.56.73-2.33s.7-.32,1-.22c1.88.55,3.74,1.14,5.61,1.72,1.46.45,2.92.92,4.39,1.35.48.14.7.28.53.87-.76,2.7-.73,2.69-3.38,1.85s-5.54-1.71-8.31-2.59C1832.92,4575.32,1832.34,4575.38,1832.55,4574.75Z" transform="translate(-1719.89 -4539.01)"/><path class="cls-1" d="M1813.06,4578.4a.39.39,0,0,1-.47-.26c-.26-.78-.53-1.55-.77-2.33-.13-.42.17-.59.5-.7l10.25-3.34.1,0c1.4.12.84,1.46,1.33,2.16.27.39.36.88-.3,1.09l-10.45,3.36Z" transform="translate(-1719.89 -4539.01)"/><path class="cls-3" d="M1915.18,4553.57a10.9,10.9,0,0,1,2.16,1.55c.07.54-.35.81-.66,1.12a36.16,36.16,0,0,1-7.81,6.63l-.24.16c-1.83,1.08-2.39.88-3.24-1.11-.18-.42.06-.51.32-.67a51,51,0,0,0,7.48-5.48,21,21,0,0,0,1.71-1.88Z" transform="translate(-1719.89 -4539.01)"/><path class="cls-1" d="M1887.14,4597.49l1.53-3.41a2.18,2.18,0,0,1,2.71-1.1c.48.21.12.51,0,.71-.71,1.4-1.37,2.84-2.22,4.16a5.58,5.58,0,0,0-.88,3.63,4.27,4.27,0,0,1,0,.88c0,.4.24,1-.24,1.15a3.48,3.48,0,0,1-1.84,0c-.34-.06-.28-.43-.24-.66a8.69,8.69,0,0,0-1.7-6.26c-.63-.95-1.09-2-1.69-3-.39-.63-.14-.72.43-.67h.1c1.95,0,1.93,0,2.69,1.78C1886.17,4595.6,1886.62,4596.42,1887.14,4597.49Z" transform="translate(-1719.89 -4539.01)"/><path class="cls-5" d="M1815.51,4593c1.15,0,2.3,0,3.44,0,.77,0,1,.26.92,1s0,1-.87,1c-2.3,0-2.3,0-2.3,2.39,0,1.77-.05,3.54,0,5.31,0,.95-.43,1-1.14,1s-1.3.19-1.27-.92c.07-2.29,0-4.59,0-6.88,0-.7-.23-1-.9-.88a10.18,10.18,0,0,1-1.08,0c-1.14,0-1.46-.45-1.17-1.57.12-.48.46-.39.77-.39Z" transform="translate(-1719.89 -4539.01)"/><path class="cls-1" d="M1843.24,4554a32.1,32.1,0,0,1,.79,3.93c.3,1.37.51,2.76.77,4.13.12.66,0,1-.8,1q-4.23-.06-8.45,0c-.74,0-1-.22-.94-.95.07-1.9-.19-1.59,1.64-1.6,1.64,0,3.28,0,4.92,0,.55,0,.77-.18.74-.74s.05-1.19,0-1.77C1841.7,4556.5,1842.5,4555.35,1843.24,4554Z" transform="translate(-1719.89 -4539.01)"/><path class="cls-1" d="M1863.35,4573.59c0,1.41,0,2.82,0,4.22,0,.59-.18.83-.79.79a16.66,16.66,0,0,0-1.87,0c-.61,0-.9-.17-.9-.83,0-2.88,0-5.76,0-8.64,0-.63.25-.79.82-.76a16.77,16.77,0,0,0,2,0c.62,0,.78.23.77.8C1863.33,4570.65,1863.35,4572.12,1863.35,4573.59Z" transform="translate(-1719.89 -4539.01)"/><path class="cls-1" d="M1820.6,4554.57c.53,3,1,5.75,1.53,8.5.09.48-.08.59-.49.59h-9c-.4,0-.57-.14-.61-.56-.18-1.73-.12-1.82,1.62-1.82s3.28,0,4.92,0c.54,0,.78-.16.75-.73s.06-1.12,0-1.67C1819,4557.31,1819.77,4556.06,1820.6,4554.57Z" transform="translate(-1719.89 -4539.01)"/><path class="cls-1" d="M1868.63,4573.25c0,1.31,0,2.62,0,3.93,0,.61-.14.91-.82.86a14.08,14.08,0,0,0-2,0c-.63,0-.77-.24-.76-.81,0-2.68,0-5.37,0-8,0-.67.25-.81.86-.81,2.67,0,2.67-.05,2.67,2.63Q1868.63,4572.12,1868.63,4573.25Z" transform="translate(-1719.89 -4539.01)"/><path class="cls-4" d="M1915.87,4598.3c0-1.51,0-3,0-4.52,0-1,.61-.78,1.17-.81s1.06,0,1,.85c-.05,2.29,0,4.59,0,6.88,0,.73.19,1,.94,1,1.21-.06,2.43,0,3.64,0,.85,0,.94.41,1,1.1s-.21.91-.9.89c-2,0-4,0-6,0-.59,0-.82-.18-.8-.79C1915.89,4601.32,1915.87,4599.81,1915.87,4598.3Z" transform="translate(-1719.89 -4539.01)"/><path class="cls-1" d="M1870,4572.75c0-1.21,0-2.42,0-3.63,0-.53.15-.73.72-.76,2.65-.12,2.65-.14,2.65,2.54,0,1.83,0,3.66,0,5.49,0,.62-.15.85-.82.86-2.56,0-2.56.07-2.56-2.45Q1870,4573.78,1870,4572.75Z" transform="translate(-1719.89 -4539.01)"/><path class="cls-4" d="M1929.45,4598.34c0,1.47,0,2.94,0,4.42,0,.62-.16.86-.82.86-1.55,0-1.55,0-1.55-1.51,0-2.68,0-5.37,0-8,0-1,.34-1.14,1.18-1.12s1.3,0,1.23,1.07C1929.38,4595.45,1929.45,4596.9,1929.45,4598.34Z" transform="translate(-1719.89 -4539.01)"/><path class="cls-4" d="M1949.32,4598.33c0,1.37-.06,2.75,0,4.12.06,1-.3,1.3-1.22,1.15a2.94,2.94,0,0,0-.59,0c-.43,0-.57-.2-.57-.6q0-4.71,0-9.42c0-.48.22-.63.66-.61a7.29,7.29,0,0,0,1,0c.57,0,.73.22.72.75C1949.31,4595.25,1949.32,4596.79,1949.32,4598.33Z" transform="translate(-1719.89 -4539.01)"/><path class="cls-2" d="M1857.18,4547.9h-2.45c-.42,0-.6-.16-.42-.61.29-.69.54-1.4.8-2.1a.86.86,0,0,1,.91-.59c1.5,0,3,0,4.51,0,.53,0,.65.14.52.7-.59,2.61-.57,2.61-3.19,2.61Z" transform="translate(-1719.89 -4539.01)"/><path class="cls-3" d="M1896.34,4556c-.39,0-.79,0-1.18,0-.61-.05-1.48.31-1.76-.18-.44-.74-.14-1.71-.14-2.59,0-.35.31-.37.58-.37a40.34,40.34,0,0,1,5.09.05c1.24.16.42,1.37.59,2.08.1.42.19,1-.63,1S1897.19,4556,1896.34,4556Z" transform="translate(-1719.89 -4539.01)"/><path class="cls-3" d="M1896.41,4561.68h-2.16a1.71,1.71,0,0,1-.49,0c-1.08-.34-.37-1.21-.49-1.82-.08-.37-.33-1.09.5-1.11,1.73,0,3.46,0,5.2,0,.28,0,.55,0,.56.4,0,.72,0,1.44,0,2.16,0,.42-.37.39-.66.39Z" transform="translate(-1719.89 -4539.01)"/><path class="cls-2" d="M1878.09,4570.21s0,.07,0,.1c-.07,2.77.58,2.34-2.57,2.38-.54,0-.77-.22-.76-.76,0-1.14,0-2.29,0-3.43,0-.49.14-.76.67-.7h.2C1878.09,4567.74,1878.09,4567.74,1878.09,4570.21Z" transform="translate(-1719.89 -4539.01)"/><path class="cls-2" d="M1849.58,4597.56a1.42,1.42,0,0,1,1.34,1.29,1.48,1.48,0,0,1-1.29,1.36,1.41,1.41,0,0,1-1.38-1.36A1.34,1.34,0,0,1,1849.58,4597.56Z" transform="translate(-1719.89 -4539.01)"/><path class="cls-2" d="M1897.19,4598.76c0,.77-.67,1.47-1.25,1.41a1.27,1.27,0,0,1-1.24-1.26,1.34,1.34,0,0,1,1.38-1.22A1.09,1.09,0,0,1,1897.19,4598.76Z" transform="translate(-1719.89 -4539.01)"/><path class="cls-6" d="M1859.39,4599.84a.67.67,0,0,1-.29.64l-.07-.45Z" transform="translate(-1719.89 -4539.01)"/><path class="cls-1" d="M1798.86,4550.86a19.39,19.39,0,0,0-10.84-10.28c-5.33-2.15-10.64-2.21-15.84.48a21.3,21.3,0,0,0-7.28,6.16c-.42.56-.65.73-1.16,0a20,20,0,0,0-4.07-4.1,18,18,0,0,0-14.82-3.81,20.32,20.32,0,0,0-11.93,6.69,19.8,19.8,0,0,0-5,12.51,24,24,0,0,0,2.49,11.48,1.16,1.16,0,0,1,.17.74,15.47,15.47,0,0,1-1.58,5.12,5.25,5.25,0,0,0,.34,6.05,9.79,9.79,0,0,1,1.94,6.45c0,.53-.08.72-.66.39-1.68-.95-1.7-.92-2.61.86-.09.18-.19.35-.27.52-.28.63-.6,1-1.28.37-.44-.38-1-.61-1.48-1s-.89-.25-1.23.32c-1.16,1.93-2.34,3.87-3.59,5.74-.46.69-.51,1.12.24,1.55a2.79,2.79,0,0,1,.55.41c.46.43.69.23,1-.24.9-1.6,1.86-3.16,2.75-4.76.29-.53.54-.62,1.06-.31q6.19,3.71,12.41,7.37c.51.3.59.56.26,1.08-.82,1.3-1.59,2.63-2.35,4s-.71,1.32.63,2.12c.63.38.94.3,1.27-.37,1-2,2-3.92,3-5.85.63-1.17.66-1.16-.47-1.81s-1.26-.74-.58-2c.29-.55.82-1.08.84-1.64,0-.73-1-.64-1.44-1.29a23.76,23.76,0,0,0,8.36-3.78.84.84,0,0,1,1.33.09c.61.64,1.31,1.18,1.95,1.79a112.58,112.58,0,0,1,8.26,8.68c1.73,2.08,3.59,4.09,4.6,6.67.08.21.16.45.46.43s.38-.21.48-.43a11.39,11.39,0,0,1,.59-1.23c2.88-4.75,6.83-8.59,10.64-12.54,2.38-2.47,5.12-4.57,7.72-6.81a93,93,0,0,0,11.16-11.46,25.28,25.28,0,0,0,5.71-13.75A20.4,20.4,0,0,0,1798.86,4550.86Zm-50.91,36.7a45.15,45.15,0,0,1-9.55,5.18,1.16,1.16,0,0,1-1.19-.08c-1.21-.77-2.45-1.5-3.69-2.23-.39-.23-.77-.49-.6-1,1.08-3-.26-5.53-1.81-8a4.1,4.1,0,0,1-.79-3.69,1.65,1.65,0,0,1,.21-.54c1.66-1.89,1.84-4.34,2.53-6.6,0-.06,0-.13,0-.19.15-.67.4-1.31,1.16-1.42s1.05.57,1.35,1.1a13.26,13.26,0,0,1,.56,1.45,1,1,0,0,0,1.13.73,1.12,1.12,0,0,0,.88-1.06,1.6,1.6,0,0,0-.14-1.33c-.66-.81-.15-1.36.48-1.65A27.34,27.34,0,0,1,1746,4566c.52-.08.7.28.67.74a9.39,9.39,0,0,0,.21,2.33,4.69,4.69,0,0,0,1.32,2.67c1.24,1.21,2.49,2.42,3.66,3.71a3.55,3.55,0,0,1,.92,2.93A12,12,0,0,1,1748,4587.56Zm43.4-13.65a52.36,52.36,0,0,1-9.66,10,113.67,113.67,0,0,0-9.38,8.18,71.07,71.07,0,0,0-7.5,8.91c-.37.54-.62.5-.93,0a72.11,72.11,0,0,0-7.68-9.15,42.18,42.18,0,0,0-4.24-3.78c-.66-.54-1-.84-.28-1.7,1.24-1.42,1.17-1.5,2.74-.28a42.4,42.4,0,0,1,9.42,10.31c.23.34.41.93.91.16a47.67,47.67,0,0,1,12.54-12.68,38.15,38.15,0,0,0,11.66-13.22,13.28,13.28,0,0,0-5.52-18.15c-6-3.37-12-2-17,2.08l-1,.81c-1.25,1.06-1.22,1-2.46-.12a15.93,15.93,0,0,0-10.79-4.72,13.51,13.51,0,0,0-7.33,2.2c-4.5,2.76-6.9,6.74-6.62,12.06.08,1.55-1.05,1.95-1.78,2.77-.2.23-.43,0-.62-.11a4.05,4.05,0,0,0-1.81-.7c-.44,0-.36-.4-.43-.66a14.57,14.57,0,0,1,.32-7.15c1.76-7,6.55-10.6,13.36-12.06,6.55-1.41,11.7,1,16.1,5.61,1,1,.9.93,1.9-.08,3.82-3.87,8.24-6.52,13.93-5.88a19.06,19.06,0,0,1,11,4.5,15.72,15.72,0,0,1,4.66,8.23,17.17,17.17,0,0,1,.43,4.28C1795.52,4567.45,1793.54,4570.74,1791.36,4573.91Z" transform="translate(-1719.89 -4539.01)"/><path class="cls-7" d="M1751,4571.34c-.29,0-.52-.14-.55-.45s.27-.43.51-.5c1.37-.43,2.74-.86,4.13-1.23.81-.22,1.39-.53,1.54-1.5a7.91,7.91,0,0,1,1.18-2.79c1.66-2.74,4.47-2.59,6.38-.25a16.3,16.3,0,0,1,3.27,8,19.66,19.66,0,0,1-.64,10.05,10.41,10.41,0,0,1-.54,1.26c-1.68,3.2-4.68,3.46-6.87.59a8.24,8.24,0,0,1-1.22-2,2.09,2.09,0,0,0-2.2-1.53,4.8,4.8,0,0,1-.76-.17c-.62-.1-.55-.42-.29-.82a2,2,0,0,1,1.53-.13c1.19.25,2.39.38,3.59.56.48.07.87,0,1-.52.94-3.06,1.55-6.12-.14-9.15a9.8,9.8,0,0,0-.64-1,1.26,1.26,0,0,0-1.55-.49c-2.11.62-4.2,1.29-6.3,1.92A2.31,2.31,0,0,1,1751,4571.34Z" transform="translate(-1719.89 -4539.01)"/><path class="cls-4" d="M1751,4571.34c2.71-.83,5.42-1.65,8.12-2.5a1,1,0,0,1,1.11.4,7.87,7.87,0,0,1,2,4.4,15.68,15.68,0,0,1-.88,6.44c-.22.67-.58.72-1.18.64-1.74-.24-3.44-.67-5.2-.75.77-1.33.33-2.6-.25-3.83A19.51,19.51,0,0,0,1751,4571.34Z" transform="translate(-1719.89 -4539.01)"/><path class="cls-3" d="M1937.11,4549.83c2.94-.74,5.86-1.55,8.8-2.32.69-.18,1-.44.75-1.22a11.59,11.59,0,0,1-.5-1.89c-.12-.63-.45-.74-1-.58l-11.3,3.18a.78.78,0,0,0-.66.9c.08,4.78-.07,9.55-.25,14.44a24.2,24.2,0,0,1-2.54,13.19c-.21.43-.08.63.3.85a19.73,19.73,0,0,1,2.15,1.36c.64.49.93.37,1.26-.34a27.6,27.6,0,0,0,2.22-10.55c0-.88.24-1.3,1.24-1.27,2.42.07,4.85,0,7.27,0,.83,0,1.17-.21,1.16-1.1q-.06-5.21,0-10.42c0-.9-.34-1.11-1.16-1.09-2.13,0-4.26,0-6.39,0s-2.16,0-2.12-2.21A.87.87,0,0,1,1937.11,4549.83Zm-.58,9.42c0-.79,0-1.57,0-2.35,0-.47.11-.73.65-.73,1.54,0,3.07,0,4.61,0,.45,0,.66.15.65.62,0,1.6,0,3.21,0,4.81,0,.52-.21.68-.7.67-1.5,0-3,0-4.51,0-.59,0-.72-.26-.7-.77C1936.55,4560.76,1936.53,4560,1936.53,4559.25Z" transform="translate(-1719.89 -4539.01)"/><path class="cls-1" d="M1833.23,4554.78c0-1.93,0-3.86,0-5.8,0-.77.35-1.74-.17-2.27s-1.43-.11-2.18-.17h-.1c-.51.05-.67-.17-.69-.68-.11-2.07-.13-2.07-2.23-2.07a2.37,2.37,0,0,1-.29,0c-.8-.1-1,.28-1,1,0,1.65.27,1.51-1.5,1.52a2.77,2.77,0,0,1-.39,0c-.83-.11-1.06.27-1.06,1.07q0,7.32,0,14.64c0,.77.25,1,1,1,2.55,0,5.11,0,7.66,0,.83,0,1-.3,1-1C1833.2,4559.63,1833.23,4557.2,1833.23,4554.78Zm-4.83-5.3c1.77,0,1.5-.21,1.51,1.72,0,1.68.21,1.42-1.81,1.42-1.62,0-1.35.22-1.36-1.86C1826.73,4549.25,1826.59,4549.5,1828.4,4549.48Zm1.51,8.38c0,1.87,0,1.87-1.84,1.87-1.33,0-1.33,0-1.34-1.3v-.29c0-2.2,0-2.17,2.23-2.18.7,0,1.05.16,1,.92A7.59,7.59,0,0,0,1829.91,4557.86Z" transform="translate(-1719.89 -4539.01)"/><path class="cls-3" d="M1901.92,4565.66c0-.66-.23-.84-.86-.83q-4.47,0-8.95,0c-.64,0-.86.19-.85.84,0,1.9,0,3.8,0,5.7v4c0,2.54,0,2.52,2.58,2.43.52,0,.82-.13.76-.71,0-.42.09-.69.59-.68.92,0,1.83,0,2.75,0,.34,0,.63.09.57.48-.12.91.43.93,1.08.9a9.87,9.87,0,0,1,1.38,0c.66.06.93-.14.92-.86Q1901.87,4571.31,1901.92,4565.66Zm-3.35,3.81a8.92,8.92,0,0,0,0,1.17c0,2.07,0,2.07-2,2.07s-1.9,0-1.9-1.92c0-2.41,0-2.41,2.38-2.41a3,3,0,0,0,.49,0C1898.37,4568.23,1898.68,4568.61,1898.57,4569.46Z" transform="translate(-1719.89 -4539.01)"/><path class="cls-1" d="M1880.47,4602.38c-1-2.9-2.07-5.79-3.07-8.69a.9.9,0,0,0-1.07-.74,7.32,7.32,0,0,1-1.08,0,.81.81,0,0,0-.94.62c-1.09,3.12-2.23,6.22-3.34,9.32-.07.21-.23.42,0,.62.41.35,2.27,0,2.33-.48.19-1.57,1.16-1.81,2.47-1.62a3.34,3.34,0,0,0,.88,0c.76-.1,1.24.11,1.35,1s.5,1.51,1.41,1.21C1880.88,4603.6,1880.9,4603.6,1880.47,4602.38Zm-5.46-2.76c-.4.06-.52-.24-.41-.58.35-1.08.72-2.14,1.09-3.21l.24,0,1,3.25c0,.09.11.24.07.27C1876.42,4600,1875.68,4599.53,1875,4599.63Z" transform="translate(-1719.89 -4539.01)"/><path class="cls-1" d="M1758.51,4581.4c1,.14,1.77.24,2.57.38.33.06.55,0,.68-.33,1.13-3.07,1.92-6.17,1-9.46a8.49,8.49,0,0,0-2-3.54,1.53,1.53,0,0,0-1.93-.49,10.19,10.19,0,0,1-1.41.44A3.57,3.57,0,0,1,1761,4565a3.93,3.93,0,0,1,2.78,2,14,14,0,0,1,2.26,5.89,16.34,16.34,0,0,1-.45,8.22,6.88,6.88,0,0,1-1.23,2.21,2.72,2.72,0,0,1-3.44.71A5.8,5.8,0,0,1,1758.51,4581.4Z" transform="translate(-1719.89 -4539.01)"/></svg>