<svg id="Layer_1" data-name="Layer 1" xmlns="http://www.w3.org/2000/svg" viewBox="0 0 121.97 93.46"><defs><style>.cls-1{fill:#e5e5e5;}</style></defs><path class="cls-1" d="M2017.5,4605.35a76,76,0,0,0,1.42-14l1.8.13a69.62,69.62,0,0,1-1.44,14.06Zm5.05-15.48h1.86v14.78c0,.67,0,1.29,1.15,1.29H2030c1.55,0,1.57-1.17,1.57-2.64,0-.64,0-1.5,0-2.6l1.84.31c0,.85,0,1.61,0,2.27,0,2.64-.17,3.2-.59,3.77-.59.7-.9.83-2.21.83h-5.89c-1.56,0-2.27-1.18-2.21-2.9Zm5.77,11.23a69.17,69.17,0,0,0-2.19-12.72l1.75-.39a62.84,62.84,0,0,1,2.21,12.84Zm6.77,4.1a69.43,69.43,0,0,0-3-14.12l1.73-.4a64.92,64.92,0,0,1,3,14.21Z" transform="translate(-2016.49 -4514.79)"/><path class="cls-1" d="M2041.61,4604v-6.61h-2.21v-1.68h2.21v-5.39h-2.3v-1.67h6.22v1.67h-2.24v5.39h2.07v1.68h-2.07v6a18.09,18.09,0,0,0,2.2-1l.71,1.7a45.27,45.27,0,0,1-6.58,2.42l-.69-1.72Zm9.46,1.85v-2.57h-4.74v-1.67h4.74v-2.16h-4.6c-.14,0-.23-.09-.23-.26v-10.28a.21.21,0,0,1,.23-.24h10.94a.21.21,0,0,1,.23.24v10.28c0,.17-.08.26-.23.26h-4.66v2.16h4.93v1.67h-4.93v2.57h5.75v1.68h-13.16v-1.68Zm0-12.6v-2.92H2048c-.07,0-.08,0-.07.07v2.85Zm0,4.51v-2.83h-3.13v2.75l.07.09Zm1.69-7.43v2.92h3.2v-2.85l-.08-.07Zm0,4.6v2.83h3.12l.08-.09v-2.75Z" transform="translate(-2016.49 -4514.79)"/><path class="cls-1" d="M2063.92,4598.05a21.56,21.56,0,0,0-3.67-2.52l.94-1.59a21.13,21.13,0,0,1,3.78,2.57Zm-3.34,8.78a22.7,22.7,0,0,0,3.11-7.43l1.73.39a24.84,24.84,0,0,1-3.13,7.89Zm4.26-14.14a22.17,22.17,0,0,0-3.7-2.46l.9-1.61a20.7,20.7,0,0,1,3.8,2.49Zm12.34,2.65-11.42,1.31-.52-1.87,1.9-.2a47.19,47.19,0,0,0,2.61-6.58l1.65.64a46.88,46.88,0,0,1-2.19,5.75l7-.77c-.63-1.13-1.29-2.27-2-3.29l1.52-.89a77.57,77.57,0,0,1,3.91,7l-1.57.76Zm-8.9,11.59v1h-1.75v-9.22c0-.17,0-.31.27-.31h11a.34.34,0,0,1,.38.39v9.14h-1.77v-1Zm0-1.85h8.11v-4.58c0-.17-.08-.26-.28-.26h-7.58c-.18,0-.25.09-.25.26Z" transform="translate(-2016.49 -4514.79)"/><path class="cls-1" d="M2093.78,4591a4.82,4.82,0,0,1-.14,1h6.42v1.53h-1.59l.75,1.11a16.47,16.47,0,0,1-1.63,1.25,9.93,9.93,0,0,0,3.17.69l-.62,1.62-1.3-.27v5.49a.2.2,0,0,1-.23.22h-4.55v2.53a2,2,0,0,1-2.21,2.06,9.16,9.16,0,0,1-2.2-.3v-1.85a8,8,0,0,0,2,.34c.5,0,.75-.11.75-.71v-2.07h-4.66c-.12,0-.18-.07-.18-.22v-5.21l-.85.33-.8-1.53a18.17,18.17,0,0,0,2.47-.94l-1.63-1,.78-1.39a12.07,12.07,0,0,1,2.34,1.46,7.56,7.56,0,0,0,1.57-1.65h-4.72V4592H2092l.15-1Zm-7.88-.35c-.12,0-.19.07-.19.2V4598a17.19,17.19,0,0,1-2.92,10l-1.47-.76a15.93,15.93,0,0,0,2.23-4.69l.4-2.44-1.51,1.35-1.21-1.26a25.38,25.38,0,0,0,2.86-2.68v-8c0-.3.13-.46.42-.46h6.91l-.27-1h1.78l.27,1h7.31v1.61Zm-3.05,5.49a48.34,48.34,0,0,0-1.44-5l1.52-.47a36.43,36.43,0,0,1,1.48,5.08Zm6.81,9.41a13.91,13.91,0,0,1-4.06,2.27l-.56-1.65a18.17,18.17,0,0,0,3.56-2.13Zm-.52-6.16h8.08v-1.24l-.07,0h-8c-.06,0-.08,0-.06,0Zm8.08,1.5h-8.08v1.13l.06.09h8l.07-.09Zm-1.42-4.31a16.27,16.27,0,0,1-2.82-2.81,8.53,8.53,0,0,1-2.42,2.81Zm-1.21-3.07a15.14,15.14,0,0,0,1.48,1.42,23.51,23.51,0,0,0,2-1.42Zm4.78,14.34a24.4,24.4,0,0,0-3.67-2l.75-1.59a20,20,0,0,1,3.77,2Z" transform="translate(-2016.49 -4514.79)"/><path class="cls-1" d="M2105.55,4600.43a33,33,0,0,1-1.5,7.23l-1.65-.94a29.33,29.33,0,0,0,1.61-9.45v-7.74c0-.43.1-.63.4-.66a37.59,37.59,0,0,0,6.83-.78l.64,1.85a51.5,51.5,0,0,1-5.9.72c-.24,0-.29.13-.27.3v1.81H2111c.37,0,.56.19.56.59v6.47a.51.51,0,0,1-.56.59Zm4.28-5.63c0-.11-.06-.17-.19-.17h-4v2.64l0,1.31h4c.12,0,.19-.07.19-.2Zm7.69,1h-2.8v2.9c0,2.62-.52,5.36-4.45,9.2l-1.35-1.5c2.53-2.31,4-4.3,4-7.7v-9.28c0-.41.12-.63.46-.65a49.52,49.52,0,0,0,7.62-.7l.63,1.87a54.61,54.61,0,0,1-6.66.66.24.24,0,0,0-.27.3V4594h7v1.85h-2.43v12.27h-1.78Z" transform="translate(-2016.49 -4514.79)"/><path class="cls-1" d="M2080.94,4574.35v2.18h-4.65v-42.68c0-1,.52-1.5,1.57-1.5h41.67c1.09,0,1.62.5,1.62,1.5v42.68h-4.65v-2.18Zm0-22.8h15.69v-15h-15.06c-.47,0-.68.25-.63.64Zm15.69,4.21h-15.69v14.38h15.69Zm4.38-4.21h15.48v-14.33c0-.44-.2-.64-.62-.64H2101Zm15.48,4.21H2101v14.38h15.48Z" transform="translate(-2016.49 -4514.79)"/><path class="cls-1" d="M2080.94,4574.35v2.18h-4.65v-42.68c0-1,.52-1.5,1.57-1.5h41.67c1.09,0,1.62.5,1.62,1.5v42.68h-4.65v-2.18Zm0-22.8h15.69v-15h-15.06c-.47,0-.68.25-.63.64Zm15.69,4.21h-15.69v14.38h15.69Zm4.38-4.21h15.48v-14.33c0-.44-.2-.64-.62-.64H2101Zm15.48,4.21H2101v14.38h15.48Z" transform="translate(-2016.49 -4514.79)"/><path class="cls-1" d="M2034.27,4559.59v17.23h-4.9v-16.71a55.74,55.74,0,0,1-8.7,10.57l-4.17-2.51a53.64,53.64,0,0,0,11.32-13.51l-11.1,0v-4.5h12.65v-3.62h-11.61V4542h16.63a63.87,63.87,0,0,0,3.59-10.66l4.54,1.46a66.19,66.19,0,0,1-3,9.19h6.17v4.5h-11.43v3.62h11.43v4.5l-10.41-.05c3.2,2.69,6.05,5.61,9.08,8.63l-3.45,3.34Zm-5.31-34-1.12-4.09H2033l1.12,4.09h11.35v4.73h-27v-4.73Zm-3.53,16.21a47.35,47.35,0,0,0-4.21-8.89l4.23-2a48.09,48.09,0,0,1,4.39,9.06Zm35.08.86h-7.86v8.53c-.12,6.78-1,13.91-9.37,23.79l-4.17-3.39c6.47-7.3,8.53-12.5,8.65-20.39v-25.54c-.06-1.11.36-1.58,1.27-1.64a115.2,115.2,0,0,0,20.32-2.1l1.81,4.73a155.71,155.71,0,0,1-17.71,2c-.67,0-.85.35-.79.82v8.42h19.69v4.73h-6.94v34.18h-4.89Z" transform="translate(-2016.49 -4514.79)"/><circle class="cls-1" cx="115.11" cy="22.48" r="6.87"/><ellipse class="cls-1" cx="115.03" cy="6.86" rx="6.87" ry="6.86"/><circle class="cls-1" cx="99.33" cy="22.48" r="6.87"/><ellipse class="cls-1" cx="99.25" cy="6.86" rx="6.87" ry="6.86"/></svg>