<!-- Generator: Adobe Illustrator 20.1.0, SVG Export Plug-In  -->
<svg version="1.1"
	 xmlns="http://www.w3.org/2000/svg" xmlns:xlink="http://www.w3.org/1999/xlink" xmlns:a="http://ns.adobe.com/AdobeSVGViewerExtensions/3.0/"
	 x="0px" y="0px" width="69.59px" height="63.888px" viewBox="0 0 69.59 63.888" style="enable-background:new 0 0 69.59 63.888;"
	 xml:space="preserve">
<style type="text/css">
	.st0{fill:#89C3CA;}
	.st1{fill:none;stroke:#89C3CA;stroke-width:1.25;stroke-miterlimit:10;}
</style>
<defs>
</defs>
<g>
	<path class="st0" d="M60.205,33.168c0.515,0,0.984,0.279,1.347,0.498c0.445,0.438,0.73,0.973,0.73,1.605
		c0,1.147-0.93,2.09-2.077,2.09c-1.146,0-2.076-0.95-2.076-2.097c0-0.633,0.284-1.16,0.729-1.598
		C59.22,33.446,59.69,33.168,60.205,33.168z"/>
	<path class="st0" d="M53.355,33.168c0.515,0,0.984,0.279,1.347,0.498c0.445,0.438,0.729,0.973,0.729,1.605
		c0,1.147-0.93,2.09-2.076,2.09c-1.147,0-2.077-0.95-2.077-2.097c0-0.633,0.284-1.16,0.73-1.598
		C52.37,33.446,52.84,33.168,53.355,33.168z"/>
	<circle class="st0" cx="46.504" cy="35.297" r="2.077"/>
	<polyline class="st1" points="30.893,36.613 30.893,52.295 55.709,52.295 55.709,62.297 64.998,52.295 68.965,52.295 
		68.965,16.262 38.992,16.262 	"/>
	<path class="st0" d="M30.296,16.651c0.515,0,0.984,0.279,1.347,0.498c0.445,0.438,0.73,0.973,0.73,1.605
		c0,1.147-0.93,2.09-2.077,2.09c-1.146,0-2.076-0.95-2.076-2.097c0-0.633,0.284-1.16,0.729-1.598
		C29.312,16.93,29.781,16.651,30.296,16.651z"/>
	<path class="st0" d="M23.446,16.651c0.515,0,0.984,0.279,1.347,0.498c0.445,0.438,0.729,0.973,0.729,1.605
		c0,1.147-0.93,2.09-2.076,2.09c-1.147,0-2.077-0.95-2.077-2.097c0-0.633,0.284-1.16,0.73-1.598
		C22.461,16.93,22.931,16.651,23.446,16.651z"/>
	<circle class="st0" cx="16.595" cy="18.781" r="2.077"/>
	<circle class="st0" cx="9.745" cy="18.781" r="2.077"/>
	<g>
		<path class="st0" d="M39.654,33.221c-0.347,0-0.669,0.093-0.956,0.243v2.854h-0.842c0.357,0.628,1.024,1.056,1.798,1.056
			c1.147,0,2.076-0.93,2.076-2.077C41.73,34.15,40.801,33.221,39.654,33.221z"/>
	</g>
	<path class="st1" d="M0.625,36.318h3.937l9.321,10.194V36.318h5.778h19.036V16.262V0.625H0.625V36.318z"/>
</g>
</svg>