<!-- Generator: Adobe Illustrator 20.1.0, SVG Export Plug-In  -->
<svg version="1.1"
	 xmlns="http://www.w3.org/2000/svg" xmlns:xlink="http://www.w3.org/1999/xlink" xmlns:a="http://ns.adobe.com/AdobeSVGViewerExtensions/3.0/"
	 x="0px" y="0px" width="195.417px" height="234.923px" viewBox="0 0 195.417 234.923"
	 style="enable-background:new 0 0 195.417 234.923;" xml:space="preserve">
<style type="text/css">
	.st0{fill:#FFFFFF;}
	.st1{fill:#E4F4F5;}
	.st2{clip-path:url(#SVGID_2_);}
	.st3{fill:#1A2B2D;}
	.st4{fill:#67C5CC;}
	.st5{fill:none;stroke:#1A2B2D;stroke-width:2.7634;stroke-miterlimit:10;}
	.st6{fill:#C3E5E8;}
	.st7{fill:#F99891;}
	.st8{fill:#1D1D1B;}
	.st9{fill:none;stroke:#009FC8;stroke-width:1.3817;stroke-miterlimit:10;}
	.st10{clip-path:url(#SVGID_4_);}
</style>
<defs>
</defs>
<g>
	<path class="st0" d="M97.708,211.388c-49.741,0-90.208-40.467-90.208-90.209s40.467-90.208,90.208-90.208
		s90.208,40.467,90.208,90.208S147.45,211.388,97.708,211.388z"/>
	<path class="st1" d="M97.709,38.471c45.679,0,82.709,37.03,82.709,82.709s-37.03,82.709-82.709,82.709S15,166.858,15,121.179
		S52.03,38.471,97.709,38.471 M97.709,23.471C43.832,23.471,0,67.302,0,121.179s43.832,97.709,97.709,97.709
		s97.709-43.832,97.709-97.709S151.585,23.471,97.709,23.471L97.709,23.471z"/>
</g>
<g>
	<defs>
		<path id="SVGID_1_" d="M180.417,121.179c0,41.106-31.807,82.989-82.709,82.989S15,161.55,15,121.179C15,64.8,46.807,0,97.709,0
			S180.417,64.8,180.417,121.179z"/>
	</defs>
	<clipPath id="SVGID_2_">
		<use xlink:href="#SVGID_1_"  style="overflow:visible;"/>
	</clipPath>
	<g id="XMLID_3_" class="st2">
		<rect id="XMLID_39_" x="92.36" y="136.598" class="st3" width="10.698" height="14.27"/>
		<rect id="XMLID_38_" x="55.322" y="150.868" class="st4" width="84.773" height="84.054"/>
		<g id="XMLID_31_">
			<g id="XMLID_35_">
				<path id="XMLID_37_" class="st5" d="M50.36,159.86c0,0-13.62,2.912-23.835,20.183"/>
				<rect id="XMLID_36_" x="48.278" y="150.868" class="st6" width="7.044" height="17.984"/>
			</g>
			<g id="XMLID_32_">
				<path id="XMLID_34_" class="st5" d="M145.057,159.86c0,0,15.156,3.24,25.484,23.158"/>
				
					<rect id="XMLID_33_" x="140.095" y="150.868" transform="matrix(-1 -1.224647e-16 1.224647e-16 -1 287.2339 319.7206)" class="st6" width="7.044" height="17.984"/>
			</g>
		</g>
		<g id="XMLID_6_">
			<g id="XMLID_28_">
				<line id="XMLID_30_" class="st5" x1="76.887" y1="65.979" x2="59.297" y2="31.957"/>
				<ellipse id="XMLID_29_" class="st7" cx="59.297" cy="31.957" rx="3.857" ry="4.851"/>
			</g>
			<g id="XMLID_25_">
				<line id="XMLID_27_" class="st5" x1="119.497" y1="65.979" x2="137.087" y2="31.957"/>
				<ellipse id="XMLID_26_" class="st7" cx="137.087" cy="31.957" rx="3.857" ry="4.851"/>
			</g>
			<rect id="XMLID_24_" x="45.209" y="63.654" class="st4" width="104.999" height="72.944"/>
			<g id="XMLID_21_">
				<rect id="XMLID_23_" x="33.289" y="84.372" class="st6" width="11.921" height="31.51"/>
				<rect id="XMLID_22_" x="150.208" y="84.372" class="st6" width="11.921" height="31.51"/>
			</g>
			<path id="XMLID_20_" class="st6" d="M119.146,55.922v7.733H76.271v-7.733c0-11.84,9.598-21.438,21.438-21.438h0
				C109.548,34.484,119.146,44.082,119.146,55.922z"/>
			<ellipse id="XMLID_19_" class="st8" cx="72.945" cy="84.372" rx="4.132" ry="5.198"/>
			<ellipse id="XMLID_18_" class="st8" cx="125.472" cy="84.372" rx="4.132" ry="5.198"/>
			<rect id="XMLID_17_" x="68.812" y="103.529" class="st0" width="60.792" height="15.942"/>
			<g id="XMLID_9_">
				<g id="XMLID_10_">
					<line id="XMLID_16_" class="st9" x1="77.077" y1="103.529" x2="77.077" y2="119.471"/>
					<line class="st9" x1="85.93" y1="103.529" x2="85.93" y2="119.471"/>
					<line class="st9" x1="94.782" y1="103.529" x2="94.782" y2="119.471"/>
					<line class="st9" x1="103.635" y1="103.529" x2="103.635" y2="119.471"/>
					<line class="st9" x1="112.487" y1="103.529" x2="112.487" y2="119.471"/>
					<line id="XMLID_15_" class="st9" x1="121.34" y1="103.529" x2="121.34" y2="119.471"/>
				</g>
			</g>
		</g>
		<ellipse id="XMLID_5_" class="st7" cx="97.709" cy="192.895" rx="25.88" ry="24.868"/>
		<ellipse id="XMLID_4_" class="st0" cx="97.709" cy="192.895" rx="18.672" ry="17.942"/>
		<path class="st5" d="M172,186.03"/>
	</g>
</g>
</svg>