<!-- Generator: Adobe Illustrator 20.1.0, SVG Export Plug-In  -->
<svg version="1.1"
	 xmlns="http://www.w3.org/2000/svg" xmlns:xlink="http://www.w3.org/1999/xlink" xmlns:a="http://ns.adobe.com/AdobeSVGViewerExtensions/3.0/"
	 x="0px" y="0px" width="158.381px" height="135.252px" viewBox="0 0 158.381 135.252"
	 style="enable-background:new 0 0 158.381 135.252;" xml:space="preserve">
<style type="text/css">
	.st0{fill:#FFFFFF;}
	.st1{fill:#67C5CC;}
</style>
<defs>
</defs>
<g>
	<g>
		<ellipse class="st0" cx="81.415" cy="67.626" rx="76.966" ry="67.626"/>
		<path class="st0" d="M53.794,22.297c0,0-22.804-21.493-53.794-12.737c0,0,32.627,0.803,32.069,28.668"/>
	</g>
	<g>
		<path class="st1" d="M48.242,29.445h4.862v-2.079c0-0.173,0.146-0.26,0.439-0.26c1.761,0,2.642,0.136,2.642,0.408
			c0,0.297-0.087,0.47-0.26,0.52c-0.198,0.025-0.297,0.26-0.297,0.706v0.705h4.75c0.198,0,0.297,0.161,0.297,0.482v0.854
			c0,0.421-0.099,0.631-0.297,0.631h-4.75v1.485h6.235c0.198,0,0.297,0.148,0.297,0.445v0.854c0,0.421-0.099,0.631-0.297,0.631
			h-6.235v1.484h4.75c0.198,0,0.297,0.136,0.297,0.408v0.928c0,0.396-0.099,0.594-0.297,0.594h-4.75v1.633
			c1.979-0.223,3.86-0.458,5.641-0.705c0.099-0.024,0.186-0.037,0.26-0.037c0.124,0,0.186,0.099,0.186,0.297v1.484
			c-4.789,0.57-9.639,1.114-14.548,1.633c-0.347,0.47-0.631,0.705-0.854,0.705c-0.173,0-0.533-0.779-1.077-2.338
			c2.128-0.148,4.688-0.396,7.683-0.742c0.074,0,0.136-0.012,0.186-0.037v-1.893h-5.604c-0.223,0-0.334-0.198-0.334-0.594v-0.928
			c0-0.272,0.111-0.408,0.334-0.408h5.604v-1.484h-6.495c-0.198,0-0.297-0.21-0.297-0.631v-0.854c0-0.297,0.099-0.445,0.297-0.445
			h6.495v-1.485h-4.862c-0.198,0-0.297-0.21-0.297-0.631v-0.854C47.945,29.606,48.043,29.445,48.242,29.445z M62.846,39.576
			c1.982,0.792,2.974,1.238,2.974,1.336c0,0.1-0.136,0.199-0.409,0.297c-0.347,0.025-0.62,0.162-0.818,0.409
			c-0.347,0.569-0.719,1.113-1.115,1.633h9.962c0.372,0,0.558,0.148,0.558,0.445v7.868c0,0.322-0.186,0.482-0.557,0.482h-9.649v1.93
			H75.78c0.42,0,0.631,0.136,0.631,0.408v4.045c0,0.94-0.124,1.509-0.371,1.707c-0.718,0.717-2.227,1.076-4.528,1.076
			c-0.891,0-1.361-0.198-1.411-0.594c-0.05-0.544-0.173-1.126-0.371-1.744c0-0.199,0.099-0.297,0.297-0.297h2.042
			c1.088,0,1.633-0.359,1.633-1.077v-1.484h-9.909v5.381c0,0.297-0.21,0.445-0.631,0.445h-1.448c-0.421,0-0.631-0.148-0.631-0.445
			v-5.381H51.025v4.454c0,0.297-0.21,0.445-0.631,0.445h-1.485c-0.396,0-0.594-0.148-0.594-0.445v-6.086
			c0-0.272,0.198-0.408,0.594-0.408h12.173v-1.93h-9.536c-0.373,0-0.559-0.161-0.559-0.482v-7.868c0-0.297,0.186-0.445,0.558-0.445
			h8.81c0.421-0.396,0.718-0.742,0.893-1.039c0.52-0.643,0.966-1.448,1.338-2.413C62.635,39.651,62.722,39.576,62.846,39.576z
			 M53.512,46.665h17.963v-1.633H53.512V46.665z M71.475,50.265v-1.819H53.512v1.819H71.475z M63.755,30.632h9.353v-0.854
			c0-0.742-0.025-1.299-0.074-1.67c-0.05-0.297-0.074-0.544-0.074-0.742c0-0.099,0.188-0.148,0.563-0.148l2.926,0.408
			c0.247,0.124,0.371,0.235,0.371,0.334c0,0.223-0.136,0.334-0.408,0.334c-0.52,0.199-0.779,0.743-0.779,1.633v0.705h3.897
			c0.197,0,0.297,0.148,0.297,0.445v1.188c0,0.297-0.1,0.445-0.297,0.445h-3.897v7.163c0,1.683-1.238,2.524-3.711,2.524h-2.413
			c-0.173,0-0.26-0.21-0.26-0.631c-0.074-0.445-0.272-0.989-0.594-1.633c0-0.173,0.086-0.26,0.26-0.26
			c0.989,0.173,1.893,0.26,2.709,0.26c0.989,0,1.484-0.396,1.484-1.188V32.71h-9.353c-0.198,0-0.297-0.148-0.297-0.445v-1.188
			C63.458,30.781,63.557,30.632,63.755,30.632z M65.425,34.047c1.113,0.619,2.029,1.175,2.747,1.67
			c0.816,0.644,1.534,1.225,2.152,1.745c0,0.05-0.062,0.148-0.186,0.297c-0.668,0.916-1.015,1.373-1.039,1.373
			c-0.916-0.841-1.893-1.596-2.932-2.264c-0.841-0.544-1.546-0.94-2.115-1.188c0-0.124,0.358-0.594,1.076-1.41
			C65.227,34.121,65.326,34.047,65.425,34.047z"/>
		<path class="st1" d="M92.555,27.366c2.004,1.015,3.006,1.609,3.006,1.782c0,0.223-0.087,0.334-0.26,0.334
			c-0.421,0.05-0.693,0.198-0.816,0.445c-1.039,1.855-2.078,3.452-3.118,4.788v13.583c0,0.322-0.186,0.482-0.557,0.482h-1.484
			c-0.396,0-0.594-0.161-0.594-0.482V37.461c-0.941,0.866-2.24,1.967-3.897,3.303c-0.248,0-0.482-0.124-0.705-0.371
			c-0.347-0.272-0.718-0.557-1.114-0.854c-0.148-0.124-0.223-0.26-0.223-0.408c1.138-0.915,2.276-1.868,3.415-2.858
			c1.509-1.336,2.821-2.795,3.934-4.379c0.989-1.435,1.756-2.845,2.301-4.231C92.468,27.465,92.505,27.366,92.555,27.366z
			 M87.953,51.119l2.301,0.965c0.371,0.148,0.557,0.322,0.557,0.52c0,0.272-0.148,0.458-0.445,0.557
			c-0.371,0-0.606,0.21-0.705,0.631c-0.99,2.895-1.967,5.146-2.932,6.755c-0.248,0.346-0.421,0.52-0.52,0.52
			c-0.198,0-0.433-0.087-0.705-0.26c-0.544-0.248-1.052-0.482-1.521-0.705c-0.223-0.099-0.334-0.161-0.334-0.186
			c0-0.099,0.049-0.235,0.148-0.408c0.989-1.386,1.731-2.611,2.227-3.674c0.717-1.36,1.249-2.734,1.596-4.12
			C87.718,51.317,87.829,51.119,87.953,51.119z M100.163,27.366l2.227,0.965c0.396,0.149,0.594,0.322,0.594,0.52
			c0,0.297-0.21,0.52-0.631,0.668c-0.52,0-0.841,0.235-0.965,0.705c-0.272,0.569-0.52,1.113-0.742,1.633h14.957
			c0.371,0,0.594,0.037,0.668,0.111c0.52,0.396,0.779,0.705,0.779,0.928l-2.449,5.047c-0.05,0.099-0.111,0.148-0.186,0.148
			c-1.411-0.42-2.116-0.779-2.116-1.076l1.522-2.969h-6.272v12.062c0,1.88-1.521,2.82-4.565,2.82h-1.188
			c-0.173,0-0.26-0.247-0.26-0.742c-0.05-0.544-0.272-1.2-0.668-1.967v-0.111c0.692,0.173,1.336,0.26,1.93,0.26
			c1.41,0,2.116-0.445,2.116-1.336V34.047h-5.382c-0.816,1.608-1.633,2.945-2.449,4.008c-0.347,0.396-0.619,0.594-0.817,0.594
			c-0.173,0-0.371-0.074-0.594-0.223c-0.52-0.223-1.015-0.433-1.484-0.631c-0.173-0.074-0.26-0.124-0.26-0.148
			c0-0.124,0.074-0.284,0.223-0.482c1.41-1.608,2.462-3.031,3.155-4.268c1.039-1.608,1.806-3.204,2.301-4.788
			C99.78,27.614,99.965,27.366,100.163,27.366z M94.337,50.08l2.561,0.334c0.272,0.05,0.408,0.148,0.408,0.297
			c0,0.223-0.074,0.359-0.223,0.408c-0.223,0.05-0.334,0.198-0.334,0.445v5.381c0,1.088,0.692,1.633,2.078,1.633h5.938
			c1.806,0,2.895-0.174,3.266-0.52c0.42-0.272,0.965-1.287,1.633-3.043c0.321,0.495,0.841,0.953,1.559,1.373
			c0.321,0.148,0.482,0.334,0.482,0.557c-0.891,2.093-1.559,3.253-2.004,3.479c-0.496,0.452-1.498,0.678-3.006,0.678h-8.165
			c-2.969,0-4.454-0.891-4.454-2.672v-7.868C94.077,50.241,94.163,50.08,94.337,50.08z M99.533,38.241l2.301,0.928
			c0.346,0.148,0.52,0.334,0.52,0.557c0,0.198-0.161,0.347-0.482,0.445c-0.445,0-0.73,0.173-0.854,0.52
			c-1.213,2.45-2.425,4.342-3.637,5.679c-0.272,0.297-0.482,0.445-0.631,0.445c-0.199,0-0.421-0.074-0.668-0.223
			c-0.495-0.247-0.978-0.458-1.447-0.631c-0.198-0.074-0.297-0.124-0.297-0.148c0-0.099,0.062-0.21,0.186-0.334
			c1.188-1.212,2.079-2.276,2.672-3.192c0.866-1.188,1.497-2.375,1.893-3.563C99.211,38.402,99.359,38.241,99.533,38.241z
			 M101.5,50.711c0.223,0,0.371,0.05,0.445,0.148c1.509,1.188,2.895,2.462,4.157,3.823c0,0.371-0.087,0.582-0.26,0.631
			c-0.891,0.569-1.609,0.854-2.153,0.854c-1.336-1.707-2.611-3.13-3.823-4.268C99.867,51.601,100.41,51.206,101.5,50.711z
			 M111.298,38.352c0.223,0,0.358,0.05,0.408,0.148c1.93,2.128,3.662,4.404,5.196,6.829c0,0.372-0.074,0.582-0.223,0.631
			c-0.916,0.569-1.621,0.854-2.115,0.854c-1.732-2.895-3.365-5.307-4.899-7.237C109.665,39.304,110.209,38.896,111.298,38.352z
			 M112.3,50.711c0.247,0,0.408,0.05,0.482,0.148c1.782,2.029,3.415,4.194,4.899,6.495c0,0.371-0.087,0.569-0.26,0.594
			c-0.891,0.618-1.608,0.928-2.152,0.928c-1.583-2.821-3.118-5.146-4.602-6.978C110.667,51.601,111.211,51.206,112.3,50.711z"/>
		<path class="st1" d="M59.456,71.138c-0.342,0.494-0.532,0.875-1.064,1.938c-2.623,5.436-6.614,10.149-11.973,14.102
			c-0.456-0.646-0.76-0.988-1.559-1.635c4.485-2.889,7.944-6.576,10.567-11.175c0.988-1.749,1.444-2.851,1.634-4.067L59.456,71.138z
			 M56.149,85.848c-1.559,0-2.889,0.076-4.105,0.228v-2.243c1.216,0.152,2.471,0.228,4.105,0.228h12.163
			c1.71,0,2.927-0.076,3.953-0.19c-0.114,0.532-0.114,1.064-0.114,2.585c0,6.917-0.798,13.797-1.749,15.432
			c-0.608,0.988-1.444,1.368-3.193,1.368c-1.444,0-2.927-0.076-5.359-0.342c-0.114-0.836-0.19-1.254-0.494-2.243
			c2.091,0.418,4.143,0.646,5.512,0.646c1.14,0,1.596-0.228,1.824-0.95c0.836-2.433,1.331-7.64,1.369-14.52h-9.274
			c-0.38,4.295-1.216,7.108-2.965,10.035c-1.977,3.23-5.131,6.005-9.579,8.286c-0.418-0.722-0.76-1.141-1.406-1.71
			c4.903-2.357,7.83-4.903,9.73-8.514c1.292-2.395,1.862-4.599,2.128-8.096H56.149z M67.552,70.416
			c0.304,1.026,0.646,1.787,1.368,3.155c2.775,4.979,6.043,8.438,11.441,12.049c-0.646,0.57-1.064,1.064-1.52,1.824
			c-5.854-4.333-9.389-8.476-12.582-14.596c-0.342-0.722-0.608-1.178-0.874-1.558L67.552,70.416z"/>
		<path class="st1" d="M90.087,73.305c0-1.369-0.076-2.167-0.229-3.079h2.395c-0.19,1.026-0.228,1.749-0.228,3.117v4.562h2.927
			c1.216,0,1.71-0.038,2.546-0.19v2.053c-0.836-0.152-1.444-0.19-2.546-0.19h-2.737c0.684,1.634,0.912,2.128,1.596,3.23
			c1.103,1.825,1.9,2.813,3.383,4.219c-0.494,0.494-0.798,0.95-1.254,1.71c-1.938-2.356-2.889-3.991-4.067-6.842
			c0.076,2.547,0.152,4.827,0.152,7.374v11.707c0,1.596,0.038,2.433,0.228,3.421h-2.395c0.19-0.875,0.266-1.825,0.266-3.383V89.535
			c0-2.395,0.038-4.523,0.152-7.298c-1.635,5.967-3.117,9.198-5.815,12.695c-0.494-0.722-0.836-1.026-1.482-1.521
			c2.889-3.269,5.017-7.716,6.728-13.835h-3.269c-1.064,0-1.482,0.038-2.281,0.19v-2.053c0.798,0.152,1.292,0.19,2.509,0.19h3.421
			V73.305z M113.12,82.466c1.862,0,3.117-0.076,4.371-0.228v2.28c-1.331-0.152-2.584-0.228-4.371-0.228h-2.015v15.888
			c0,1.559,0.076,2.965,0.266,4.219h-2.509c0.152-1.331,0.266-2.737,0.266-4.219V84.29h-7.906
			c-0.304,10.225-1.559,15.09-5.131,19.879c-0.532-0.608-0.912-0.95-1.672-1.444c1.672-2.015,2.508-3.497,3.23-5.815
			c1.179-3.801,1.749-9.161,1.749-17.371c0-2.584-0.076-4.105-0.266-5.359c0.532,0.038,0.57,0.038,0.646,0.038
			c4.219,0,11.479-1.9,14.748-3.839l1.596,1.786c-0.494,0.152-0.494,0.152-4.485,1.597c-2.623,0.912-6.158,1.672-10.339,2.205v3.193
			c0,1.406-0.038,2.128-0.038,3.307H113.12z"/>
	</g>
</g>
</svg>