<!-- Generator: Adobe Illustrator 20.1.0, SVG Export Plug-In  -->
<svg version="1.1"
	 xmlns="http://www.w3.org/2000/svg" xmlns:xlink="http://www.w3.org/1999/xlink" xmlns:a="http://ns.adobe.com/AdobeSVGViewerExtensions/3.0/"
	 x="0px" y="0px" width="10.094px" height="21.946px" viewBox="0 0 10.094 21.946"
	 style="enable-background:new 0 0 10.094 21.946;" xml:space="preserve">
<style type="text/css">
	.st0{fill:#ADADAD;}
</style>
<defs>
</defs>
<path class="st0" d="M2.338,7.158c-0.802,0.072-1.55-0.012-2.28,0.054c-0.09,0.504-0.069,3.306,0.032,3.637
	c0.36,0,0.734-0.007,1.107,0.002c0.368,0.009,0.742-0.045,1.141,0.051c0,0.949,0,1.866,0,2.782c0,0.904,0,1.808,0,2.712
	c0,0.918-0.005,1.836,0.001,2.754c0.006,0.913-0.028,1.828,0.02,2.731c0.438,0.096,3.951,0.084,4.311-0.021c0-0.149,0-0.313,0-0.476
	c0-3.324,0-6.649,0.001-9.973c0-0.175,0.02-0.35,0.034-0.572c0.19,0,0.34,0,0.489,0c0.723,0,1.447,0.002,2.17-0.001
	c0.146-0.001,0.292-0.019,0.44-0.03c0.042-0.562,0.073-1.074,0.119-1.584c0.04-0.442,0.105-0.881,0.141-1.323
	c0.019-0.228,0.079-0.466-0.061-0.713c-0.359,0-0.719,0-1.08,0c-0.376,0-0.751,0.009-1.127-0.003
	C7.441,7.175,7.079,7.239,6.694,7.132c-0.008-0.186-0.027-0.363-0.022-0.54C6.69,5.899,6.709,5.205,6.74,4.513
	C6.759,4.107,7,3.881,7.386,3.806C7.548,3.774,7.715,3.754,7.88,3.752c0.584-0.006,1.168-0.001,1.753-0.004
	c0.135-0.001,0.27-0.016,0.393-0.024c0.099-0.431,0.087-3.366-0.015-3.704C9.885,0.014,9.748,0.003,9.612,0.003
	C8.708,0.002,7.804,0.009,6.9,0C6.227-0.006,5.568,0.082,4.927,0.273c-0.96,0.287-1.711,0.834-2.16,1.764
	C2.469,2.654,2.359,3.306,2.343,3.974c-0.021,0.89-0.005,1.78-0.005,2.67C2.338,6.796,2.338,6.948,2.338,7.158z"/>
</svg>