<svg id="圖層_1" data-name="圖層 1" xmlns="http://www.w3.org/2000/svg" viewBox="0 0 74.95 57.42"><defs><style>.cls-1,.cls-2{fill:#666565;}.cls-2{stroke:#666565;stroke-miterlimit:10;stroke-width:2.4px;}.cls-3{fill:#0086cd;}.cls-4{fill:#f39600;}.cls-5{fill:#d70051;}.cls-6{fill:#2cac38;}</style></defs><path class="cls-1" d="M2490.49,198a46.7,46.7,0,0,0,.87-8.59l1.1.08a42.78,42.78,0,0,1-.89,8.64Zm3.1-9.51h1.14v9.08c0,.41,0,.79.71.79h2.76c1,0,1-.72,1-1.62,0-.39,0-.92,0-1.6l1.13.19c0,.52,0,1,0,1.39,0,1.62-.1,2-.36,2.31s-.55.51-1.36.51H2495c-1,0-1.4-.72-1.36-1.78Zm3.54,6.9a42.5,42.5,0,0,0-1.35-7.82l1.08-.24a38.61,38.61,0,0,1,1.36,7.89Zm4.16,2.52a42.66,42.66,0,0,0-1.84-8.68l1.06-.24a39.89,39.89,0,0,1,1.87,8.73Z" transform="translate(-2489.87 -142.38)"/><path class="cls-1" d="M2505.3,197.17v-4.06h-1.36v-1h1.36v-3.31h-1.41v-1h3.82v1h-1.37v3.31h1.27v1h-1.27v3.69a11.11,11.11,0,0,0,1.35-.59l.44,1a27.82,27.82,0,0,1-4,1.49l-.42-1.06Zm5.81,1.14v-1.58h-2.91v-1h2.91v-1.33h-2.82c-.09,0-.14-.05-.14-.16v-6.32a.13.13,0,0,1,.14-.15H2515a.13.13,0,0,1,.14.15v6.32c0,.11-.05.16-.14.16h-2.86v1.33h3v1h-3v1.58h3.53v1h-8.08v-1Zm0-7.74v-1.8h-1.88s-.05,0,0,0v1.75Zm0,2.77V191.6h-1.92v1.69l0,.05Zm1-4.57v1.8h2v-1.75l-.05,0Zm0,2.83v1.74h1.91l.05-.05V191.6Z" transform="translate(-2489.87 -142.38)"/><path class="cls-1" d="M2519,193.54a13.25,13.25,0,0,0-2.26-1.55l.58-1a13,13,0,0,1,2.32,1.58Zm-2.05,5.39a14,14,0,0,0,1.91-4.56l1.06.24a15.26,15.26,0,0,1-1.92,4.85Zm2.62-8.69a13.62,13.62,0,0,0-2.27-1.51l.55-1a12.72,12.72,0,0,1,2.34,1.53Zm7.58,1.63-7,.81-.32-1.15,1.17-.12a29,29,0,0,0,1.6-4l1,.39a28.81,28.81,0,0,1-1.34,3.53l4.32-.47c-.38-.69-.79-1.39-1.22-2l.93-.55a47.66,47.66,0,0,1,2.4,4.33l-1,.47ZM2521.7,199v.61h-1.08v-5.67c0-.11,0-.19.17-.19h6.75a.21.21,0,0,1,.23.24v5.62h-1.09V199Zm0-1.14h5v-2.81c0-.1-.05-.16-.17-.16h-4.66c-.11,0-.15.06-.15.16Z" transform="translate(-2489.87 -142.38)"/><path class="cls-1" d="M2537.36,189.23a3,3,0,0,1-.09.6h3.94v.94h-1l.46.68a10.12,10.12,0,0,1-1,.77,6.1,6.1,0,0,0,1.95.43l-.38,1-.8-.16v3.37a.12.12,0,0,1-.14.14h-2.8v1.55a1.21,1.21,0,0,1-1.36,1.27,5.63,5.63,0,0,1-1.35-.18v-1.14a4.91,4.91,0,0,0,1.21.21c.31,0,.46-.07.46-.44V197h-2.86c-.07,0-.11,0-.11-.14v-3.2l-.52.2-.49-.94a11.17,11.17,0,0,0,1.51-.58l-1-.59.48-.86a7.42,7.42,0,0,1,1.44.9,4.65,4.65,0,0,0,1-1H2533v-.94h3.28l.09-.61Zm-4.84-.21c-.07,0-.11,0-.11.12v4.38a10.56,10.56,0,0,1-1.79,6.15l-.9-.47a9.79,9.79,0,0,0,1.37-2.88l.25-1.5-.93.83-.74-.78a15.59,15.59,0,0,0,1.76-1.65V188.3c0-.18.08-.28.26-.28h4.25l-.16-.62h1.09l.16.62h4.49v1Zm-1.88,3.37a29.7,29.7,0,0,0-.88-3l.93-.29a22.38,22.38,0,0,1,.91,3.12Zm4.19,5.78a8.54,8.54,0,0,1-2.5,1.4l-.34-1a11.16,11.16,0,0,0,2.19-1.31Zm-.32-3.79h5v-.76l0,0h-4.89s-.05,0,0,0Zm5,.92h-5V196l0,.05h4.89l0-.05Zm-.87-2.65a10,10,0,0,1-1.74-1.73,5.24,5.24,0,0,1-1.49,1.73Zm-.75-1.89a9.3,9.3,0,0,0,.91.87,14.44,14.44,0,0,0,1.26-.87Zm2.94,8.81a15,15,0,0,0-2.25-1.22l.46-1a12.28,12.28,0,0,1,2.32,1.23Z" transform="translate(-2489.87 -142.38)"/><path class="cls-1" d="M2544.59,195a20.26,20.26,0,0,1-.92,4.44l-1-.58a18,18,0,0,0,1-5.81V188.3c0-.27.06-.39.24-.4a23.1,23.1,0,0,0,4.2-.48l.39,1.14a31.65,31.65,0,0,1-3.63.44c-.14,0-.18.08-.17.18v1.11H2548c.23,0,.35.12.35.36v4a.31.31,0,0,1-.35.36Zm2.63-3.46c0-.07,0-.1-.11-.1h-2.43v1.62l0,.8h2.45c.08,0,.11,0,.11-.12Zm4.72.63h-1.72V194c0,1.61-.32,3.3-2.74,5.65l-.83-.92c1.55-1.42,2.44-2.64,2.48-4.73v-5.7c0-.25.08-.38.28-.4a30.43,30.43,0,0,0,4.68-.43l.38,1.15a33.55,33.55,0,0,1-4.09.41.15.15,0,0,0-.17.18V191h4.31v1.14H2553v7.54h-1.09Z" transform="translate(-2489.87 -142.38)"/><path class="cls-1" d="M2529.47,179v1.34h-2.86V154.1c0-.61.32-.92,1-.92h25.6c.67,0,1,.31,1,.92v26.23h-2.86V179Zm0-14h9.64v-9.2h-9.25c-.29,0-.42.15-.39.4Zm9.64,2.59h-9.64v8.84h9.64Zm2.69-2.59h9.51v-8.8c0-.27-.13-.4-.38-.4h-9.13Zm9.51,2.59h-9.51v8.84h9.51Z" transform="translate(-2489.87 -142.38)"/><path class="cls-2" d="M2529.47,179v1.34h-2.86V154.1c0-.61.32-.92,1-.92h25.6c.67,0,1,.31,1,.92v26.23h-2.86V179Zm0-14h9.64v-9.2h-9.25c-.29,0-.42.15-.39.4Zm9.64,2.59h-9.64v8.84h9.64Zm2.69-2.59h9.51v-8.8c0-.27-.13-.4-.38-.4h-9.13Zm9.51,2.59h-9.51v8.84h9.51Z" transform="translate(-2489.87 -142.38)"/><path class="cls-1" d="M2500.8,169.91V180.5h-3V170.23a34.25,34.25,0,0,1-5.35,6.5l-2.57-1.54a33,33,0,0,0,7-8.3l-6.82,0v-2.77h7.77v-2.23h-7.13V159.1h10.22a39.24,39.24,0,0,0,2.21-6.55l2.79.9a40.67,40.67,0,0,1-1.84,5.65h3.79v2.76h-7v2.23h7v2.77l-6.39,0c2,1.66,3.72,3.44,5.58,5.31l-2.12,2.05Zm-3.26-20.9-.69-2.52H2500l.69,2.52h7v2.91H2491.1V149Zm-2.17,10a29.09,29.09,0,0,0-2.59-5.46l2.6-1.22a29.55,29.55,0,0,1,2.7,5.57Zm21.56.53h-4.83v5.24c-.08,4.16-.63,8.55-5.76,14.62l-2.57-2.09c4-4.49,5.24-7.68,5.31-12.53V149c0-.68.22-1,.78-1a70.78,70.78,0,0,0,12.49-1.29l1.11,2.91a95.67,95.67,0,0,1-10.88,1.25c-.41,0-.52.22-.48.51v5.17h12.1v2.91h-4.26v21h-3Z" transform="translate(-2489.87 -142.38)"/><circle class="cls-3" cx="70.73" cy="13.81" r="4.22"/><circle class="cls-4" cx="70.68" cy="4.22" r="4.22"/><circle class="cls-5" cx="61.03" cy="13.81" r="4.22"/><circle class="cls-6" cx="60.98" cy="4.22" r="4.22"/></svg>