<!-- Generator: Adobe Illustrator 20.1.0, SVG Export Plug-In  -->
<svg version="1.1"
	 xmlns="http://www.w3.org/2000/svg" xmlns:xlink="http://www.w3.org/1999/xlink" xmlns:a="http://ns.adobe.com/AdobeSVGViewerExtensions/3.0/"
	 x="0px" y="0px" width="74.801px" height="69.722px" viewBox="0 0 74.801 69.722"
	 style="enable-background:new 0 0 74.801 69.722;" xml:space="preserve">
<style type="text/css">
	.st0{fill:#67C5CC;}
</style>
<defs>
</defs>
<g id="Comments_-_Orange_copy">
	<g>
		<path class="st0" d="M19.075,0c10.537,0,19.075,6.89,19.075,15.391c0,3.393-1.363,6.526-3.667,9.069l3.544,8.814l-15.021-3.022
			c-1.571,0.044-3.329,0.423-5.089,0.469c-0.199,0.007-0.401,0.009-0.596,0.009C7.107,30.73,0,23.728,0,15.391
			C0,6.89,8.541,0,19.075,0 M19.075,4.173c-8.218,0-14.903,5.034-14.903,11.219c0,6.364,5.654,11.166,13.149,11.166
			c0.16,0,0.322-0.002,0.484-0.007c0.706-0.018,1.477-0.114,2.295-0.217c0.901-0.112,1.83-0.226,2.79-0.25l0.473-0.015l0.465,0.094
			l7.442,1.497l-0.657-1.641l-0.975-2.424l1.753-1.935c1.179-1.302,2.586-3.45,2.586-6.268C33.978,9.207,27.294,4.173,19.075,4.173
			L19.075,4.173z"/>
	</g>
</g>
<g id="User_-_Orange_copy">
	<g>
		<path class="st0" d="M53.148,26.748c6.633,0,12.006,5.376,12.006,12.008c0,6.628-5.373,12.003-12.006,12.003
			c-6.63,0-12.001-5.376-12.001-12.003C41.147,32.124,46.517,26.748,53.148,26.748"/>
		<path class="st0" d="M62.955,49.709c-2.605,2.334-6.041,3.756-9.807,3.756c-3.763,0-7.2-1.422-9.802-3.756
			C36.355,53.424,31.554,60.983,31.5,69.722h43.3C74.747,60.983,69.946,53.423,62.955,49.709z"/>
	</g>
</g>
</svg>