<!-- Generator: Adobe Illustrator 20.1.0, SVG Export Plug-In  -->
<svg version="1.1"
	 xmlns="http://www.w3.org/2000/svg" xmlns:xlink="http://www.w3.org/1999/xlink" xmlns:a="http://ns.adobe.com/AdobeSVGViewerExtensions/3.0/"
	 x="0px" y="0px" width="53.483px" height="60.237px" viewBox="0 0 53.483 60.237"
	 style="enable-background:new 0 0 53.483 60.237;" xml:space="preserve">
<style type="text/css">
	.st0{fill:none;stroke:#89C3CA;stroke-width:1.25;stroke-miterlimit:10;}
</style>
<defs>
</defs>
<g>
	<path class="st0" d="M16.914,19.137c-8.997,0-16.289,3.036-16.289,6.783v16.846c0,3.004,4.69,5.55,11.184,6.442v10.404h41.049
		V19.137H16.914L16.914,19.137z M11.809,44.064c-3.216-0.521-5.424-1.448-6.297-2.126V26.747c0.873-0.677,3.081-1.604,6.297-2.126
		V44.064z"/>
	<path class="st0" d="M30.309,10.539c-0.12-0.358-0.26-0.725-0.418-1.09c-0.199-0.357-0.419-0.717-0.659-1.067
		c-0.066-0.102-0.105-0.144-0.148-0.199L28.953,8.02c-0.085-0.11-0.176-0.217-0.267-0.322l-0.136-0.16l-0.035-0.04l-0.008-0.011
		L28.395,7.37l-0.012-0.013l-0.049-0.055l-0.2-0.213c-0.252-0.281-0.467-0.546-0.65-0.797c-0.183-0.253-0.34-0.491-0.477-0.753
		c-0.137-0.263-0.255-0.554-0.341-0.883C26.581,4.33,26.521,3.968,26.5,3.605c-0.052-0.729-0.006-1.462,0.039-2.001
		c0.028-0.266,0.038-0.5,0.062-0.651c0.018-0.16,0.028-0.245,0.028-0.245s-0.09,0.01-0.247,0.052
		c-0.15,0.048-0.388,0.108-0.656,0.235c-0.542,0.245-1.281,0.694-1.957,1.533c-0.331,0.42-0.656,0.938-0.88,1.566
		c-0.228,0.625-0.363,1.363-0.335,2.141c0.024,0.778,0.213,1.586,0.538,2.315c0.322,0.731,0.766,1.388,1.262,1.944l0.384,0.394
		l0.222,0.22c0.1,0.099,0.197,0.198,0.3,0.294l0.151,0.144c0.05,0.047,0.11,0.102,0.118,0.118c0.082,0.1,0.178,0.188,0.292,0.272
		c0.092,0.113,0.193,0.227,0.314,0.337c0.066,0.104,0.171,0.207,0.258,0.312c0.032,0.05,0.066,0.102,0.109,0.154l0.064,0.082
		c0.018,0.028,0.029,0.055,0.044,0.083c0.03,0.057,0.062,0.114,0.101,0.176c0.044,0.062,0.044,0.126,0.079,0.193
		c0.024,0.065,0.061,0.137,0.077,0.209c0.014,0.072,0.023,0.144,0.043,0.223c0.067,0.309,0.062,0.641,0.048,0.965
		c-0.018,0.167-0.035,0.322-0.05,0.467c-0.027,0.153-0.05,0.295-0.073,0.421c-0.056,0.257-0.098,0.486-0.142,0.633
		c-0.042,0.154-0.064,0.237-0.064,0.237s0.089,0.006,0.251-0.013c0.157-0.023,0.402-0.052,0.69-0.146
		c0.149-0.043,0.298-0.11,0.473-0.184c0.17-0.076,0.339-0.182,0.532-0.294c0.179-0.127,0.369-0.269,0.559-0.443
		c0.179-0.184,0.381-0.375,0.546-0.625c0.087-0.121,0.167-0.253,0.251-0.388c0.08-0.138,0.142-0.29,0.213-0.445
		c0.151-0.311,0.233-0.658,0.301-1.028c0.017-0.092,0.04-0.186,0.047-0.281c0.005-0.094,0.009-0.188,0.013-0.283
		c0.008-0.191,0.008-0.389,0.003-0.589c-0.004-0.2-0.047-0.383-0.079-0.579C30.395,10.934,30.356,10.735,30.309,10.539z"/>
	<path class="st0" d="M36.549,0.952c0.018-0.16,0.028-0.245,0.028-0.245s-0.09,0.01-0.246,0.052
		c-0.151,0.047-0.389,0.108-0.657,0.234c-0.542,0.246-1.28,0.695-1.957,1.534c-0.332,0.42-0.655,0.938-0.88,1.565
		c-0.228,0.626-0.362,1.363-0.335,2.142c0.023,0.777,0.212,1.585,0.538,2.315c0.323,0.731,0.766,1.387,1.261,1.943l0.385,0.394
		l0.222,0.22c0.099,0.1,0.196,0.199,0.299,0.294l0.151,0.144c0.05,0.048,0.111,0.103,0.119,0.118
		c0.081,0.101,0.177,0.188,0.292,0.273c0.092,0.113,0.193,0.227,0.313,0.336c0.067,0.104,0.17,0.208,0.258,0.313
		c0.031,0.05,0.066,0.102,0.109,0.154l0.064,0.082c0.018,0.027,0.028,0.055,0.044,0.082c0.03,0.057,0.061,0.114,0.101,0.177
		c0.044,0.062,0.044,0.125,0.079,0.192c0.024,0.066,0.061,0.138,0.078,0.21c0.014,0.071,0.022,0.144,0.043,0.223
		c0.066,0.309,0.061,0.641,0.048,0.965c-0.019,0.166-0.036,0.322-0.051,0.466c-0.027,0.153-0.051,0.295-0.072,0.422
		c-0.057,0.256-0.099,0.486-0.143,0.632c-0.042,0.155-0.065,0.238-0.065,0.238s0.089,0.006,0.251-0.013
		c0.157-0.023,0.402-0.052,0.69-0.146c0.148-0.043,0.299-0.11,0.472-0.184c0.171-0.076,0.339-0.182,0.532-0.294
		c0.179-0.127,0.37-0.269,0.559-0.443c0.179-0.184,0.381-0.375,0.544-0.625c0.089-0.121,0.168-0.253,0.253-0.388
		c0.08-0.138,0.141-0.29,0.213-0.445c0.151-0.311,0.232-0.658,0.301-1.028c0.017-0.092,0.04-0.186,0.048-0.281
		c0.005-0.094,0.009-0.188,0.012-0.283c0.008-0.191,0.008-0.389,0.002-0.589c-0.003-0.2-0.045-0.383-0.077-0.579
		c-0.035-0.194-0.072-0.394-0.12-0.589c-0.12-0.359-0.26-0.725-0.419-1.091c-0.198-0.356-0.419-0.716-0.658-1.066
		c-0.067-0.102-0.104-0.144-0.148-0.2l-0.131-0.163c-0.085-0.109-0.176-0.216-0.267-0.322L38.5,7.536l-0.034-0.04l-0.008-0.01
		L38.346,7.37l-0.013-0.014l-0.049-0.054L38.084,7.09c-0.251-0.282-0.467-0.546-0.65-0.797c-0.183-0.254-0.339-0.491-0.477-0.754
		c-0.137-0.262-0.255-0.554-0.341-0.882C36.531,4.33,36.47,3.968,36.45,3.605c-0.052-0.729-0.006-1.462,0.039-2.001
		C36.516,1.337,36.526,1.103,36.549,0.952z"/>
</g>
</svg>