<!-- Generator: Adobe Illustrator 20.1.0, SVG Export Plug-In  -->
<svg version="1.1"
	 xmlns="http://www.w3.org/2000/svg" xmlns:xlink="http://www.w3.org/1999/xlink" xmlns:a="http://ns.adobe.com/AdobeSVGViewerExtensions/3.0/"
	 x="0px" y="0px" width="522.864px" height="145.672px" viewBox="0 0 522.864 145.672"
	 style="enable-background:new 0 0 522.864 145.672;" xml:space="preserve">
<style type="text/css">
	.st0{fill:#C5E7EC;}
	.st1{fill:#67C4CB;}
</style>
<defs>
</defs>
<g>
	<circle class="st0" cx="417.875" cy="88.703" r="41.556"/>
	<path class="st1" d="M449.499,16.438c5.073,0.4,9.275-3.802,8.874-8.875c-0.315-3.99-3.548-7.223-7.538-7.537
		c-5.072-0.4-9.273,3.801-8.873,8.873C442.276,12.89,445.509,16.123,449.499,16.438z M418.604,80.377
		c-5.073-0.4-9.274,3.802-8.874,8.874c0.315,3.99,3.548,7.223,7.538,7.537c5.072,0.4,9.273-3.801,8.874-8.873
		C425.827,83.925,422.594,80.692,418.604,80.377z M515.299,0.026c-5.072-0.4-9.273,3.801-8.873,8.873
		c0.314,3.99,3.547,7.223,7.537,7.539c5.073,0.401,9.275-3.802,8.875-8.874C522.522,3.573,519.289,0.341,515.299,0.026z
		 M509.206,52.734c0,14.87-12.169,26.951-27.071,26.806c-14.757-0.143-26.542-12.389-26.542-27.147v-18.14
		c0-0.525-0.426-0.951-0.951-0.951h-8.948c-0.525,0-0.951,0.426-0.951,0.951v18.481c0,18.922,14.03,34.623,32.232,37.262v17.629
		c0,14.826-12.13,27.278-26.956,27.197c-12.982-0.071-23.803-9.419-26.171-21.737c11.27-2.722,19.625-13.004,19.308-25.17
		c-0.34-13.065-10.78-23.819-23.83-24.523c-14.539-0.784-26.619,10.82-26.619,25.192c0,12.184,8.681,22.377,20.182,24.721
		c2.6,18.413,18.56,32.591,37.73,32.365c20.683-0.244,37.205-17.354,37.205-38.039V89.995c18.202-2.638,32.232-18.339,32.232-37.262
		V34.253c0-0.525-0.426-0.951-0.951-0.951h-8.948c-0.525,0-0.951,0.426-0.951,0.951V52.734z M419.247,102.903
		c-8.958,0.798-16.43-6.677-15.631-15.634c0.613-6.866,6.142-12.395,13.009-13.007c8.958-0.798,16.43,6.677,15.631,15.634
		C431.643,96.763,426.113,102.292,419.247,102.903z"/>
</g>
<g>
	<path class="st1" d="M104.737,74.119c-2.186,16.475-5.128,30.599-8.911,42.368l-7.903-4.876c3.867-12.104,6.643-25.136,8.239-39.09
		L104.737,74.119z M118.861,69.243v44.638c0,2.02,0.925,2.944,2.942,2.944h15.132c1.009,0,1.849-0.589,2.353-1.85
		c0.589-1.176,1.01-7.06,1.177-17.487l7.903,2.272c-0.673,12.274-1.767,19.419-3.279,21.603c-1.344,2.187-3.699,3.363-7.229,3.363
		h-19c-2.522,0-4.54-0.756-6.053-2.184c-1.513-1.513-2.186-3.533-2.186-6.055V69.243H118.861z M140.465,70.504l-8.154,5.632
		c-3.699-6.055-8.743-12.948-15.132-20.683l6.893-4.287C131.051,58.735,136.514,65.124,140.465,70.504z M164.173,109.594
		l-8.238,3.615c-3.28-14.124-6.895-26.734-10.846-37.747l7.902-2.604C157.279,84.376,160.978,96.649,164.173,109.594z"/>
	<path class="st1" d="M195.083,74.119c-2.186,16.475-5.128,30.599-8.91,42.368l-7.903-4.876c3.867-12.104,6.643-25.136,8.239-39.09
		L195.083,74.119z M209.206,69.243v44.638c0,2.02,0.925,2.944,2.942,2.944h15.132c1.009,0,1.849-0.589,2.353-1.85
		c0.589-1.176,1.01-7.06,1.177-17.487l7.903,2.272c-0.673,12.274-1.767,19.419-3.279,21.603c-1.344,2.187-3.699,3.363-7.229,3.363
		h-19c-2.522,0-4.54-0.756-6.053-2.184c-1.513-1.513-2.186-3.533-2.186-6.055V69.243H209.206z M230.811,70.504l-8.154,5.632
		c-3.699-6.055-8.743-12.948-15.132-20.683l6.893-4.287C221.396,58.735,226.86,65.124,230.811,70.504z M254.518,109.594
		l-8.238,3.615c-3.279-14.124-6.895-26.734-10.846-37.747l7.903-2.604C247.625,84.376,251.324,96.649,254.518,109.594z"/>
	<path class="st1" d="M296.656,53.783l0.007,7.568l-10.846,0.011l0.016,16.727l8.912-0.009l0.007,7.568l-8.912,0.009l0.018,18.663
		c3.697-1.349,7.144-2.699,10.504-4.215l0.008,8.239c-7.982,3.708-17.058,7.08-27.227,10.198l-2.277-8.234
		c4.034-1.015,7.816-2.195,11.429-3.374l-0.021-21.269l-9.163,0.009l-0.007-7.568l9.163-0.009l-0.016-16.727l-9.836,0.01
		l-0.007-7.568L296.656,53.783z M341.041,51.47l0.04,40.688l-17.737,0.017l0.008,8.239l17.99-0.018l0.007,6.893l-17.99,0.018
		l0.009,9.5l21.605-0.021l0.007,6.893l-53.13,0.052l-0.007-6.893l23.622-0.023l-0.009-9.5l-16.393,0.016l-0.007-6.893l16.393-0.016
		l-0.008-8.239L298.375,92.2l-0.04-40.688L341.041,51.47z M315.416,68.226l-0.01-10.174l-9.498,0.009l0.01,10.174L315.416,68.226z
		 M315.422,74.782l-9.498,0.009l0.011,10.846l9.498-0.009L315.422,74.782z M323.319,68.218l10.171-0.01l-0.01-10.174l-10.171,0.01
		L323.319,68.218z M333.497,74.764l-10.171,0.01l0.011,10.846l10.171-0.01L333.497,74.764z"/>
	<g>
		<path class="st1" d="M33.122,81.485H7.566v46.321H0V53.238h33.122V81.485z M25.641,64.42v-4.961H7.566v4.961H25.641z
			 M25.641,75.263v-5.632H7.566v5.632H25.641z M57.754,85.437v6.219h-9.5v8.828h11.853v6.304H48.254v17.654h-7.23v-17.654h-9.667
			c-0.336,3.53-1.261,6.474-2.69,8.828c-1.85,3.193-5.38,6.304-10.592,9.5l-6.222-5.213c4.707-2.184,7.987-4.457,9.921-6.978
			c1.261-1.428,2.017-3.445,2.353-6.137H11.853v-6.304h12.442v-8.828h-9.836v-6.219H57.754z M41.024,91.656h-9.498v8.828h9.498
			V91.656z M72.549,53.238v65.32c0,2.774-0.84,4.876-2.353,6.307c-1.429,1.261-3.699,1.932-6.81,1.932h-7.902l-1.598-7.565
			l8.154,0.334c1.934,0,2.942-1.091,2.942-3.278V81.485H39.092V53.238h3.614H72.549z M64.983,64.42v-4.961H46.321v4.961H64.983z
			 M64.983,69.631H46.321v5.632h18.663V69.631z"/>
	</g>
</g>
</svg>