<!-- Generator: Adobe Illustrator 20.1.0, SVG Export Plug-In  -->
<svg version="1.1"
	 xmlns="http://www.w3.org/2000/svg" xmlns:xlink="http://www.w3.org/1999/xlink" xmlns:a="http://ns.adobe.com/AdobeSVGViewerExtensions/3.0/"
	 x="0px" y="0px" width="121.972px" height="93.455px" viewBox="0 0 121.972 93.455"
	 style="enable-background:new 0 0 121.972 93.455;" xml:space="preserve">
<style type="text/css">
	.st0{opacity:0.2;}
</style>
<defs>
</defs>
<g class="st0">
	<path d="M1.005,90.563c1.024-5.819,1.483-10.444,1.417-13.972l1.798,0.131c0.085,3.926-0.417,8.629-1.444,14.059L1.005,90.563z
		 M6.057,75.081h1.859v14.783c-0.019,0.675,0.022,1.286,1.15,1.286h4.487c1.548,0,1.568-1.174,1.568-2.635
		c0-0.636-0.019-1.504-0.041-2.596l1.839,0.306c0.022,0.849,0.041,1.611,0.041,2.266c0,2.635-0.17,3.203-0.587,3.766
		c-0.587,0.699-0.895,0.835-2.213,0.835H8.268c-1.563,0-2.274-1.179-2.211-2.902V75.081z M11.823,86.311
		c-0.524-5.382-1.257-9.614-2.194-12.725l1.754-0.393c1.043,3.46,1.796,7.736,2.213,12.837L11.823,86.311z M18.588,90.408
		c-0.609-6.037-1.922-10.623-3.002-14.123l1.73-0.398c1.211,3.878,2.548,8.507,3.045,14.215L18.588,90.408z"/>
	<path d="M25.115,89.17v-6.605h-2.213v-1.679h2.213v-5.387H22.82v-1.674h6.222v1.674h-2.237v5.387h2.07v1.679h-2.07v6.013
		c0.961-0.374,1.694-0.675,2.196-0.961l0.711,1.704c-0.944,0.519-4.763,1.961-6.578,2.417l-0.689-1.718L25.115,89.17z
		 M34.574,91.019v-2.572h-4.739v-1.674h4.739v-2.16h-4.596c-0.143,0-0.228-0.087-0.228-0.262V74.067c0-0.16,0.085-0.243,0.228-0.243
		h10.944c0.146,0,0.228,0.083,0.228,0.243v10.284c0,0.175-0.083,0.262-0.228,0.262h-4.659v2.16h4.933v1.674h-4.933v2.572h5.746
		v1.679H28.852v-1.679H34.574z M34.574,78.42v-2.922h-3.067c-0.066,0-0.085,0.029-0.066,0.068v2.854H34.574z M34.574,82.934V80.1
		h-3.133v2.747l0.066,0.087H34.574z M36.263,75.499v2.922h3.198v-2.854l-0.083-0.068H36.263z M36.263,80.1v2.834h3.116l0.083-0.087
		V80.1H36.263z"/>
	<path d="M47.432,83.259c-1.441-1.169-2.672-2.024-3.674-2.524l0.939-1.592c1.126,0.563,2.402,1.437,3.781,2.567L47.432,83.259z
		 M44.091,92.038c1.347-1.97,2.475-4.674,3.111-7.425l1.733,0.388c-0.842,3.509-2.038,6.319-3.133,7.886L44.091,92.038z
		 M48.352,77.901c-1.57-1.223-2.863-2.067-3.696-2.456l0.895-1.611c0.978,0.427,2.315,1.339,3.805,2.495L48.352,77.901z
		 M60.693,80.556l-11.422,1.31l-0.524-1.873l1.902-0.199c0.997-2.004,1.854-4.227,2.608-6.581l1.648,0.636
		c-0.437,1.519-1.165,3.436-2.189,5.751l7.035-0.767c-0.626-1.131-1.293-2.266-1.983-3.29l1.521-0.893
		c1.922,3.203,3.244,5.557,3.907,7.042l-1.57,0.762L60.693,80.556z M51.793,92.15v0.985h-1.754v-9.221
		c-0.015-0.175,0.046-0.306,0.272-0.306h10.985c0.252,0,0.376,0.131,0.376,0.388v9.139H59.9V92.15H51.793z M51.793,90.296H59.9
		v-4.576c0-0.17-0.083-0.262-0.277-0.262h-7.58c-0.184,0-0.25,0.092-0.25,0.262V90.296z"/>
	<path d="M77.291,76.241c-0.005,0.199-0.027,0.485-0.138,0.98h6.418v1.529h-1.587l0.755,1.106c-0.459,0.418-1.005,0.811-1.628,1.247
		c0.417,0.17,1.186,0.5,3.169,0.694l-0.624,1.621l-1.296-0.267v5.489c0,0.155-0.08,0.223-0.226,0.223h-4.552v2.528
		c0,0.252,0,2.063-2.211,2.063c-0.592,0-1.322-0.082-2.198-0.301v-1.854c0.859,0.238,1.524,0.345,1.963,0.345
		c0.505,0,0.747-0.107,0.747-0.713v-2.067h-4.656c-0.119,0-0.184-0.068-0.184-0.223v-5.207l-0.852,0.33l-0.799-1.529
		c0.9-0.282,1.733-0.587,2.465-0.942l-1.631-0.956l0.776-1.393c0.706,0.325,1.497,0.805,2.337,1.461
		c0.692-0.563,1.235-1.136,1.57-1.655h-4.72v-1.529h5.338l0.15-1L77.291,76.241z M69.412,75.892c-0.121,0-0.187,0.068-0.187,0.199
		v7.124c0,3.863-0.985,7.212-2.919,10.007L64.84,92.46c1.104-1.679,1.861-3.227,2.235-4.688l0.403-2.441l-1.509,1.349l-1.211-1.262
		c1.007-0.805,1.961-1.703,2.858-2.684v-7.998c0-0.301,0.129-0.456,0.422-0.456h6.911l-0.267-1.014h1.776l0.267,1.014h7.306v1.611
		H69.412z M66.359,81.381c-0.247-1.213-0.747-2.859-1.439-4.955l1.519-0.466c0.599,1.626,1.106,3.329,1.475,5.081L66.359,81.381z
		 M73.173,90.796c-2.681,1.932-4.062,2.271-4.062,2.271l-0.558-1.645c0,0,2.23-1,3.557-2.126L73.173,90.796z M72.651,84.632h8.08
		v-1.238l-0.065-0.049h-7.954c-0.061,0-0.083,0-0.061,0.049V84.632z M80.732,86.137h-8.08v1.131l0.061,0.087h7.954l0.065-0.087
		V86.137z M79.315,81.822c-0.903-0.679-1.861-1.616-2.824-2.815c-0.519,1.024-1.337,1.966-2.424,2.815H79.315z M78.101,78.75
		c0.332,0.369,0.837,0.874,1.485,1.417c0.832-0.524,1.524-1.004,2.043-1.417H78.101z M82.879,93.087
		c-1.269-0.801-2.584-1.548-3.669-1.98l0.752-1.592c1.233,0.461,2.584,1.218,3.771,1.999L82.879,93.087z"/>
	<path d="M89.06,85.637c-0.228,2.456-0.738,4.902-1.504,7.231l-1.65-0.937c1.024-2.897,1.567-6.061,1.609-9.454v-7.741
		c-0.041-0.432,0.104-0.631,0.395-0.655c2.259-0.034,4.533-0.32,6.831-0.781l0.64,1.854c-1.791,0.325-3.776,0.587-5.904,0.723
		c-0.235,0-0.289,0.126-0.272,0.301v1.81h5.343c0.374,0,0.563,0.194,0.563,0.587v6.474c0,0.388-0.189,0.587-0.563,0.587H89.06z
		 M93.342,80.007c0-0.107-0.063-0.165-0.187-0.165h-3.95v2.635l-0.044,1.305h3.994c0.124,0,0.187-0.068,0.187-0.199V80.007z
		 M101.03,81.036h-2.803v2.897c-0.046,2.616-0.524,5.363-4.453,9.202l-1.354-1.505c2.526-2.31,3.97-4.295,4.028-7.697v-9.284
		c-0.019-0.412,0.124-0.626,0.461-0.645c2.866-0.053,5.409-0.316,7.622-0.704l0.626,1.873c-2.002,0.325-4.239,0.568-6.661,0.66
		c-0.189,0-0.294,0.102-0.269,0.301v3.053h7.013v1.849h-2.429v12.269h-1.781V81.036z"/>
	<g>
		<path d="M64.445,59.56v2.184h-4.651V19.062c0-0.991,0.521-1.495,1.571-1.495h41.665c1.095,0,1.618,0.504,1.618,1.495v42.682
			h-4.653V59.56H64.445z M64.445,36.757H80.13V21.783H65.075c-0.473,0-0.678,0.246-0.63,0.644V36.757z M80.13,40.968H64.445v14.38
			H80.13V40.968z M84.515,36.757h15.481v-14.33c0-0.442-0.204-0.644-0.624-0.644H84.515V36.757z M99.996,40.968H84.521v14.38h15.475
			V40.968z"/>
		<path d="M64.445,59.56v2.184h-4.651V19.062c0-0.991,0.521-1.495,1.571-1.495h41.665c1.095,0,1.618,0.504,1.618,1.495v42.682
			h-4.653V59.56H64.445z M64.445,36.757H80.13V21.783H65.075c-0.473,0-0.678,0.246-0.63,0.644V36.757z M80.13,40.968H64.445v14.38
			H80.13V40.968z M84.515,36.757h15.481v-14.33c0-0.442-0.204-0.644-0.624-0.644H84.515V36.757z M99.996,40.968H84.521v14.38h15.475
			V40.968z"/>
	</g>
	<path d="M17.777,44.798v17.231h-4.903v-16.71c-2.839,4.317-5.801,7.946-8.699,10.572L0,53.383
		c4.592-3.914,8.229-8.366,11.317-13.512L0.221,39.826v-4.502h12.653v-3.623H1.268v-4.497H17.9
		c1.691-3.746,2.842-7.649,3.589-10.656l4.536,1.462c-0.748,2.828-1.714,6.272-2.987,9.195h6.171v4.497H17.777v3.623h11.432v4.502
		l-10.407-0.05c3.203,2.694,6.051,5.605,9.077,8.635l-3.447,3.337L17.777,44.798z M12.471,10.785l-1.123-4.093h5.146l1.117,4.093
		h11.354v4.732H1.994v-4.732H12.471z M8.946,26.991c-1.571-4.116-2.719-6.507-4.211-8.887l4.231-1.988
		c1.677,2.61,2.822,5.068,4.393,9.06L8.946,26.991z M44.028,27.848h-7.859v8.529c-0.123,6.776-1.03,13.91-9.374,23.788l-4.175-3.393
		c6.471-7.302,8.529-12.499,8.649-20.395V10.841c-0.059-1.109,0.364-1.579,1.266-1.635c7.26-0.112,14.098-0.879,20.324-2.1
		l1.806,4.732c-5.978,0.991-11.908,1.753-17.709,2.038c-0.669,0-0.854,0.353-0.787,0.823v8.417h19.695v4.732h-6.941v34.181h-4.894
		V27.848z"/>
	<g>
		<g>
			<circle cx="115.106" cy="22.478" r="6.866"/>
			<ellipse cx="115.032" cy="6.861" rx="6.867" ry="6.863"/>
		</g>
		<circle cx="99.326" cy="22.478" r="6.866"/>
		<ellipse cx="99.25" cy="6.861" rx="6.867" ry="6.863"/>
	</g>
</g>
</svg>