<!-- Generator: Adobe Illustrator 20.1.0, SVG Export Plug-In  -->
<svg version="1.1"
	 xmlns="http://www.w3.org/2000/svg" xmlns:xlink="http://www.w3.org/1999/xlink" xmlns:a="http://ns.adobe.com/AdobeSVGViewerExtensions/3.0/"
	 x="0px" y="0px" width="158.381px" height="135.252px" viewBox="0 0 158.381 135.252"
	 style="enable-background:new 0 0 158.381 135.252;" xml:space="preserve">
<style type="text/css">
	.st0{fill:#FFFFFF;}
	.st1{fill:#C2B6AD;}
</style>
<defs>
</defs>
<g>
	<ellipse class="st0" cx="76.966" cy="67.626" rx="76.966" ry="67.626"/>
	<path class="st0" d="M104.587,22.297c0,0,22.804-21.493,53.794-12.737c0,0-32.627,0.803-32.069,28.668"/>
</g>
<g>
	<path class="st1" d="M41.524,29.445h4.862v-2.079c0-0.173,0.146-0.26,0.439-0.26c1.761,0,2.642,0.136,2.642,0.408
		c0,0.297-0.087,0.47-0.26,0.52c-0.198,0.025-0.297,0.26-0.297,0.706v0.705h4.75c0.198,0,0.297,0.161,0.297,0.482v0.854
		c0,0.421-0.099,0.631-0.297,0.631h-4.75v1.485h6.235c0.198,0,0.297,0.148,0.297,0.445v0.854c0,0.421-0.099,0.631-0.297,0.631H48.91
		v1.484h4.75c0.198,0,0.297,0.136,0.297,0.408v0.928c0,0.396-0.099,0.594-0.297,0.594h-4.75v1.633
		c1.979-0.223,3.86-0.458,5.641-0.705c0.099-0.024,0.186-0.037,0.26-0.037c0.124,0,0.186,0.099,0.186,0.297v1.484
		c-4.789,0.57-9.639,1.114-14.548,1.633c-0.347,0.47-0.631,0.705-0.854,0.705c-0.173,0-0.533-0.779-1.077-2.338
		c2.128-0.148,4.688-0.396,7.683-0.742c0.074,0,0.136-0.012,0.186-0.037v-1.893h-5.604c-0.223,0-0.334-0.198-0.334-0.594v-0.928
		c0-0.272,0.111-0.408,0.334-0.408h5.604v-1.484h-6.495c-0.198,0-0.297-0.21-0.297-0.631v-0.854c0-0.297,0.099-0.445,0.297-0.445
		h6.495v-1.485h-4.862c-0.198,0-0.297-0.21-0.297-0.631v-0.854C41.227,29.606,41.326,29.445,41.524,29.445z M56.129,39.576
		c1.982,0.792,2.974,1.238,2.974,1.336c0,0.1-0.136,0.199-0.409,0.297c-0.347,0.025-0.62,0.162-0.818,0.409
		c-0.347,0.569-0.719,1.113-1.115,1.633h9.962c0.372,0,0.558,0.148,0.558,0.445v7.868c0,0.322-0.186,0.482-0.557,0.482h-9.649v1.93
		h11.988c0.42,0,0.631,0.136,0.631,0.408v4.045c0,0.94-0.124,1.509-0.371,1.707c-0.718,0.717-2.227,1.076-4.528,1.076
		c-0.891,0-1.361-0.198-1.411-0.594c-0.05-0.544-0.173-1.126-0.371-1.744c0-0.199,0.099-0.297,0.297-0.297h2.042
		c1.088,0,1.633-0.359,1.633-1.077v-1.484h-9.909v5.381c0,0.297-0.21,0.445-0.631,0.445h-1.448c-0.421,0-0.631-0.148-0.631-0.445
		v-5.381H44.308v4.454c0,0.297-0.21,0.445-0.631,0.445h-1.485c-0.396,0-0.594-0.148-0.594-0.445v-6.086
		c0-0.272,0.198-0.408,0.594-0.408h12.173v-1.93H44.83c-0.373,0-0.559-0.161-0.559-0.482v-7.868c0-0.297,0.186-0.445,0.558-0.445
		h8.81c0.421-0.396,0.718-0.742,0.893-1.039c0.52-0.643,0.966-1.448,1.338-2.413C55.917,39.651,56.005,39.576,56.129,39.576z
		 M46.794,46.665h17.963v-1.633H46.794V46.665z M64.757,50.265v-1.819H46.794v1.819H64.757z M57.038,30.632h9.353v-0.854
		c0-0.742-0.025-1.299-0.074-1.67c-0.05-0.297-0.074-0.544-0.074-0.742c0-0.099,0.188-0.148,0.563-0.148l2.926,0.408
		c0.247,0.124,0.371,0.235,0.371,0.334c0,0.223-0.136,0.334-0.408,0.334c-0.52,0.199-0.779,0.743-0.779,1.633v0.705h3.897
		c0.197,0,0.297,0.148,0.297,0.445v1.188c0,0.297-0.1,0.445-0.297,0.445h-3.897v7.163c0,1.683-1.238,2.524-3.711,2.524H62.79
		c-0.173,0-0.26-0.21-0.26-0.631c-0.074-0.445-0.272-0.989-0.594-1.633c0-0.173,0.086-0.26,0.26-0.26
		c0.989,0.173,1.893,0.26,2.709,0.26c0.989,0,1.484-0.396,1.484-1.188V32.71h-9.353c-0.198,0-0.297-0.148-0.297-0.445v-1.188
		C56.741,30.781,56.839,30.632,57.038,30.632z M58.707,34.047c1.113,0.619,2.029,1.175,2.747,1.67
		c0.816,0.644,1.534,1.225,2.152,1.745c0,0.05-0.062,0.148-0.186,0.297c-0.668,0.916-1.015,1.373-1.039,1.373
		c-0.916-0.841-1.893-1.596-2.932-2.264c-0.841-0.544-1.546-0.94-2.115-1.188c0-0.124,0.358-0.594,1.076-1.41
		C58.509,34.121,58.608,34.047,58.707,34.047z"/>
	<path class="st1" d="M85.838,27.366c2.004,1.015,3.006,1.609,3.006,1.782c0,0.223-0.087,0.334-0.26,0.334
		c-0.421,0.05-0.693,0.198-0.816,0.445c-1.039,1.855-2.078,3.452-3.118,4.788v13.583c0,0.322-0.186,0.482-0.557,0.482h-1.484
		c-0.396,0-0.594-0.161-0.594-0.482V37.461c-0.941,0.866-2.24,1.967-3.897,3.303c-0.248,0-0.482-0.124-0.705-0.371
		c-0.347-0.272-0.718-0.557-1.114-0.854c-0.148-0.124-0.223-0.26-0.223-0.408c1.138-0.915,2.276-1.868,3.415-2.858
		c1.509-1.336,2.821-2.795,3.934-4.379c0.989-1.435,1.756-2.845,2.301-4.231C85.75,27.465,85.788,27.366,85.838,27.366z
		 M81.236,51.119l2.301,0.965c0.371,0.148,0.557,0.322,0.557,0.52c0,0.272-0.148,0.458-0.445,0.557c-0.371,0-0.606,0.21-0.705,0.631
		c-0.99,2.895-1.967,5.146-2.932,6.755c-0.248,0.346-0.421,0.52-0.52,0.52c-0.198,0-0.433-0.087-0.705-0.26
		c-0.544-0.248-1.052-0.482-1.521-0.705c-0.223-0.099-0.334-0.161-0.334-0.186c0-0.099,0.049-0.235,0.148-0.408
		c0.989-1.386,1.731-2.611,2.227-3.674c0.717-1.36,1.249-2.734,1.596-4.12C81,51.317,81.111,51.119,81.236,51.119z M93.446,27.366
		l2.227,0.965c0.396,0.149,0.594,0.322,0.594,0.52c0,0.297-0.21,0.52-0.631,0.668c-0.52,0-0.841,0.235-0.965,0.705
		c-0.272,0.569-0.52,1.113-0.742,1.633h14.957c0.371,0,0.594,0.037,0.668,0.111c0.52,0.396,0.779,0.705,0.779,0.928l-2.449,5.047
		c-0.05,0.099-0.111,0.148-0.186,0.148c-1.411-0.42-2.116-0.779-2.116-1.076l1.522-2.969h-6.272v12.062
		c0,1.88-1.521,2.82-4.565,2.82h-1.188c-0.173,0-0.26-0.247-0.26-0.742c-0.05-0.544-0.272-1.2-0.668-1.967v-0.111
		c0.692,0.173,1.336,0.26,1.93,0.26c1.41,0,2.116-0.445,2.116-1.336V34.047h-5.382c-0.816,1.608-1.633,2.945-2.449,4.008
		c-0.347,0.396-0.619,0.594-0.817,0.594c-0.173,0-0.371-0.074-0.594-0.223c-0.52-0.223-1.015-0.433-1.484-0.631
		c-0.173-0.074-0.26-0.124-0.26-0.148c0-0.124,0.074-0.284,0.223-0.482c1.41-1.608,2.462-3.031,3.155-4.268
		c1.039-1.608,1.806-3.204,2.301-4.788C93.062,27.614,93.247,27.366,93.446,27.366z M87.619,50.08l2.561,0.334
		c0.272,0.05,0.408,0.148,0.408,0.297c0,0.223-0.074,0.359-0.223,0.408c-0.223,0.05-0.334,0.198-0.334,0.445v5.381
		c0,1.088,0.692,1.633,2.078,1.633h5.938c1.806,0,2.895-0.174,3.266-0.52c0.42-0.272,0.965-1.287,1.633-3.043
		c0.321,0.495,0.841,0.953,1.559,1.373c0.321,0.148,0.482,0.334,0.482,0.557c-0.891,2.093-1.559,3.253-2.004,3.479
		c-0.496,0.452-1.498,0.678-3.006,0.678h-8.165c-2.969,0-4.454-0.891-4.454-2.672v-7.868C87.359,50.241,87.446,50.08,87.619,50.08z
		 M92.815,38.241l2.301,0.928c0.346,0.148,0.52,0.334,0.52,0.557c0,0.198-0.161,0.347-0.482,0.445c-0.445,0-0.73,0.173-0.854,0.52
		c-1.213,2.45-2.425,4.342-3.637,5.679c-0.272,0.297-0.482,0.445-0.631,0.445c-0.199,0-0.421-0.074-0.668-0.223
		c-0.495-0.247-0.978-0.458-1.447-0.631c-0.198-0.074-0.297-0.124-0.297-0.148c0-0.099,0.062-0.21,0.186-0.334
		c1.188-1.212,2.079-2.276,2.672-3.192c0.866-1.188,1.497-2.375,1.893-3.563C92.493,38.402,92.642,38.241,92.815,38.241z
		 M94.782,50.711c0.223,0,0.371,0.05,0.445,0.148c1.509,1.188,2.895,2.462,4.157,3.823c0,0.371-0.087,0.582-0.26,0.631
		c-0.891,0.569-1.609,0.854-2.153,0.854c-1.336-1.707-2.611-3.13-3.823-4.268C93.149,51.601,93.693,51.206,94.782,50.711z
		 M104.58,38.352c0.223,0,0.358,0.05,0.408,0.148c1.93,2.128,3.662,4.404,5.196,6.829c0,0.372-0.074,0.582-0.223,0.631
		c-0.916,0.569-1.621,0.854-2.115,0.854c-1.732-2.895-3.365-5.307-4.899-7.237C102.947,39.304,103.491,38.896,104.58,38.352z
		 M105.582,50.711c0.247,0,0.408,0.05,0.482,0.148c1.782,2.029,3.415,4.194,4.899,6.495c0,0.371-0.087,0.569-0.26,0.594
		c-0.891,0.618-1.608,0.928-2.152,0.928c-1.583-2.821-3.118-5.146-4.602-6.978C103.949,51.601,104.493,51.206,105.582,50.711z"/>
	<path class="st1" d="M63.913,85.848c-0.95,2.737-1.368,3.763-2.28,5.283c-0.988,1.749-2.053,3.193-3.497,4.675
		c4.181,1.597,7.716,3.269,13.266,6.233l-1.559,1.863c-4.523-2.851-8.286-4.751-13.151-6.728c-1.216,1.064-2.281,1.787-3.649,2.585
		c-3.383,1.977-6.918,3.269-12.201,4.409c-0.342-0.798-0.684-1.292-1.254-1.938c7.184-1.407,11.289-3.003,15.09-5.854
		c-3.839-1.406-6.271-2.129-10.453-3.155c2.395-3.003,3.307-4.333,5.055-7.374h-5.854c-1.596,0-2.661,0.076-3.763,0.228v-2.243
		c1.026,0.152,2.015,0.228,3.763,0.228h6.842c1.559-3.002,2.205-4.561,2.585-6.348l2.28,0.532c-0.722,1.521-2.433,5.246-2.736,5.815
		h16.078c1.672,0,2.774-0.076,3.763-0.228v2.243c-1.064-0.152-2.167-0.228-3.763-0.228H63.913z M54.373,73.495
		c0-1.292-0.076-2.205-0.229-3.231h2.471c-0.152,0.912-0.228,1.862-0.228,3.231v1.026h10.985c1.559,0,2.699-0.038,4.029-0.19
		c-0.152,0.913-0.19,1.749-0.19,2.851v2.014c0,0.913,0.038,1.71,0.19,2.585h-2.129v-5.474H42.247v5.474h-2.128
		c0.114-0.836,0.19-1.749,0.19-2.623v-1.976c0-1.026-0.076-2.015-0.19-2.851c1.292,0.152,2.471,0.19,3.991,0.19h10.263V73.495z
		 M51.446,85.848c-1.559,2.775-2.319,3.991-4.067,6.424c4.409,1.254,5.702,1.634,8.856,2.812c1.254-1.216,2.205-2.356,3.079-3.801
		c0.988-1.559,1.482-2.623,2.471-5.436H51.446z"/>
	<path class="st1" d="M81.544,74.218c0-1.521-0.076-2.737-0.228-3.953h2.395c-0.152,1.103-0.228,2.395-0.228,3.953v3.801h0.608
		c1.292,0,1.824-0.038,2.661-0.19v1.977c-0.875-0.114-1.482-0.152-2.661-0.152h-0.608v8.134c1.216-0.57,1.749-0.836,3.307-1.672
		l0.229,1.672c-1.673,0.912-2.205,1.216-3.535,1.862v12.049c0,1.824-0.76,2.395-3.155,2.395c-0.57,0-1.444-0.038-2.167-0.076
		c-0.152-0.836-0.228-1.216-0.494-1.938c1.178,0.19,2.015,0.266,2.889,0.266c0.798,0,0.988-0.152,0.988-0.912V90.562
		c-1.216,0.532-2.128,0.912-2.927,1.216c-0.494,0.152-0.798,0.304-1.406,0.608l-0.608-2.052c1.064-0.152,1.901-0.457,4.941-1.71
		v-8.971h-1.862c-1.103,0-1.825,0.038-2.699,0.19v-2.015c0.874,0.152,1.558,0.19,2.699,0.19h1.862V74.218z M85.497,93.717
		c1.938-0.114,5.055-0.913,8.21-2.053c0.228-1.824,0.342-3.193,0.418-5.359h-3.458c-1.407,0-2.129,0.038-3.003,0.19v-2.09
		c0.874,0.152,1.558,0.19,3.003,0.19h3.497c0-0.684,0-0.798,0-1.368v-4.827h-3.763c-1.407,0-2.167,0.038-3.079,0.19v-2.167
		c0.875,0.152,1.559,0.19,3.079,0.19h3.763v-2.053c0-2.356-0.038-3.117-0.228-4.219h2.395c-0.152,0.988-0.228,2.167-0.228,4.181
		v7.792c0,7.526-0.608,11.821-2.09,15.127c-1.292,2.851-2.851,4.675-6.158,7.032c-0.532-0.646-0.874-0.912-1.71-1.482
		c3.155-1.977,4.523-3.345,5.815-5.702c0.646-1.178,1.026-2.243,1.406-3.839c-1.216,0.456-2.318,0.874-3.763,1.33
		c-0.418,0.152-0.418,0.152-2.661,0.836c-0.494,0.152-0.494,0.152-0.836,0.266L85.497,93.717z M102.222,99.798
		c0,2.09,0.076,3.23,0.266,4.447h-2.471c0.19-1.254,0.266-2.433,0.266-4.447V74.293c0-1.558-0.076-2.812-0.19-3.953h2.356
		c-0.19,0.912-0.228,1.9-0.228,3.877v2.356h5.397c1.634,0,2.395-0.038,3.269-0.228v2.205c-1.064-0.114-2.09-0.19-3.269-0.19h-5.397
		v6.614h4.789c1.825,0,2.509-0.038,3.193-0.19v2.129c-0.798-0.152-1.672-0.19-3.193-0.19h-4.789v6.766h5.549
		c1.634,0,2.585-0.038,3.421-0.19v2.205c-1.064-0.152-2.167-0.228-3.421-0.228h-5.549V99.798z"/>
</g>
</svg>