<svg id="Layer_1" data-name="Layer 1" xmlns="http://www.w3.org/2000/svg" viewBox="0 0 115.74 81.43"><defs><style>.cls-1{fill:#cbcbcb;}.cls-2{fill:#ccc;}.cls-3{fill:#cdcdcd;}.cls-4{fill:#cecece;}.cls-5{fill:#d2d2d2;}.cls-6{fill:#d6d6d6;}.cls-7{fill:#d7d7d7;}</style></defs><path class="cls-1" d="M1355.34,4540.35c0,4.82.05,9.64,0,14.46,0,1.35.38,1.92,1.79,1.84,1.58-.1,3.16,0,4.74,0,1.14,0,1.64.36,1.61,1.56-.06,2.26-.07,4.52,0,6.78,0,1.33-.52,1.71-1.75,1.65-1.43-.07-2.87.09-4.29,0-1.76-.17-2.13.58-2.12,2.21.07,9.94,0,19.88.09,29.83,0,2.29-.55,3.12-2.87,2.86a29.69,29.69,0,0,0-5.42,0c-1.68.12-2.2-.45-2.19-2.15.08-8.59,0-17.17,0-25.76,0-1.28-.09-2.57,0-3.84.18-2.08-.08-3.61-2.78-3.12-.92.17-1.37-.32-1.36-1.3,0-2.41,0-4.82,0-7.23,0-1.32.74-1.55,1.74-1.39,2.15.34,2.48-.74,2.41-2.58-.12-3.69,0-7.38,0-11.07a4.81,4.81,0,0,1,.42-2.64Z" transform="translate(-1247.75 -4540.35)"/><path class="cls-2" d="M1357.17,4619.06c0-.23,0-.45,0-.68-.05-.81.7-2.09-.67-2.2s-1.51,1.19-1.6,2.27a6,6,0,0,1-.38,2.64c-.2.35-.43.62-.88.53s-.56-.48-.52-.86c.16-1.64.29-3.28.54-4.9.13-.83.87-.88,1.58-.93,1.92-.15,3.82.43,5.76,0,.94-.19,1.55.43,1.58,1.45a13.87,13.87,0,0,1-.44,4.46c-.11.38-.2.75-.67.76-.62,0-.73-.47-.69-.93.1-1,.29-2.07.4-3.11.07-.61,0-1.32-.66-1.51s-1.28.41-1.47,1.07a21,21,0,0,0-.53,2.86c-.09.67,0,1.58-.9,1.54-1.12-.06-.45-1-.49-1.59,0-.3,0-.6,0-.9Z" transform="translate(-1247.75 -4540.35)"/><path class="cls-3" d="M1275.46,4619.45c-.09,2.91-2,2.31-3.46,2.24a4.64,4.64,0,0,1-4.22-3.51,6.33,6.33,0,0,1,1.95-6.73,5.23,5.23,0,0,1,5.93-.14,1.7,1.7,0,0,1,.53.68c.08.18,0,.43,0,.88-2.36-.82-4.86-1.82-6.48,1a4.08,4.08,0,0,0,.16,4.87C1271.35,4620.62,1273.26,4620.49,1275.46,4619.45Z" transform="translate(-1247.75 -4540.35)"/><path class="cls-2" d="M1328.67,4611.1c-.07.33-.14.77-.25,1.21-.41,1.59-.46,2.87,1.83,2.64a1.34,1.34,0,0,1,1.59,1.47,27.12,27.12,0,0,1-.23,3.81c-.08.54,0,1.59-1.07,1.35-.8-.18-.5-1-.46-1.54,0-.74.31-1.47.37-2.21s.19-1.66-.86-1.78a1.54,1.54,0,0,0-1.64,1.28c-.29,1.08-.44,2.2-.62,3.3-.08.44-.05,1-.66,1-.78,0-.75-.65-.7-1.15q.56-4.89,1.21-9.78c.06-.48.18-1.16.93-1S1328.61,4610.49,1328.67,4611.1Z" transform="translate(-1247.75 -4540.35)"/><path class="cls-2" d="M1277.14,4619.72c.33-3,.63-5.9,1-8.79.07-.57.3-1.36,1-1.25,1,.14.62,1,.57,1.64s-.26,1-.31,1.53c-.13,1.29-.31,2.55,1.78,2.11,1.14-.24,1.82.45,1.83,1.69a14.69,14.69,0,0,1-.46,4.23c-.11.38-.22.75-.68.75-.61,0-.72-.49-.67-.94.09-1,.28-1.92.38-2.88.08-.68.15-1.52-.66-1.72a1.57,1.57,0,0,0-1.91,1.17c-.26.85-.31,1.77-.52,2.64-.15.62.38,1.83-.84,1.65C1276.67,4621.39,1277.3,4620.28,1277.14,4619.72Z" transform="translate(-1247.75 -4540.35)"/><path class="cls-2" d="M1308.38,4610.84a11.56,11.56,0,0,1,1.35,0c.61.07,1.56-.31,1.63.67s-.82.69-1.38.69c-1.06,0-1.12.68-1.21,1.49-.23,2.15-.53,4.29-.85,6.42-.09.57.24,1.62-.85,1.44-.92-.15-.58-1.12-.53-1.71q.27-3,.73-6c.14-.95.18-1.65-1.07-1.66-.46,0-1.23.22-1.22-.56s.76-.79,1.37-.8Z" transform="translate(-1247.75 -4540.35)"/><path class="cls-3" d="M1293,4618.93c-.27-.89.7-2.65-.8-2.77-1.66-.13-1.8,1.66-1.91,3,0,.3,0,.6,0,.9,0,.68-.08,1.57-1,1.45s-.77-.92-.59-1.63a9.78,9.78,0,0,0,.23-1.78c.18-3.05,1.29-3.89,4.29-3.17a2,2,0,0,1,1.56,2.38c-.1,1-.29,2.08-.44,3.11-.08.55-.23,1.17-.88,1.11-1-.08-.58-.82-.51-1.39C1292.95,4619.8,1292.94,4619.42,1293,4618.93Z" transform="translate(-1247.75 -4540.35)"/><path class="cls-3" d="M1259.93,4619.88q.48-4.54,1-9.09c.06-.55.24-1.12.89-1.07s.83.68.74,1.34q-.62,4.52-1.21,9c-.09.68-.11,1.58-1,1.45C1259.31,4621.4,1260,4620.47,1259.93,4619.88Z" transform="translate(-1247.75 -4540.35)"/><path class="cls-3" d="M1263.54,4619.5c.32-2.86.64-5.69,1-8.52.07-.63.17-1.33,1-1.25s.77.74.68,1.4c-.41,2.81-.79,5.63-1.18,8.45-.11.77.18,2-.94,1.94C1262.7,4621.39,1263.87,4620.15,1263.54,4619.5Z" transform="translate(-1247.75 -4540.35)"/><path class="cls-3" d="M1339.52,4618.18a2,2,0,0,0,2.22,2.2c.48,0,.93.14.85.76-.06.46-.46.51-.84.57a3,3,0,0,1-3.4-1.58,3.49,3.49,0,0,1,.56-4.34,3.07,3.07,0,0,1,3.67-.82c.62.26,1.19.67.86,1.32s-.85-.07-1.28-.2A1.94,1.94,0,0,0,1339.52,4618.18Z" transform="translate(-1247.75 -4540.35)"/><path class="cls-3" d="M1324.63,4616.58c-1.3-.37-2.37-1.25-3.29,0a2.36,2.36,0,0,0-.55,2.48,1.93,1.93,0,0,0,2.35,1.22c.32,0,.75-.38.91.21a.9.9,0,0,1-.45,1c-1,.74-3.13,0-4-1.45a3.82,3.82,0,0,1,1.24-4.95C1322.38,4614.23,1323.78,4614.68,1324.63,4616.58Z" transform="translate(-1247.75 -4540.35)"/><path class="cls-4" d="M1286.6,4617.31c.21,1.22-.39,2.34-.44,3.53,0,.39-.15.76-.61.78s-.76-.42-.72-.89c.14-1.7.32-3.39.52-5.08.06-.55.49-.72,1-.65s.6.51.48,1S1286.67,4616.87,1286.6,4617.31Z" transform="translate(-1247.75 -4540.35)"/><path class="cls-5" d="M1334.58,4620c.53,0,.81.21.83.63a.88.88,0,0,1-.72,1,.72.72,0,0,1-.87-.77A.82.82,0,0,1,1334.58,4620Z" transform="translate(-1247.75 -4540.35)"/><path class="cls-6" d="M1285.86,4611.82a.75.75,0,0,1,.62-.78.73.73,0,0,1,.9.71.71.71,0,0,1-.61.79C1286.27,4612.63,1286,4612.32,1285.86,4611.82Z" transform="translate(-1247.75 -4540.35)"/><path class="cls-7" d="M1316.44,4606.78a1,1,0,0,0,.45.91c-.21.43-.28,1-1,1.28C1316,4608.15,1315.81,4607.38,1316.44,4606.78Z" transform="translate(-1247.75 -4540.35)"/><path class="cls-1" d="M1293,4558.89c0-1.34-.38-1.92-1.79-1.85a40.87,40.87,0,0,1-5.64,0c-2.25-.2-3.45.38-3,2.89.08.46.28,1.15-.31,1.42s-.91-.37-1.28-.7c-9.51-8.64-23.29-5.25-29.51,4.76-1.74,2.8-2.3,6-3.68,8.86v1.81a9.42,9.42,0,0,1,0,6.33v1.81a4.65,4.65,0,0,1,.93,2.46c3.94,15.77,21.81,21,32.47,11.42.31-.28.62-.79,1.13-.48s.33.83.26,1.24c-.42,2.39.84,2.76,2.84,2.6a44.38,44.38,0,0,1,5.64,0c1.45.07,2-.4,2-1.91Q1292.91,4579.21,1293,4558.89Zm-18.39,30.47c-5.23,6.71-16.75,5.11-19.94-2.79-1-2.37-1.74-4.82-1.54-6.52.12-6,1.77-10.33,6.15-13.06,6.75-4.2,14.72-1.29,17.62,6.43A15.64,15.64,0,0,1,1274.59,4589.35Z" transform="translate(-1247.75 -4540.35)"/><path class="cls-1" d="M1329.75,4567.42a56.05,56.05,0,0,1,5.25,4.6v-7.16c0-6.78,0-6.81-6.57-8.69-1.12-.32-1.41-.79-1.16-1.9.48-2.1.83-4.22,1.23-6.33a37.88,37.88,0,0,0-3.58,6.2c-.45.93-.84,1.45-2.18,1.31a15.62,15.62,0,0,0-5.34.53c-10.36,2.66-16.83,9-18.75,19.77-1.84,10.31,4.16,21.41,13.94,25.17,1.33.51,3,.66,3.92,1.56,1.21,1.16-.45,2.82-.09,4.29-.24.5-.39,1,.45.91a14,14,0,0,0,1-2c.74-2.35,2.16-3.26,4.7-3,3.76.41,7.27-.87,10.69-2.28.74-.3,1.68-.57,1.68-1.61,0-4.15,0-8.31,0-12.74-7.93,6.73-7.93,6.73-10.52,6.61,2.25-4.51,4.49-8.93,6.66-13.39.82-1.67,2.82-3.8,2.09-4.94-.9-1.43-3.58-.46-5.48-.5-4.38-.09-4.38,0-3.53-4.38S1326,4564.67,1329.75,4567.42Zm-8.87,16.83c-.54,2.41-1.16,4.81-1.59,7.24-.23,1.31-.75,1.37-1.84,1-4.77-1.79-7.22-5.41-8.2-10.21-.21-1-.31-2.07-.41-2.76.38-6,2.49-10.54,7.76-13.16.55-.27,1.31-.85,1.85-.35s-.1,1.25-.38,1.81c-2.2,4.35-4.4,8.71-6.68,13-.77,1.45-.84,2.13,1.14,2,2.33-.11,4.67,0,7,0C1320.55,4582.8,1321.14,4583.1,1320.88,4584.25Z" transform="translate(-1247.75 -4540.35)"/><path class="cls-2" d="M1258.32,4620.68c-1.05-3.34-2.1-6.68-3.35-10.63-2,3.79-3.65,6.91-5.25,10.05-.22.43-1,1.05-.14,1.5.64.34,1.14-.26,1.45-.77.58-1,1-2,2.46-1.85s3.09-.25,3.4,1.94a.89.89,0,0,0,1.21.7C1258.61,4621.45,1258.44,4621,1258.32,4620.68Zm-3.36-3.18c-.39.33-1.37.38-1.59-.21-.41-1.09.46-1.85,1.42-3.23C1254.9,4615.66,1256.08,4616.56,1255,4617.5Z" transform="translate(-1247.75 -4540.35)"/><path class="cls-3" d="M1302.75,4615c-1.36.47-2.66-.42-4-.09a3.33,3.33,0,0,0-2.6,3.27,3.46,3.46,0,0,0,2.16,3.4c.85.42,1.74-.2,2.57-.21.93.48,1.6.23,1.77-.7.29-1.61.45-3.25.64-4.88C1303.36,4615.44,1303.12,4614.92,1302.75,4615Zm-3.23,5.23c-1.14.06-1.73-.71-1.61-1.93a1.83,1.83,0,0,1,1.77-2.3,1.65,1.65,0,0,1,1.85,1.77C1301.53,4619.18,1300.94,4620.2,1299.52,4620.28Z" transform="translate(-1247.75 -4540.35)"/><path class="cls-3" d="M1348.19,4614.65a3.94,3.94,0,0,0-3.67,3.6,3.6,3.6,0,0,0,7.21-.07A3.34,3.34,0,0,0,1348.19,4614.65Zm-.24,5.67c-1.26-.1-1.67-1-1.7-2.22,0-1.47.92-1.89,2.07-2.22,1.06.39,2,1,1.91,2.17S1349.47,4620.43,1348,4620.31Z" transform="translate(-1247.75 -4540.35)"/><path class="cls-2" d="M1314.36,4618.6a20.17,20.17,0,0,1,2,0c1.5.06,1.64-.73,1.15-1.86a2.87,2.87,0,0,0-3.57-1.91,3.59,3.59,0,0,0-2.84,4c.4,1.72,1.33,3,3.6,2.92.88.09,2.15-.33,2-1.34-.24-1.54-1.22.17-1.88,0a1.82,1.82,0,0,0-.45,0c-.73,0-1.45-.22-1.42-1.08S1313.81,4618.64,1314.36,4618.6Zm.11-2.68c.65,0,1.46.25,1.43,1.08s-.87.55-1.42.65c-.5-.14-1.39.29-1.41-.58A1.25,1.25,0,0,1,1314.47,4615.93Z" transform="translate(-1247.75 -4540.35)"/></svg>