<!-- Generator: Adobe Illustrator 20.1.0, SVG Export Plug-In  -->
<svg version="1.1"
	 xmlns="http://www.w3.org/2000/svg" xmlns:xlink="http://www.w3.org/1999/xlink" xmlns:a="http://ns.adobe.com/AdobeSVGViewerExtensions/3.0/"
	 x="0px" y="0px" width="24.954px" height="20.318px" viewBox="0 0 24.954 20.318"
	 style="enable-background:new 0 0 24.954 20.318;" xml:space="preserve">
<style type="text/css">
	.st0{fill:#ADADAD;}
</style>
<defs>
</defs>
<g id="KosDCC.tif_1_">
	<g>
		<g>
			<path class="st0" d="M24.954,2.427c0,0,0,0.015,0,0.022c-0.086,0.268-0.283,0.465-0.447,0.681
				c-0.335,0.44-0.725,0.831-1.124,1.211c-0.251,0.239-0.517,0.463-0.8,0.664c-0.091,0.065-0.125,0.14-0.122,0.249
				c0.006,0.212,0,0.424,0.002,0.636c0.008,0.769-0.076,1.53-0.206,2.286c-0.133,0.776-0.332,1.535-0.585,2.279
				c-0.188,0.553-0.411,1.093-0.659,1.623c-0.367,0.783-0.805,1.524-1.296,2.233c-0.285,0.411-0.596,0.802-0.923,1.182
				c-0.236,0.274-0.479,0.542-0.737,0.795c-0.881,0.866-1.851,1.618-2.928,2.228c-0.8,0.453-1.637,0.825-2.51,1.112
				c-0.842,0.276-1.702,0.471-2.58,0.593c-0.355,0.049-0.711,0.062-1.068,0.076c-0.139,0.006-0.277,0.009-0.416,0.01
				c-0.098,0-0.195,0-0.292,0c-0.271,0-0.541,0-0.812,0c-0.059,0-0.119,0-0.178,0c-0.037,0-0.075,0-0.112,0
				c-0.905,0.009-1.792-0.118-2.671-0.325c-1.251-0.295-2.439-0.753-3.573-1.355c-0.267-0.142-0.529-0.295-0.785-0.457
				C0.078,18.137,0.018,18.111,0,18.043c0-0.076,0.058-0.078,0.108-0.074c0.251,0.024,0.502,0.034,0.753,0.049
				c0.234,0.014,0.466,0.021,0.699-0.002c0.16-0.016,0.32-0.012,0.481-0.025c0.728-0.056,1.438-0.199,2.137-0.404
				c0.58-0.17,1.138-0.398,1.675-0.672c0.537-0.274,1.05-0.59,1.541-0.969c-0.233-0.029-0.455-0.047-0.675-0.087
				c-0.629-0.114-1.216-0.34-1.759-0.675c-0.878-0.541-1.538-1.281-1.987-2.208c-0.078-0.161-0.142-0.329-0.202-0.497
				c-0.049-0.138,0.008-0.21,0.154-0.182c0.256,0.049,0.515,0.068,0.773,0.072c0.339,0.005,0.677-0.03,1.012-0.095
				c0.061-0.012,0.121-0.03,0.164-0.027c-0.275-0.057-0.555-0.161-0.83-0.277c-0.707-0.297-1.304-0.749-1.81-1.317
				C1.544,9.881,1.128,8.976,0.98,7.95C0.948,7.729,0.932,7.507,0.941,7.284c0.006-0.149,0.063-0.186,0.196-0.116
				c0.47,0.245,0.966,0.413,1.489,0.502C2.772,7.695,2.92,7.714,3.09,7.727c-0.099-0.103-0.202-0.17-0.294-0.249
				C2.351,7.092,1.971,6.652,1.674,6.143c-0.39-0.666-0.617-1.387-0.685-2.154C0.913,3.134,1.041,2.308,1.376,1.515
				c0.068-0.162,0.147-0.318,0.228-0.474C1.673,0.911,1.751,0.907,1.847,1.02c0.234,0.276,0.476,0.543,0.725,0.805
				C3.321,2.612,4.155,3.294,5.06,3.891C5.471,4.163,5.897,4.41,6.335,4.638c0.711,0.37,1.447,0.68,2.209,0.927
				c0.86,0.279,1.739,0.475,2.637,0.587c0.297,0.037,0.594,0.073,0.893,0.083c0.119,0.004,0.131-0.011,0.107-0.125
				c-0.094-0.443-0.111-0.894-0.077-1.341c0.083-1.085,0.462-2.058,1.155-2.904c0.502-0.612,1.108-1.088,1.824-1.422
				c0.385-0.18,0.787-0.313,1.206-0.389c0.198-0.036,0.399-0.04,0.599-0.045c0.438-0.011,0.877-0.019,1.311,0.04
				c0.4,0.054,0.782,0.183,1.151,0.344c0.489,0.213,0.932,0.5,1.335,0.848c0.091,0.079,0.173,0.168,0.258,0.254
				c0.057,0.058,0.118,0.074,0.198,0.056c0.717-0.154,1.41-0.378,2.078-0.681c0.3-0.136,0.592-0.285,0.878-0.448
				c0.047-0.027,0.099-0.06,0.153-0.02c0.06,0.045,0.034,0.106,0.015,0.161c-0.187,0.54-0.464,1.031-0.818,1.478
				c-0.32,0.403-0.694,0.749-1.113,1.047c-0.048,0.034-0.098,0.063-0.154,0.079c0.006-0.002,0.01-0.004,0.016-0.006
				c0.203-0.066,0.416-0.077,0.622-0.12c0.677-0.141,1.334-0.342,1.971-0.611C24.845,2.406,24.9,2.376,24.954,2.427z"/>
			<path class="st0" d="M7.434,20.298c0.279,0,0.559,0,0.838,0.001c0.008,0.006,0.01,0.01,0.007,0.014
				c-0.003,0.003-0.006,0.005-0.01,0.005c-0.278,0-0.555,0-0.833,0C7.42,20.313,7.42,20.306,7.434,20.298z"/>
			<path class="st0" d="M8.269,20.318c0,0,0.002-0.013,0.003-0.019c0.102,0,0.204,0,0.306,0c-0.001,0.006-0.002,0.013-0.002,0.013
				C8.474,20.318,8.372,20.318,8.269,20.318z"/>
			<path class="st0" d="M7.434,20.298c0.001,0.006,0.001,0.013,0.001,0.013c-0.058,0.007-0.116,0.007-0.175,0.007
				c-0.016-0.006-0.016-0.012-0.001-0.019C7.318,20.298,7.376,20.298,7.434,20.298z"/>
			<path class="st0" d="M7.26,20.298c0.001,0.006,0.001,0.013,0.001,0.013c-0.037,0.006-0.073,0.006-0.11,0.006L7.15,20.3
				C7.186,20.3,7.223,20.299,7.26,20.298z"/>
			<path class="st0" d="M22.106,3.175c0.022,0.008,0.045,0.015,0.067,0.023c-0.024,0.006-0.048,0.014-0.072,0.019
				c-0.012,0.002-0.034,0.007-0.034-0.012C22.067,3.185,22.088,3.179,22.106,3.175z"/>
		</g>
	</g>
</g>
</svg>