<!-- Generator: Adobe Illustrator 20.1.0, SVG Export Plug-In  -->
<svg version="1.1"
	 xmlns="http://www.w3.org/2000/svg" xmlns:xlink="http://www.w3.org/1999/xlink" xmlns:a="http://ns.adobe.com/AdobeSVGViewerExtensions/3.0/"
	 x="0px" y="0px" width="27.783px" height="26.404px" viewBox="0 0 27.783 26.404"
	 style="enable-background:new 0 0 27.783 26.404;" xml:space="preserve">
<style type="text/css">
	.st0{fill:#ADADAD;}
</style>
<defs>
</defs>
<path class="st0" d="M27.483,8.972c-0.628-2.469-2.085-4.394-4.093-5.91c-2.808-2.12-6.019-3.019-9.501-3.061
	c-1.275-0.011-2.53,0.138-3.767,0.425C7.418,1.053,5.014,2.254,3.045,4.238c-1.729,1.742-2.812,3.818-3.013,6.287
	c-0.173,2.116,0.354,4.083,1.504,5.862c1.852,2.865,4.551,4.556,7.777,5.469c0.853,0.241,1.741,0.352,2.603,0.566
	c0.822,0.204,1.034,0.534,0.992,1.382c-0.004,0.079-0.018,0.158-0.029,0.237c-0.082,0.575-0.191,1.147-0.24,1.725
	c-0.043,0.508,0.231,0.733,0.722,0.599c0.36-0.098,0.716-0.24,1.044-0.418c2.536-1.378,4.904-3.01,7.165-4.799
	c1.673-1.324,3.236-2.762,4.457-4.53C27.635,14.288,28.186,11.737,27.483,8.972z M8.667,14.872c-0.086,0.024-0.18,0.026-0.271,0.026
	c-0.868,0.002-1.736,0.004-2.604,0c-0.532-0.002-0.795-0.264-0.796-0.805c-0.004-1.747-0.003-3.495,0-5.242
	c0.001-0.438,0.167-0.707,0.497-0.81C5.81,7.941,6.112,8.013,6.274,8.296C6.39,8.501,6.438,8.77,6.441,9.011
	c0.016,1.347,0.008,2.695,0.009,4.043c0,0.134,0,0.267,0,0.443c0.709,0,1.379-0.007,2.049,0.003c0.363,0.005,0.621,0.26,0.657,0.613
	C9.194,14.489,9.013,14.776,8.667,14.872z M11.285,14.091c-0.004,0.528-0.264,0.814-0.713,0.807
	c-0.444-0.007-0.706-0.307-0.707-0.829c-0.003-1.746-0.005-3.492,0.001-5.238C9.868,8.177,10.426,7.8,10.94,8.092
	c0.27,0.154,0.349,0.399,0.347,0.693c-0.004,0.902-0.001,1.803-0.001,2.705C11.287,12.357,11.291,13.224,11.285,14.091z
	 M17.448,14.859c-0.333,0.116-0.634,0.004-0.886-0.338c-0.828-1.12-1.653-2.242-2.48-3.363c-0.064-0.087-0.136-0.169-0.281-0.23
	c0,0.119,0,0.238,0,0.357c0,0.96,0.001,1.921-0.001,2.881c0,0.33-0.143,0.571-0.462,0.687c-0.299,0.108-0.581,0.054-0.774-0.193
	c-0.102-0.131-0.165-0.329-0.166-0.497c-0.012-1.795-0.003-3.59-0.011-5.385c-0.001-0.365,0.132-0.629,0.481-0.74
	c0.346-0.11,0.625,0.022,0.836,0.309c0.745,1.012,1.489,2.025,2.234,3.036c0.158,0.215,0.324,0.424,0.55,0.72
	c0.011-0.229,0.021-0.348,0.021-0.468c0.001-0.949-0.002-1.898,0.002-2.847c0.002-0.493,0.272-0.783,0.708-0.78
	c0.431,0.002,0.699,0.302,0.699,0.79c0.001,1.761,0.001,3.522,0,5.282C17.919,14.525,17.787,14.741,17.448,14.859z M21.44,10.752
	c0.309,0,0.617-0.003,0.926,0.001c0.434,0.006,0.701,0.253,0.716,0.657c0.017,0.44-0.242,0.735-0.701,0.75
	c-0.571,0.018-1.143,0.004-1.714,0.006c-0.089,0-0.178,0.012-0.275,0.019v1.313c0.691,0,1.361-0.006,2.032,0.003
	c0.353,0.005,0.614,0.25,0.65,0.578c0.046,0.413-0.121,0.696-0.481,0.795c-0.086,0.024-0.18,0.025-0.271,0.025
	c-0.868,0.002-1.737,0.004-2.605,0c-0.53-0.002-0.795-0.27-0.796-0.807c-0.003-1.76-0.003-3.52,0-5.279
	c0.001-0.524,0.285-0.803,0.802-0.804c0.868-0.002,1.737-0.002,2.605,0c0.481,0.001,0.749,0.249,0.754,0.688
	c0.005,0.432-0.264,0.71-0.734,0.72c-0.639,0.012-1.277,0.003-1.958,0.003v1.334H21.44z"/>
</svg>