<!-- Generator: Adobe Illustrator 20.1.0, SVG Export Plug-In  -->
<svg version="1.1"
	 xmlns="http://www.w3.org/2000/svg" xmlns:xlink="http://www.w3.org/1999/xlink" xmlns:a="http://ns.adobe.com/AdobeSVGViewerExtensions/3.0/"
	 x="0px" y="0px" width="27.565px" height="19.252px" viewBox="0 0 27.565 19.252"
	 style="enable-background:new 0 0 27.565 19.252;" xml:space="preserve">
<style type="text/css">
	.st0{fill:#ADADAD;}
</style>
<defs>
</defs>
<path class="st0" d="M27.208,3.582c-0.227-1.308-0.815-2.369-2.07-2.899c-0.554-0.234-1.19-0.332-1.796-0.373
	c-1.876-0.13-3.754-0.257-5.633-0.285c-2.728-0.041-5.458-0.031-8.186,0.027C7.573,0.093,5.626,0.237,3.68,0.36
	c-1.586,0.1-2.857,1.139-3.173,2.694c-0.235,1.155-0.392,2.338-0.45,3.515c-0.082,1.66-0.054,3.326-0.048,4.989
	c0.006,1.495,0.116,2.983,0.43,4.45c0.342,1.599,1.497,2.683,3.122,2.842c1.396,0.137,2.797,0.244,4.198,0.294
	c2,0.07,4.002,0.076,6.003,0.109c0-0.022,0-0.043,0-0.065c1.444,0,2.889,0.04,4.331-0.01c1.958-0.068,3.916-0.18,5.871-0.323
	c1.577-0.115,2.798-1.176,3.115-2.726c0.208-1.02,0.361-2.062,0.411-3.101c0.081-1.68,0.071-3.365,0.073-5.047
	C27.567,6.506,27.46,5.039,27.208,3.582z M10.741,13.468V5.564l7.476,3.952L10.741,13.468z"/>
</svg>