<!-- Generator: Adobe Illustrator 20.1.0, SVG Export Plug-In  -->
<svg version="1.1"
	 xmlns="http://www.w3.org/2000/svg" xmlns:xlink="http://www.w3.org/1999/xlink" xmlns:a="http://ns.adobe.com/AdobeSVGViewerExtensions/3.0/"
	 x="0px" y="0px" width="50.741px" height="57.256px" viewBox="0 0 50.741 57.256"
	 style="enable-background:new 0 0 50.741 57.256;" xml:space="preserve">
<style type="text/css">
	.st0{fill:none;stroke:#89C3CA;stroke-width:1.25;stroke-miterlimit:10;}
</style>
<defs>
</defs>
<g>
	<path class="st0" d="M2.657,48.165c-1.964,1.863-2.129,4.423-1.998,6.981c0.101,1.974,3.18,1.984,3.077,0
		c-0.082-1.611-0.309-3.756,1.17-4.848c0.693-0.514,1.568-0.669,2.462-0.682v6.205h42.748V0.625H7.368v0.002
		C5.651,0.654,3.929,0.998,2.657,2.205c-1.964,1.863-2.129,4.423-1.998,6.98c0.101,1.975,3.18,1.985,3.077,0
		C3.654,7.574,3.427,5.43,4.906,4.338C5.599,3.826,6.474,3.67,7.368,3.656v8.461c-1.717,0.027-3.438,0.371-4.711,1.578
		c-1.964,1.863-2.129,4.422-1.998,6.981c0.101,1.975,3.18,1.984,3.077,0c-0.082-1.611-0.309-3.756,1.17-4.848
		c0.693-0.512,1.568-0.668,2.462-0.681v8.46c-1.717,0.027-3.438,0.371-4.711,1.578c-1.964,1.863-2.129,4.422-1.998,6.981
		c0.101,1.975,3.18,1.984,3.077,0c-0.082-1.611-0.309-3.756,1.17-4.848c0.693-0.512,1.568-0.668,2.462-0.682v8.461
		c-1.717,0.027-3.438,0.371-4.711,1.578c-1.964,1.863-2.129,4.422-1.998,6.98c0.101,1.975,3.18,1.984,3.077,0
		c-0.082-1.611-0.309-3.756,1.17-4.848c0.693-0.512,1.568-0.668,2.462-0.682v8.461C5.651,46.614,3.929,46.958,2.657,48.165z
		 M17.126,6.385h23.233v12.391H17.126V6.385z"/>
</g>
</svg>