<?xml version="1.0" encoding="utf-8"?>
<!-- Generator: Adobe Illustrator 15.1.0, SVG Export Plug-In . SVG Version: 6.00 Build 0)  -->
<!DOCTYPE svg PUBLIC "-//W3C//DTD SVG 1.1//EN" "http://www.w3.org/Graphics/SVG/1.1/DTD/svg11.dtd">
<svg version="1.1" id="Ebene_1" xmlns="http://www.w3.org/2000/svg" xmlns:xlink="http://www.w3.org/1999/xlink" x="0px" y="0px"
	 width="40px" height="50px" viewBox="0 0 40 50" enable-background="new 0 0 40 50" xml:space="preserve">
<g>
	<path fill="#91CEED" d="M25.001,49.5C11.491,49.5,0.5,38.509,0.5,24.999C0.5,11.49,11.491,0.5,25.001,0.5
		C38.51,0.5,49.5,11.49,49.5,24.999C49.5,38.509,38.51,49.5,25.001,49.5z"/>
	<path fill="#FFFFFF" d="M25.001,1C38.234,1,49,11.766,49,24.999C49,38.233,38.234,49,25.001,49C11.767,49,1,38.233,1,24.999
		C1,11.766,11.767,1,25.001,1 M25.001,0C11.192,0,0,11.193,0,24.999C0,38.809,11.192,50,25.001,50C38.806,50,50,38.809,50,24.999
		C50,11.193,38.806,0,25.001,0L25.001,0z"/>
</g>
<path fill="#FFFFFF" d="M13.377,33.948l0.081,0.084c1.925,1.942,5.094,1.96,7.037,0.032l4.507-4.463
	c1.943-1.927,1.958-5.093,0.032-7.039l-0.083-0.083c-0.16-0.162-0.332-0.308-0.507-0.44l-1.648,1.633
	c0.189,0.111,0.372,0.252,0.535,0.414l0.082,0.083c1.044,1.055,1.038,2.765-0.018,3.812l-4.506,4.464
	c-1.055,1.046-2.765,1.039-3.81-0.019l-0.084-0.083c-1.045-1.056-1.037-2.765,0.019-3.812l2.037-2.019
	c-0.347-0.872-0.51-1.802-0.489-2.726l-3.154,3.123C11.465,28.838,11.45,32.003,13.377,33.948L13.377,33.948z M20.032,27.517
	c0.162,0.163,0.332,0.311,0.508,0.444l1.648-1.633c-0.191-0.115-0.371-0.251-0.536-0.417l-0.08-0.082
	c-1.048-1.056-1.04-2.767,0.018-3.811l4.504-4.463c1.055-1.048,2.766-1.039,3.812,0.017l0.083,0.083
	c1.046,1.057,1.036,2.764-0.018,3.813l-2.039,2.018c0.35,0.872,0.509,1.797,0.492,2.724l3.152-3.123
	c1.942-1.926,1.959-5.094,0.033-7.036l-0.082-0.083c-1.928-1.945-5.096-1.959-7.039-0.033l-4.504,4.463
	c-1.944,1.927-1.96,5.094-0.034,7.037L20.032,27.517L20.032,27.517z"/>
</svg>
