<?xml version="1.0" encoding="utf-8"?>
<!-- Generator: Adobe Illustrator 15.1.0, SVG Export Plug-In . SVG Version: 6.00 Build 0)  -->
<!DOCTYPE svg PUBLIC "-//W3C//DTD SVG 1.1//EN" "http://www.w3.org/Graphics/SVG/1.1/DTD/svg11.dtd">
<svg version="1.1" id="Ebene_1" xmlns="http://www.w3.org/2000/svg" xmlns:xlink="http://www.w3.org/1999/xlink" x="0px" y="0px"
	 width="140px" height="180px" viewBox="0 0 140 180" enable-background="new 0 0 140 180" xml:space="preserve">
<g>
	<path fill="#91CEED" d="M65.313,4.908c6.455,6.331,69.515,72.87,69.515,72.87c3.46,3.384,5.173,7.806,5.173,12.226
		c0,4.422-1.713,8.845-5.173,12.228c0,0-63.062,66.54-69.515,72.856c-6.453,6.332-18.051,6.766-24.953,0
		c-6.885-6.749-7.426-16.169,0-24.44l57.875-60.643L40.378,29.36c-7.427-8.287-6.886-17.702,0-24.457
		C47.265-1.843,58.877-1.423,65.313,4.908L65.313,4.908z"/>
	<ellipse fill="#91CEED" cx="95.006" cy="91.291" rx="11.958" ry="13.761"/>
	<path fill="#FFFFFF" d="M18.549,143.042c-4.14,4.205-4.14,11.004,0,15.192c4.124,4.205,10.825,4.205,14.964,0l59.133-60.627
		c4.139-4.203,4.139-11.001,0-15.191L33.513,21.772c-4.141-4.205-10.83-4.205-14.964,0c-4.14,4.205-4.14,10.986-0.021,15.177
		l48.5,53.057L18.549,143.042z"/>
	<path fill="#91CEED" d="M3.108,143.042c-4.141,4.205-4.141,11.004,0,15.192c4.123,4.205,10.824,4.205,14.961,0l59.135-60.627
		c4.138-4.203,4.138-11.001,0-15.191L18.069,21.772c-4.139-4.205-10.828-4.205-14.961,0c-4.141,4.205-4.141,10.986-0.021,15.177
		l48.5,53.057L3.108,143.042z"/>
</g>
</svg>
