<?xml version="1.0" encoding="utf-8"?>
<!-- Generator: Adobe Illustrator 15.1.0, SVG Export Plug-In . SVG Version: 6.00 Build 0)  -->
<!DOCTYPE svg PUBLIC "-//W3C//DTD SVG 1.1//EN" "http://www.w3.org/Graphics/SVG/1.1/DTD/svg11.dtd">
<svg version="1.1" id="Ebene_1" xmlns="http://www.w3.org/2000/svg" xmlns:xlink="http://www.w3.org/1999/xlink" x="0px" y="0px"
	 width="140px" height="180px" viewBox="0 0 140 180" enable-background="new 0 0 140 180" xml:space="preserve">
<g>
	<path fill="#91CEED" d="M74.687,175.093c-6.454-6.331-69.514-72.871-69.514-72.871C1.713,98.839,0,94.417,0,89.997
		c0-4.422,1.713-8.845,5.173-12.228c0,0,63.061-66.54,69.514-72.856c6.454-6.332,18.051-6.766,24.953,0
		c6.886,6.749,7.427,16.169,0,24.44L41.766,89.997l57.857,60.643c7.427,8.288,6.886,17.703,0,24.458
		C92.737,181.844,81.124,181.424,74.687,175.093L74.687,175.093z"/>
	<ellipse fill="#91CEED" cx="44.995" cy="88.709" rx="11.958" ry="13.762"/>
	<path fill="#FFFFFF" d="M121.452,36.958c4.14-4.205,4.14-11.004,0-15.193c-4.124-4.205-10.825-4.205-14.963,0L47.355,82.392
		c-4.138,4.204-4.138,11.002,0,15.192l59.134,60.644c4.14,4.205,10.83,4.205,14.963,0c4.14-4.204,4.14-10.986,0.02-15.176
		L72.973,89.995L121.452,36.958z"/>
	<path fill="#91CEED" d="M136.893,36.958c4.14-4.205,4.14-11.004,0-15.193c-4.123-4.205-10.824-4.205-14.962,0L62.796,82.392
		c-4.138,4.204-4.138,11.002,0,15.192l59.134,60.644c4.14,4.205,10.829,4.205,14.962,0c4.14-4.204,4.14-10.986,0.021-15.176
		l-48.5-53.057L136.893,36.958z"/>
</g>
</svg>
