<?xml version="1.0" encoding="utf-8"?>
<!-- Generator: Adobe Illustrator 15.1.0, SVG Export Plug-In . SVG Version: 6.00 Build 0)  -->
<!DOCTYPE svg PUBLIC "-//W3C//DTD SVG 1.1//EN" "http://www.w3.org/Graphics/SVG/1.1/DTD/svg11.dtd">
<svg version="1.1" id="Ebene_1" xmlns="http://www.w3.org/2000/svg" xmlns:xlink="http://www.w3.org/1999/xlink" x="0px" y="0px"
	 width="50px" height="50px" viewBox="0 0 50 50" enable-background="new 0 0 50 50" xml:space="preserve">
<g>
	<rect fill="#ECEBE7" width="50" height="50"/>
	<g>
		<circle fill="#FFFFFF" cx="0" cy="2.5" r="1.5"/>
		<circle fill="#FFFFFF" cx="50" cy="2.5" r="1.5"/>
		<circle fill="#FFFFFF" cx="45" cy="2.5" r="1.5"/>
		<circle fill="#FFFFFF" cx="40" cy="2.5" r="1.5"/>
		<circle fill="#FFFFFF" cx="35" cy="2.5" r="1.5"/>
		<circle fill="#FFFFFF" cx="30" cy="2.5" r="1.5"/>
		<circle fill="#FFFFFF" cx="25" cy="2.5" r="1.5"/>
		<circle fill="#FFFFFF" cx="20" cy="2.5" r="1.5"/>
		<circle fill="#FFFFFF" cx="15" cy="2.5" r="1.5"/>
		<circle fill="#FFFFFF" cx="10" cy="2.5" r="1.5"/>
		<circle fill="#FFFFFF" cx="5" cy="2.5" r="1.5"/>
	</g>
	<g>
		<circle fill="#FFFFFF" cx="2.5" cy="6.25" r="1.5"/>
		<circle fill="#FFFFFF" cx="47.5" cy="6.25" r="1.5"/>
		<circle fill="#FFFFFF" cx="42.5" cy="6.25" r="1.5"/>
		<circle fill="#FFFFFF" cx="37.5" cy="6.25" r="1.5"/>
		<circle fill="#FFFFFF" cx="32.5" cy="6.25" r="1.5"/>
		<circle fill="#FFFFFF" cx="27.5" cy="6.25" r="1.5"/>
		<circle fill="#FFFFFF" cx="22.5" cy="6.25" r="1.5"/>
		<circle fill="#FFFFFF" cx="17.5" cy="6.25" r="1.5"/>
		<circle fill="#FFFFFF" cx="12.5" cy="6.25" r="1.5"/>
		<circle fill="#FFFFFF" cx="7.5" cy="6.25" r="1.5"/>
	</g>
	<g>
		<circle fill="#FFFFFF" cx="0" cy="10" r="1.5"/>
		<circle fill="#FFFFFF" cx="50" cy="10" r="1.5"/>
		<circle fill="#FFFFFF" cx="45" cy="10" r="1.5"/>
		<circle fill="#FFFFFF" cx="40" cy="10" r="1.5"/>
		<circle fill="#FFFFFF" cx="35" cy="10" r="1.5"/>
		<circle fill="#FFFFFF" cx="30" cy="10" r="1.5"/>
		<circle fill="#FFFFFF" cx="25" cy="10" r="1.5"/>
		<circle fill="#FFFFFF" cx="20" cy="10" r="1.5"/>
		<circle fill="#FFFFFF" cx="15" cy="10" r="1.5"/>
		<circle fill="#FFFFFF" cx="10" cy="10" r="1.5"/>
		<circle fill="#FFFFFF" cx="5" cy="10" r="1.5"/>
	</g>
	<g>
		<circle fill="#FFFFFF" cx="2.5" cy="13.75" r="1.5"/>
		<circle fill="#FFFFFF" cx="47.5" cy="13.75" r="1.5"/>
		<circle fill="#FFFFFF" cx="42.5" cy="13.75" r="1.5"/>
		<circle fill="#FFFFFF" cx="37.5" cy="13.75" r="1.5"/>
		<circle fill="#FFFFFF" cx="32.5" cy="13.75" r="1.5"/>
		<circle fill="#FFFFFF" cx="27.5" cy="13.75" r="1.5"/>
		<circle fill="#FFFFFF" cx="22.5" cy="13.75" r="1.5"/>
		<circle fill="#FFFFFF" cx="17.5" cy="13.75" r="1.5"/>
		<circle fill="#FFFFFF" cx="12.5" cy="13.75" r="1.5"/>
		<circle fill="#FFFFFF" cx="7.5" cy="13.75" r="1.5"/>
	</g>
	<g>
		<circle fill="#FFFFFF" cx="0" cy="17.5" r="1.5"/>
		<circle fill="#FFFFFF" cx="50" cy="17.5" r="1.5"/>
		<circle fill="#FFFFFF" cx="45" cy="17.5" r="1.5"/>
		<circle fill="#FFFFFF" cx="40" cy="17.5" r="1.5"/>
		<circle fill="#FFFFFF" cx="35" cy="17.5" r="1.5"/>
		<circle fill="#FFFFFF" cx="30" cy="17.5" r="1.5"/>
		<circle fill="#FFFFFF" cx="25" cy="17.5" r="1.5"/>
		<circle fill="#FFFFFF" cx="20" cy="17.5" r="1.5"/>
		<circle fill="#FFFFFF" cx="15" cy="17.5" r="1.5"/>
		<circle fill="#FFFFFF" cx="10" cy="17.5" r="1.5"/>
		<circle fill="#FFFFFF" cx="5" cy="17.5" r="1.5"/>
	</g>
	<g>
		<circle fill="#FFFFFF" cx="2.5" cy="21.25" r="1.5"/>
		<circle fill="#FFFFFF" cx="47.5" cy="21.25" r="1.5"/>
		<circle fill="#FFFFFF" cx="42.5" cy="21.25" r="1.5"/>
		<circle fill="#FFFFFF" cx="37.5" cy="21.25" r="1.5"/>
		<circle fill="#FFFFFF" cx="32.5" cy="21.25" r="1.5"/>
		<circle fill="#FFFFFF" cx="27.5" cy="21.25" r="1.5"/>
		<circle fill="#FFFFFF" cx="22.5" cy="21.25" r="1.5"/>
		<circle fill="#FFFFFF" cx="17.5" cy="21.25" r="1.5"/>
		<circle fill="#FFFFFF" cx="12.5" cy="21.25" r="1.5"/>
		<circle fill="#FFFFFF" cx="7.5" cy="21.25" r="1.5"/>
	</g>
	<g>
		<circle fill="#FFFFFF" cx="0" cy="25" r="1.5"/>
		<circle fill="#FFFFFF" cx="50" cy="25" r="1.5"/>
		<circle fill="#FFFFFF" cx="45" cy="25" r="1.5"/>
		<circle fill="#FFFFFF" cx="40" cy="25" r="1.5"/>
		<circle fill="#FFFFFF" cx="35" cy="25" r="1.5"/>
		<circle fill="#FFFFFF" cx="30" cy="25" r="1.5"/>
		<circle fill="#FFFFFF" cx="25" cy="25" r="1.5"/>
		<circle fill="#FFFFFF" cx="20" cy="25" r="1.5"/>
		<circle fill="#FFFFFF" cx="15" cy="25" r="1.5"/>
		<circle fill="#FFFFFF" cx="10" cy="25" r="1.5"/>
		<circle fill="#FFFFFF" cx="5" cy="25" r="1.5"/>
	</g>
	<g>
		<circle fill="#FFFFFF" cx="2.5" cy="28.75" r="1.5"/>
		<circle fill="#FFFFFF" cx="47.5" cy="28.75" r="1.5"/>
		<circle fill="#FFFFFF" cx="42.5" cy="28.75" r="1.5"/>
		<circle fill="#FFFFFF" cx="37.5" cy="28.75" r="1.5"/>
		<circle fill="#FFFFFF" cx="32.5" cy="28.75" r="1.5"/>
		<circle fill="#FFFFFF" cx="27.5" cy="28.75" r="1.5"/>
		<circle fill="#FFFFFF" cx="22.5" cy="28.75" r="1.5"/>
		<circle fill="#FFFFFF" cx="17.5" cy="28.75" r="1.5"/>
		<circle fill="#FFFFFF" cx="12.5" cy="28.75" r="1.5"/>
		<circle fill="#FFFFFF" cx="7.5" cy="28.75" r="1.5"/>
	</g>
	<g>
		<circle fill="#FFFFFF" cx="0" cy="32.5" r="1.5"/>
		<circle fill="#FFFFFF" cx="50" cy="32.5" r="1.5"/>
		<circle fill="#FFFFFF" cx="45" cy="32.5" r="1.5"/>
		<circle fill="#FFFFFF" cx="40" cy="32.5" r="1.5"/>
		<circle fill="#FFFFFF" cx="35" cy="32.5" r="1.5"/>
		<circle fill="#FFFFFF" cx="30" cy="32.5" r="1.5"/>
		<circle fill="#FFFFFF" cx="25" cy="32.5" r="1.5"/>
		<circle fill="#FFFFFF" cx="20" cy="32.5" r="1.5"/>
		<circle fill="#FFFFFF" cx="15" cy="32.5" r="1.5"/>
		<circle fill="#FFFFFF" cx="10" cy="32.5" r="1.5"/>
		<circle fill="#FFFFFF" cx="5" cy="32.5" r="1.5"/>
	</g>
	<g>
		<circle fill="#FFFFFF" cx="2.5" cy="36.25" r="1.5"/>
		<circle fill="#FFFFFF" cx="47.5" cy="36.25" r="1.5"/>
		<circle fill="#FFFFFF" cx="42.5" cy="36.25" r="1.5"/>
		<circle fill="#FFFFFF" cx="37.5" cy="36.25" r="1.5"/>
		<circle fill="#FFFFFF" cx="32.5" cy="36.25" r="1.5"/>
		<circle fill="#FFFFFF" cx="27.5" cy="36.25" r="1.5"/>
		<circle fill="#FFFFFF" cx="22.5" cy="36.25" r="1.5"/>
		<circle fill="#FFFFFF" cx="17.5" cy="36.25" r="1.5"/>
		<circle fill="#FFFFFF" cx="12.5" cy="36.25" r="1.5"/>
		<circle fill="#FFFFFF" cx="7.5" cy="36.25" r="1.5"/>
	</g>
	<g>
		<circle fill="#FFFFFF" cx="0" cy="40" r="1.5"/>
		<circle fill="#FFFFFF" cx="50" cy="40" r="1.5"/>
		<circle fill="#FFFFFF" cx="45" cy="40" r="1.5"/>
		<circle fill="#FFFFFF" cx="40" cy="40" r="1.5"/>
		<circle fill="#FFFFFF" cx="35" cy="40" r="1.5"/>
		<circle fill="#FFFFFF" cx="30" cy="40" r="1.5"/>
		<circle fill="#FFFFFF" cx="25" cy="40" r="1.5"/>
		<circle fill="#FFFFFF" cx="20" cy="40" r="1.5"/>
		<circle fill="#FFFFFF" cx="15" cy="40" r="1.5"/>
		<circle fill="#FFFFFF" cx="10" cy="40" r="1.5"/>
		<circle fill="#FFFFFF" cx="5" cy="40" r="1.5"/>
	</g>
	<g>
		<circle fill="#FFFFFF" cx="2.5" cy="43.75" r="1.5"/>
		<circle fill="#FFFFFF" cx="47.5" cy="43.75" r="1.5"/>
		<circle fill="#FFFFFF" cx="42.5" cy="43.75" r="1.5"/>
		<circle fill="#FFFFFF" cx="37.5" cy="43.75" r="1.5"/>
		<circle fill="#FFFFFF" cx="32.5" cy="43.75" r="1.5"/>
		<circle fill="#FFFFFF" cx="27.5" cy="43.75" r="1.5"/>
		<circle fill="#FFFFFF" cx="22.5" cy="43.75" r="1.5"/>
		<circle fill="#FFFFFF" cx="17.5" cy="43.75" r="1.5"/>
		<circle fill="#FFFFFF" cx="12.5" cy="43.75" r="1.5"/>
		<circle fill="#FFFFFF" cx="7.5" cy="43.75" r="1.5"/>
	</g>
	<g>
		<circle fill="#FFFFFF" cx="0" cy="47.5" r="1.5"/>
		<circle fill="#FFFFFF" cx="50" cy="47.5" r="1.5"/>
		<circle fill="#FFFFFF" cx="45" cy="47.5" r="1.5"/>
		<circle fill="#FFFFFF" cx="40" cy="47.5" r="1.5"/>
		<circle fill="#FFFFFF" cx="35" cy="47.5" r="1.5"/>
		<circle fill="#FFFFFF" cx="30" cy="47.5" r="1.5"/>
		<circle fill="#FFFFFF" cx="25" cy="47.5" r="1.5"/>
		<circle fill="#FFFFFF" cx="20" cy="47.5" r="1.5"/>
		<circle fill="#FFFFFF" cx="15" cy="47.5" r="1.5"/>
		<circle fill="#FFFFFF" cx="10" cy="47.5" r="1.5"/>
		<circle fill="#FFFFFF" cx="5" cy="47.5" r="1.5"/>
	</g>
</g>
</svg>
