<?xml version="1.0" encoding="utf-8"?>
<!-- Generator: Adobe Illustrator 15.1.0, SVG Export Plug-In . SVG Version: 6.00 Build 0)  -->
<!DOCTYPE svg PUBLIC "-//W3C//DTD SVG 1.1//EN" "http://www.w3.org/Graphics/SVG/1.1/DTD/svg11.dtd">
<svg version="1.1" id="Ebene_1" xmlns="http://www.w3.org/2000/svg" xmlns:xlink="http://www.w3.org/1999/xlink" x="0px" y="0px"
	 width="1200px" height="50px" viewBox="0 0 1200 50" enable-background="new 0 0 1200 50" xml:space="preserve">
<path fill="#FFFFFF" d="M32.569,18.805H27.03v-3.633c0-1.364,0.904-1.682,1.541-1.682c0.641,0,3.909,0,3.909,0V7.494l-5.383-0.021
	c-5.976,0-7.336,4.473-7.336,7.335v3.997h-3.455v6.18h3.455c0,7.932,0,17.488,0,17.488h7.27c0,0,0-9.65,0-17.488h4.905
	L32.569,18.805z"/>
<path fill="#FFFFFF" d="M190.436,15.668c-1.102,0.488-2.289,0.82-3.535,0.968c1.271-0.761,2.248-1.968,2.707-3.404
	c-1.188,0.705-2.506,1.218-3.902,1.494c-1.123-1.196-2.729-1.944-4.492-1.944c-3.398,0-6.154,2.756-6.154,6.155
	c0,0.481,0.055,0.951,0.16,1.401c-5.115-0.258-9.65-2.706-12.688-6.432c-0.523,0.908-0.834,1.967-0.834,3.096
	c0,2.136,1.087,4.021,2.738,5.123c-1.008-0.032-1.957-0.312-2.787-0.771c0,0.025,0,0.053,0,0.079c0,2.979,2.121,5.467,4.938,6.036
	c-0.521,0.139-1.062,0.215-1.621,0.215c-0.396,0-0.783-0.037-1.158-0.105c0.783,2.439,3.057,4.229,5.748,4.271
	c-2.104,1.647-4.76,2.635-7.646,2.635c-0.493,0-0.983-0.024-1.47-0.086c2.729,1.746,5.959,2.771,9.438,2.771
	c11.312,0,17.51-9.379,17.51-17.514c0-0.267-0.006-0.531-0.018-0.798C188.568,17.987,189.611,16.902,190.436,15.668z"/>
<g>
	<path fill="#FFFFFF" d="M91.974,22.058H86.77v-5.2c0-0.397-0.315-0.722-0.719-0.722H84.57c-0.396,0-0.722,0.324-0.722,0.722v5.2
		h-5.202c-0.396,0-0.72,0.324-0.72,0.723v1.48c0,0.396,0.323,0.719,0.72,0.719h5.202v5.206c0,0.396,0.323,0.719,0.722,0.719h1.481
		c0.397,0,0.719-0.318,0.719-0.719V24.98h5.204c0.396,0,0.719-0.322,0.719-0.721v-1.48C92.693,22.382,92.37,22.058,91.974,22.058z"
		/>
	<path fill="#FFFFFF" d="M74.487,26.624c-1.095-0.774-2.089-1.913-2.104-2.263c0-0.637,0.057-0.939,1.479-2.053
		c1.85-1.443,2.859-3.34,2.859-5.346c0-1.82-0.555-3.434-1.501-4.568h0.734c0.146,0,0.3-0.047,0.422-0.137l2.046-1.483
		c0.255-0.183,0.362-0.509,0.264-0.804c-0.097-0.297-0.372-0.498-0.685-0.498h-9.153c-1.001,0-2.02,0.177-3.019,0.52
		c-3.336,1.15-5.669,3.994-5.669,6.912c0,4.135,3.197,7.27,7.48,7.367c-0.084,0.328-0.127,0.649-0.127,0.967
		c0,0.638,0.162,1.241,0.494,1.825c-0.039,0-0.075,0-0.118,0c-4.082,0-7.765,2.002-9.164,4.982c-0.358,0.771-0.55,1.559-0.55,2.33
		c0,0.752,0.192,1.479,0.571,2.154c0.88,1.572,2.767,2.791,5.313,3.439c1.316,0.334,2.732,0.504,4.201,0.504
		c1.32,0,2.579-0.17,3.743-0.514c3.629-1.055,5.979-3.729,5.979-6.812C77.991,30.199,77.04,28.428,74.487,26.624z M62.924,33.395
		c0-2.148,2.734-4.041,5.851-4.041h0.083c0.685,0.01,1.339,0.107,1.963,0.299c0.22,0.15,0.426,0.289,0.618,0.43
		c1.444,0.979,2.398,1.635,2.664,2.676c0.062,0.268,0.093,0.521,0.093,0.771c0,2.689-1.999,4.039-5.938,4.039
		C65.266,37.568,62.924,35.736,62.924,33.395z M65.76,13.058c0.487-0.555,1.125-0.851,1.841-0.851l0.081,0.001
		c2.024,0.062,3.96,2.315,4.316,5.027c0.193,1.52-0.145,2.945-0.902,3.814c-0.488,0.558-1.117,0.853-1.862,0.853c0,0,0,0-0.001,0
		H69.2c-1.982-0.062-3.96-2.401-4.313-5.11C64.688,15.28,65.007,13.92,65.76,13.058z"/>
</g>
<path fill="#FFFFFF" d="M125.258,7.472c-9.551,0-14.367,6.848-14.367,12.561c0,3.457,1.312,6.531,4.115,7.678
	c0.461,0.188,0.875,0.01,1.008-0.502c0.094-0.354,0.312-1.24,0.41-1.611c0.135-0.5,0.082-0.681-0.289-1.121
	c-0.811-0.955-1.328-2.189-1.328-3.941c0-5.08,3.801-9.63,9.898-9.63c5.396,0,8.357,3.3,8.357,7.703
	c0,5.8-2.562,10.688-6.373,10.688c-2.104,0-3.678-1.736-3.174-3.873c0.605-2.549,1.775-5.295,1.775-7.137
	c0-1.645-0.886-3.017-2.711-3.017c-2.15,0-3.877,2.224-3.877,5.203c0,1.897,0.641,3.183,0.641,3.183s-2.201,9.321-2.586,10.954
	c-0.768,3.252-0.115,7.236-0.062,7.644c0.026,0.235,0.341,0.297,0.479,0.117c0.197-0.265,2.76-3.425,3.629-6.58
	c0.246-0.896,1.414-5.521,1.414-5.521c0.699,1.334,2.74,2.504,4.91,2.504c6.463,0,10.848-5.896,10.848-13.771
	C137.984,13.026,132.934,7.472,125.258,7.472z"/>
<path fill="#FFFFFF" d="M786.777,21.43h-1.59c-0.975,0-1.826-0.823-1.894-1.771l0,0c0-5.057-4.075-8.859-9.175-8.859h-4.646
	c-5.088,0-9.213,4.097-9.217,9.154v10.042c0,5.059,4.129,9.148,9.217,9.148h9.922c5.094,0,9.209-4.097,9.209-9.148v-6.487
	C788.609,22.497,787.795,21.43,786.777,21.43z M769.115,17.886h5.314c0.975,0,1.771,0.797,1.771,1.772
	c0,0.974-0.797,1.771-1.771,1.771h-5.314c-0.975,0-1.771-0.797-1.771-1.771C767.35,18.684,768.146,17.886,769.115,17.886z
	 M779.75,32.061h-10.635c-0.975,0-1.771-0.799-1.771-1.771s0.797-1.771,1.771-1.771h10.635c0.975,0,1.771,0.799,1.771,1.771
	C781.522,31.262,780.725,32.061,779.75,32.061z"/>
<path fill="#FFFFFF" d="M838.989,19.475l-14-9.333c-0.336-0.225-0.771-0.225-1.104,0l-14,9.333
	c-0.277,0.185-0.444,0.498-0.444,0.832v9.333c0,0.334,0.167,0.646,0.444,0.832l14,9.332c0.168,0.108,0.355,0.168,0.556,0.168
	s0.388-0.06,0.558-0.168l14-9.332c0.275-0.188,0.442-0.498,0.442-0.832v-9.333c0-0.334-0.167-0.647-0.442-0.832H838.989z
	 M824.435,28.438l-5.197-3.46l5.197-3.465l5.197,3.465L824.435,28.438z M825.435,19.771v-6.93l11.197,7.465l-5.197,3.465
	L825.435,19.771z M823.435,19.771l-6,4l-5.197-3.465l11.197-7.465V19.771z M815.632,24.974l-4.197,2.797v-5.595L815.632,24.974z
	 M817.435,26.176l6,4v6.93l-11.197-7.465L817.435,26.176z M825.435,30.176l6-4l5.197,3.465l-11.197,7.465V30.176z M833.237,24.974
	l4.197-2.798v5.595L833.237,24.974z"/>
<path fill="#FFFFFF" d="M724.436,40.973c-8.822,0-16-7.178-16-16c0-8.822,7.178-16,16-16c8.823,0,16,7.178,16,16
	C740.436,33.795,733.259,40.973,724.436,40.973z M737.93,27.163c-0.469-0.146-4.23-1.271-8.514-0.584
	c1.783,4.911,2.516,8.914,2.65,9.743C735.138,34.25,737.32,30.965,737.93,27.163z M729.773,37.574
	c-0.203-1.198-0.997-5.379-2.916-10.364c-0.029,0.013-0.061,0.021-0.09,0.03c-7.708,2.688-10.479,8.031-10.721,8.533
	c2.312,1.808,5.229,2.886,8.389,2.886c1.893,0,3.697-0.388,5.338-1.087V37.574L729.773,37.574z M714.281,34.131
	c0.312-0.529,4.062-6.738,11.108-9.019c0.178-0.059,0.354-0.113,0.539-0.162c-0.344-0.776-0.719-1.555-1.108-2.319
	c-6.823,2.043-13.444,1.957-14.046,1.944c-0.004,0.14-0.007,0.278-0.007,0.418C710.77,28.504,712.101,31.709,714.281,34.131
	L714.281,34.131z M711.058,22.195c0.61,0.008,6.241,0.032,12.634-1.666c-2.264-4.025-4.707-7.41-5.066-7.904
	C714.802,14.429,711.943,17.953,711.058,22.195z M721.232,11.707c0.378,0.506,2.86,3.886,5.1,8c4.859-1.821,6.916-4.588,7.162-4.938
	c-2.412-2.141-5.586-3.443-9.059-3.443c-1.104,0-2.175,0.131-3.203,0.379V11.707L721.232,11.707z M735.015,16.351
	c-0.288,0.39-2.578,3.326-7.631,5.39c0.312,0.65,0.622,1.312,0.907,1.979c0.101,0.236,0.193,0.471,0.293,0.705
	c4.547-0.572,9.062,0.345,9.517,0.439C738.07,21.638,736.918,18.676,735.015,16.351z"/>
<g>
	<path fill="#FFFFFF" d="M231.438,9.473l-7,6l9,6l7-6L231.438,9.473z"/>
	<path fill="#FFFFFF" d="M224.438,15.473l-7-6l-9,6l7,6L224.438,15.473z"/>
	<path fill="#FFFFFF" d="M233.438,21.473l7,6l-9,5l-7-6L233.438,21.473z"/>
	<path fill="#FFFFFF" d="M224.438,26.473l-9-5l-7,6l9,5L224.438,26.473z"/>
	<path fill="#FFFFFF" d="M231.191,34.896l-6.754-5.791l-6.756,5.791l-4.244-2.356v2.935l11,5l11-5V32.54L231.191,34.896z"/>
</g>
<path fill="#FFFFFF" d="M315.076,30.924c-1.873,0-3.396,1.529-3.396,3.391c0,1.873,1.521,3.389,3.396,3.389
	c1.881,0,3.396-1.516,3.396-3.389C318.477,32.454,316.957,30.924,315.076,30.924z M311.686,20.885v4.888
	c3.188,0,6.178,1.246,8.438,3.502c2.252,2.25,3.49,5.259,3.49,8.453h4.91C328.523,28.439,320.967,20.885,311.686,20.885z
	 M311.691,12.217v4.893c11.354,0,20.602,9.25,20.602,20.619h4.9C337.193,23.665,325.752,12.217,311.691,12.217z"/>
<path fill="#FFFFFF" d="M358.437,24.973c0-3.866,3.134-7,7-7s7,3.134,7,7c0,3.865-3.134,7-7,7S358.437,28.838,358.437,24.973z
	 M376.437,24.973c0-3.866,3.134-7,7-7s7,3.134,7,7c0,3.865-3.134,7-7,7S376.437,28.838,376.437,24.973z"/>
<path fill="#FFFFFF" d="M524.437,8.973c-8.838,0-16,7.163-16,16c0,8.837,7.162,16,16,16c8.836,0,16-7.162,16-16
	C540.437,16.136,533.272,8.973,524.437,8.973z M533.938,34.475c-1.234,1.234-2.672,2.205-4.271,2.881
	c-0.4,0.172-0.814,0.324-1.232,0.453v-2.396c0-1.263-0.438-2.188-1.297-2.781c0.541-0.051,1.039-0.125,1.486-0.219
	c0.453-0.097,0.938-0.229,1.438-0.406c0.506-0.176,0.957-0.387,1.359-0.633c0.396-0.244,0.779-0.562,1.15-0.953
	c0.369-0.392,0.686-0.832,0.936-1.327c0.25-0.492,0.441-1.089,0.594-1.777c0.146-0.69,0.219-1.457,0.219-2.292
	c0-1.614-0.521-2.989-1.578-4.125c0.479-1.25,0.434-2.608-0.15-4.077l-0.396-0.048c-0.271-0.03-0.758,0.083-1.461,0.345
	c-0.703,0.26-1.492,0.688-2.367,1.28c-1.234-0.344-2.521-0.517-3.854-0.517c-1.349,0-2.625,0.173-3.849,0.517
	c-0.554-0.375-1.07-0.685-1.565-0.93c-0.494-0.245-0.896-0.411-1.188-0.5c-0.297-0.089-0.568-0.146-0.828-0.164
	c-0.255-0.021-0.419-0.026-0.486-0.017c-0.072,0.01-0.125,0.021-0.156,0.031c-0.582,1.479-0.635,2.84-0.156,4.078
	c-1.051,1.135-1.578,2.51-1.578,4.125c0,0.833,0.074,1.596,0.225,2.292c0.146,0.688,0.345,1.285,0.595,1.776
	c0.25,0.494,0.56,0.938,0.931,1.328c0.369,0.394,0.756,0.707,1.156,0.953c0.398,0.241,0.854,0.455,1.357,0.633
	c0.505,0.181,0.979,0.312,1.438,0.406c0.453,0.092,0.949,0.166,1.491,0.219c-0.854,0.582-1.28,1.515-1.28,2.781v2.442
	c-0.473-0.144-0.938-0.31-1.396-0.5c-1.604-0.681-3.036-1.646-4.271-2.881c-1.231-1.236-2.205-2.675-2.881-4.271
	c-0.701-1.654-1.057-3.414-1.057-5.229c0-1.815,0.354-3.575,1.057-5.229c0.676-1.601,1.646-3.037,2.881-4.272
	c1.234-1.235,2.672-2.204,4.271-2.881c1.649-0.7,3.415-1.056,5.229-1.056c1.814,0,3.574,0.355,5.229,1.056
	c1.601,0.677,3.035,1.646,4.271,2.881c1.234,1.235,2.203,2.672,2.881,4.272c0.699,1.654,1.059,3.414,1.059,5.229
	c0,1.814-0.354,3.574-1.059,5.229c-0.678,1.604-1.646,3.033-2.881,4.271L533.938,34.475z"/>
<path fill="#FFFFFF" d="M433.903,10.8h-18.935c-2.588,0-4.705,2.118-4.705,4.706v18.934c0,2.59,2.117,4.707,4.705,4.707h18.935
	c2.588,0,4.706-2.117,4.706-4.707V15.505C438.609,12.917,436.49,10.8,433.903,10.8z M419.338,23.201h10.191
	c0.193,0.556,0.305,1.151,0.305,1.772c0,2.976-2.428,5.396-5.397,5.396c-2.977,0-5.396-2.424-5.396-5.396
	C419.038,24.352,419.144,23.756,419.338,23.201z M435.065,23.203V33.83c0,0.975-0.797,1.771-1.771,1.771h-17.716
	c-0.979,0-1.771-0.797-1.771-1.771V23.201h2.771c-0.129,0.571-0.196,1.163-0.196,1.772c0,4.441,3.612,8.056,8.056,8.056
	c4.442,0,8.055-3.612,8.055-8.056c0-0.609-0.062-1.201-0.19-1.772L435.065,23.203z M435.065,17c0,0.487-0.398,0.886-0.886,0.886
	h-1.771c-0.481,0-0.886-0.399-0.886-0.886v-1.772c0-0.487,0.398-0.886,0.886-0.886h1.771c0.487,0,0.886,0.399,0.886,0.886V17z"/>
<g>
	<path fill="#FFFFFF" d="M471.785,19.417h5.049v2.585h0.066c0.701-1.258,2.42-2.585,4.979-2.585c5.316,0,6.307,3.313,6.307,7.625
		v8.774h-5.256v-7.78c0-1.854-0.037-4.243-2.734-4.243c-2.732,0-3.148,2.021-3.148,4.109v7.914h-5.26L471.785,19.417L471.785,19.417
		z"/>
	<path fill="#FFFFFF" d="M462.68,19.417h5.467v16.399h-5.467V19.417z"/>
	<path fill="#FFFFFF" d="M468.146,14.861c0,1.509-1.223,2.733-2.732,2.733c-1.509,0-2.729-1.225-2.729-2.733
		c0-1.509,1.225-2.733,2.729-2.733C466.923,12.128,468.146,13.352,468.146,14.861z"/>
</g>
<path fill="#FFFFFF" d="M275.437,22.973v7.318c0,1.854-0.021,2.928,0.173,3.453c0.195,0.521,0.688,1.064,1.225,1.381
	c0.709,0.424,1.517,0.637,2.428,0.637c1.619,0,2.576-0.215,4.179-1.268v4.812c-1.364,0.641-2.558,1.019-3.666,1.272
	c-1.104,0.265-2.308,0.394-3.597,0.394c-1.463,0-2.326-0.188-3.449-0.558c-1.124-0.369-2.083-0.896-2.876-1.578
	c-0.795-0.688-1.345-1.407-1.648-2.185c-0.311-0.77-0.462-1.889-0.462-3.352V22.086h-4.297v-4.53
	c1.261-0.408,2.661-0.993,3.562-1.755c0.896-0.764,1.617-1.678,2.16-2.748c0.543-1.066,0.916-2.43,1.116-4.079h5.157v8h7.999v6
	L275.437,22.973L275.437,22.973z"/>
<path fill="#FFFFFF" d="M557.436,19.609l1.301,1.704c0,0,2.68-2.112,3.574-1.056c0.893,1.057,4.303,13.812,5.441,16.164
	c0.988,2.062,3.73,4.791,6.736,2.845c3.004-1.947,12.994-10.479,14.783-20.551c1.787-10.07-12.021-7.961-13.486,0.812
	c3.656-2.195,5.607,0.893,3.738,4.387c-1.867,3.49-3.574,5.771-4.467,5.771c-0.896,0-1.578-2.338-2.604-6.42
	c-1.055-4.223-1.049-11.827-5.438-10.965C562.877,13.11,557.437,19.61,557.436,19.609L557.436,19.609z"/>
<g>
	<path fill="#FFFFFF" d="M618.379,10.8l-1.914,3.799l-1.916-3.799h-2.443l3.453,6.016l0.02-0.012v4.626h1.771v-4.626l0.021,0.012
		l3.451-6.016H618.379z"/>
	<path fill="#FFFFFF" d="M623.551,14.343c0.479,0,0.887,0.406,0.887,0.886v3.544c0,0.479-0.406,0.886-0.887,0.886
		c-0.481,0-0.885-0.406-0.885-0.886v-3.544C622.666,14.749,623.07,14.343,623.551,14.343z M623.551,12.571
		c-1.461,0-2.658,1.195-2.658,2.657v3.544c0,1.462,1.197,2.657,2.658,2.657c1.463,0,2.658-1.195,2.658-2.657v-3.544
		C626.209,13.767,625.014,12.571,623.551,12.571L623.551,12.571z"/>
	<path fill="#FFFFFF" d="M631.523,12.571v6.975c-0.771,0.645-1.771,1.034-1.771-1.264v-5.711h-1.771v6.071h0.002
		c0.027,1.464,0.336,4.102,3.541,1.958v0.829h1.771v-8.858H631.523z"/>
	<path fill="#FFFFFF" d="M634.182,30.288c-0.488,0-0.887,0.397-0.887,0.887v0.888h1.771v-0.888
		C635.066,30.686,634.668,30.288,634.182,30.288z"/>
	<path fill="#FFFFFF" d="M626.209,31.174v4.648c0.6,0.602,1.771,0.664,1.771-0.221c0-0.891,0-3.271,0-4.152
		C627.98,30.564,627.094,30.288,626.209,31.174L626.209,31.174z"/>
	<path fill="#FFFFFF" d="M638.465,26.896c-0.078-1.021-0.443-1.854-1.104-2.5c-0.655-0.646-1.498-0.997-2.521-1.055
		c-1.938-0.096-6.354-0.146-10.234-0.146s-8.617,0.049-10.549,0.146c-1.023,0.058-1.865,0.409-2.521,1.055
		c-0.652,0.645-1.021,1.479-1.102,2.5c-0.115,2.08-0.174,2.834-0.174,3.873c0,1.041,0.059,2.601,0.174,4.681
		c0.078,1.021,0.445,1.854,1.102,2.497c0.656,0.646,1.498,0.996,2.521,1.056c1.932,0.097,6.666,0.146,10.549,0.146
		c3.885,0,8.303-0.049,10.234-0.146c1.021-0.06,1.86-0.407,2.521-1.056c0.658-0.645,1.023-1.479,1.104-2.497
		c0.096-1.731,0.145-3.294,0.145-4.681C638.61,29.382,638.561,28.631,638.465,26.896z M615.573,37.375h-1.771v-8.857h-1.771v-1.771
		h5.314v1.771h-1.771L615.573,37.375L615.573,37.375z M622.666,37.375h-1.773v-0.83c-3.367,1.891-3.512,0.062-3.539-1.404h-0.004
		v-4.854h1.771v4.881c0,1.07,0.998,0.969,1.771,0.324v-5.205h1.771v7.088H622.666z M629.752,35.577c0,1.853-1.896,2.394-3.543,0.952
		v0.847h-1.771V26.745h1.771v2.879c1.771-1.771,3.543-1.104,3.543,0.664C629.752,32.059,629.752,33.643,629.752,35.577z
		 M636.838,32.061v0.885h-3.543v1.771c0,0.488,0.396,0.887,0.887,0.887c0.486,0,0.885-0.396,0.885-0.887v-0.885h1.771v0.885
		c0,1.467-1.191,2.658-2.656,2.658c-1.467,0-2.658-1.191-2.658-2.658v-3.543c0-1.467,1.191-2.656,2.658-2.656
		c1.465,0,2.656,1.189,2.656,2.656V32.061z"/>
</g>
<g>
	<path fill="#FFFFFF" d="M858.844,24.795v9.693l5.064-0.01c5.484-0.01,5.181-0.004,5.974-0.133c1.568-0.259,2.85-0.854,3.75-1.75
		c0.807-0.812,1.264-1.773,1.413-2.99c0.033-0.312,0.033-1.229-0.001-1.535c-0.188-1.498-0.849-2.657-1.916-3.388
		c-0.434-0.291-0.729-0.442-1.28-0.645l-0.294-0.107l0.271-0.142c1.421-0.747,2.157-1.783,2.323-3.267
		c0.013-0.113,0.023-0.413,0.023-0.665c0-1.335-0.312-2.287-1.021-3.109c-0.624-0.726-1.701-1.255-2.993-1.472
		c-1.018-0.17-1.135-0.173-6.521-0.173h-4.795L858.844,24.795L858.844,24.795z M867.595,18.427c0.592,0.047,1.1,0.175,1.474,0.37
		c0.146,0.075,0.238,0.148,0.405,0.315c0.42,0.419,0.55,0.781,0.55,1.523c0,0.667-0.131,1.118-0.434,1.492
		c-0.268,0.324-0.812,0.616-1.364,0.729c-0.368,0.075-0.631,0.083-2.857,0.083h-2.234V20.67v-2.268h2.075
		C866.471,18.402,867.406,18.412,867.595,18.427L867.595,18.427z M868.281,25.872c0.891,0.09,1.611,0.433,2.025,0.95
		c0.132,0.164,0.311,0.531,0.375,0.767c0.156,0.576,0.156,1.474,0,1.981c-0.188,0.601-0.688,1.101-1.372,1.357
		c-0.18,0.061-0.549,0.151-0.861,0.202c-0.192,0.033-0.562,0.039-2.771,0.05l-2.55,0.008v-2.67v-2.67h2.462
		C867.133,25.848,868.138,25.857,868.281,25.872L868.281,25.872z"/>
	<polygon fill="#FFFFFF" points="879.097,17.36 879.097,18.311 883.025,18.311 886.948,18.311 886.948,17.36 886.948,16.409 
		883.025,16.409 879.097,16.409 	"/>
	<path fill="#FFFFFF" d="M882.716,20.066c-0.062,0.005-0.216,0.02-0.354,0.033c-0.837,0.079-1.718,0.324-2.406,0.669
		c-2.071,1.041-3.392,2.847-3.802,5.223c-0.099,0.573-0.115,0.795-0.114,1.53c0.001,0.854,0.052,1.287,0.207,2.017
		c0.333,1.493,1.186,2.924,2.231,3.769c0.468,0.375,1.185,0.799,1.707,1.01c1.1,0.443,2.601,0.625,4.012,0.479
		c1.605-0.164,3.021-0.797,3.96-1.774c0.618-0.644,1.146-1.535,1.521-2.601l0.102-0.284h-1.69h-1.692l-0.092,0.196
		c-0.126,0.271-0.259,0.438-0.517,0.687c-0.731,0.705-1.687,1.021-2.809,0.935c-0.609-0.05-1.075-0.166-1.498-0.388
		c-0.628-0.321-1.021-0.797-1.31-1.563c-0.153-0.416-0.271-1.019-0.271-1.42v-0.187h5.049H890l0.017-0.053
		c0.024-0.105,0.013-1.253-0.022-1.621c-0.224-2.362-1.252-4.344-2.838-5.468c-0.896-0.64-1.863-1.009-2.979-1.143
		C883.889,20.074,882.938,20.047,882.716,20.066L882.716,20.066z M883.781,23.016c0.483,0.082,0.947,0.27,1.239,0.503
		c0.575,0.458,1.005,1.343,1.121,2.312l0.016,0.133h-3.133h-3.133l0.016-0.153c0.062-0.562,0.294-1.228,0.58-1.627
		c0.251-0.354,0.729-0.738,1.161-0.943c0.231-0.109,0.63-0.215,0.923-0.248C882.845,22.957,883.528,22.974,883.781,23.016
		L883.781,23.016z"/>
</g>
<g>
	<path fill="#FFFFFF" d="M920.112,14.492c-3.479,0.1-6.521,0.524-9.263,1.292c-0.649,0.182-0.896,0.311-1.233,0.648
		c-0.467,0.466-0.639,0.912-0.606,1.589c0.021,0.577,0.205,0.986,0.627,1.404c0.185,0.184,0.289,0.257,0.52,0.37
		c0.373,0.181,0.547,0.221,0.956,0.219c0.314-0.001,0.374-0.012,1.003-0.188c0.367-0.103,0.791-0.215,0.941-0.251
		c4.45-1.042,9.979-1.158,15.076-0.316c3.684,0.608,6.889,1.672,9.479,3.151c0.564,0.321,0.754,0.386,1.19,0.408
		c0.271,0.014,0.378,0.005,0.589-0.048c0.426-0.108,0.679-0.253,0.992-0.567c0.469-0.471,0.641-0.914,0.61-1.588
		c-0.021-0.583-0.188-0.961-0.612-1.388c-0.201-0.202-0.322-0.288-0.713-0.51c-4.271-2.418-9.881-3.868-16.179-4.181
		C922.841,14.503,920.689,14.476,920.112,14.492L920.112,14.492z"/>
	<path fill="#FFFFFF" d="M919.294,22.249c-2.479,0.118-4.764,0.469-6.932,1.066c-0.822,0.228-1.033,0.325-1.34,0.63
		c-0.361,0.362-0.513,0.726-0.513,1.233c0,0.494,0.165,0.9,0.507,1.24c0.346,0.348,0.733,0.506,1.239,0.506
		c0.271,0,0.354-0.016,0.79-0.139c3.435-0.982,7.284-1.271,11.204-0.832c3.837,0.428,7.613,1.604,10.416,3.236
		c0.8,0.465,1.027,0.557,1.429,0.557c0.771,0,1.502-0.561,1.701-1.307c0.059-0.221,0.057-0.697-0.003-0.926
		c-0.104-0.396-0.393-0.777-0.771-1.025c-0.521-0.346-1.709-0.983-2.521-1.359c-3.526-1.631-7.323-2.558-11.693-2.853
		C922.185,22.236,919.948,22.217,919.294,22.249L919.294,22.249z"/>
	<path fill="#FFFFFF" d="M919.26,29.6c-2.115,0.127-4.297,0.438-6.562,0.938c-0.389,0.086-0.643,0.213-0.854,0.428
		c-0.767,0.775-0.397,2.074,0.663,2.353c0.271,0.072,0.438,0.06,1.182-0.104c6.422-1.383,12.004-1.053,16.729,0.992
		c0.59,0.256,1.478,0.697,1.987,0.998c0.683,0.395,0.769,0.434,0.994,0.471c0.564,0.1,1.154-0.17,1.452-0.656
		c0.332-0.543,0.229-1.305-0.241-1.744c-0.312-0.297-2.037-1.217-3.225-1.727c-2.455-1.045-4.938-1.645-7.941-1.904
		C922.799,29.583,919.99,29.555,919.26,29.6L919.26,29.6z"/>
</g>
<path fill="#FFFFFF" d="M675,9c-8.821,0-16,7.177-16,16c0,8.82,7.179,16,16,16c8.816,0,16-7.18,16-16C691,16.177,683.822,9,675,9z
	 M660.615,25c0-2.087,0.446-4.066,1.245-5.856l6.861,18.801C663.924,35.616,660.615,30.693,660.615,25z M675,39.383
	c-1.413,0-2.774-0.203-4.062-0.584l4.316-12.543l4.422,12.113c0.024,0.072,0.062,0.139,0.104,0.201
	C678.281,39.096,676.674,39.383,675,39.383z M676.983,18.254c0.868-0.046,1.646-0.137,1.646-0.137
	c0.771-0.091,0.684-1.231-0.096-1.185c0,0-2.333,0.182-3.835,0.182c-1.415,0-3.79-0.182-3.79-0.182
	c-0.771-0.046-0.859,1.141-0.092,1.185c0,0,0.734,0.091,1.509,0.137l2.241,6.142l-3.146,9.44l-5.236-15.583
	c0.866-0.046,1.646-0.137,1.646-0.137c0.771-0.091,0.685-1.231-0.095-1.185c0,0-2.331,0.182-3.835,0.182
	c-0.268,0-0.585-0.004-0.924-0.016c2.571-3.906,6.99-6.482,12.018-6.482c3.745,0,7.154,1.431,9.719,3.775
	c-0.062-0.004-0.125-0.011-0.188-0.011c-1.41,0-2.415,1.23-2.415,2.554c0,1.186,0.688,2.19,1.411,3.375
	c0.547,0.957,1.188,2.188,1.188,3.966c0,1.232-0.476,2.662-1.098,4.654l-1.438,4.795L676.983,18.254z M687.615,18.097
	c1.125,2.048,1.769,4.399,1.769,6.903c0,5.305-2.875,9.941-7.151,12.434l4.396-12.706c0.814-2.05,1.096-3.691,1.096-5.152
	C687.719,19.048,687.686,18.557,687.615,18.097z"/>
<path id="icon" fill="#FFFFFF" d="M976.693,21.99l2.188,1l3.258-0.955v-2.221C982.024,16.033,978.877,13,975,13
	c-3.865,0-7,3.01-7.144,6.771v10.151c0,0.916-0.758,1.66-1.692,1.66c-0.938,0-1.69-0.75-1.69-1.66v-4.307H959c0,0,0,4.312,0,4.357
	c0,3.881,3.198,7.021,7.151,7.021c3.911,0,7.088-3.09,7.146-6.93l0.01-10.021c0-0.92,0.761-1.664,1.693-1.664
	c0.932,0,1.688,0.744,1.688,1.664L976.693,21.99L976.693,21.99z M985.526,25.616v4.502c0,0.924-0.758,1.666-1.688,1.666
	c-0.94,0-1.698-0.742-1.698-1.666v-4.414l-3.255,0.955l-2.188-1v4.383c0.036,3.847,3.228,6.959,7.151,6.959
	c3.953,0,7.156-3.146,7.156-7.026c0-0.047,0-4.354,0-4.354h-5.479V25.616L985.526,25.616z"/>
<g>
	<path fill="#FFFFFF" d="M1012.927,12.208c-1.406,0.384-2.533,1.585-2.836,3.03c-0.062,0.302-0.091,2.542-0.091,7.169
		c0,5.467,0.021,6.871,0.115,7.48c0.805,4.916,5.604,8.846,12.016,9.826c1.203,0.184,3.395,0.246,4.627,0.127
		c6.953-0.658,12.345-4.771,13.135-10.014c0.102-0.666,0.117-2.021,0.104-7.717c-0.021-6.636-0.023-6.926-0.188-7.365
		c-0.377-1.052-1.303-2.01-2.354-2.432l-0.481-0.195l-11.796-0.016C1015.063,12.088,1013.312,12.104,1012.927,12.208
		L1012.927,12.208z M1017.987,19.878c0.211,0.087,1.381,1.198,3.666,3.48l3.354,3.35l3.354-3.35c2.283-2.282,3.456-3.394,3.663-3.48
		c0.425-0.177,1.197-0.163,1.61,0.028c0.407,0.189,0.817,0.617,0.987,1.026c0.184,0.425,0.163,1.197-0.023,1.61
		c-0.227,0.467-8.354,8.578-8.778,8.751c-0.399,0.162-1.229,0.162-1.636,0c-0.422-0.176-8.555-8.286-8.771-8.751
		c-0.191-0.413-0.207-1.185-0.025-1.61c0.172-0.409,0.584-0.836,0.992-1.026C1016.791,19.715,1017.561,19.701,1017.987,19.878
		L1017.987,19.878z"/>
</g>
<path fill="#FFFFFF" d="M1089.525,10.89c-0.437-0.571-1.117-0.902-1.837-0.89l-21.456,0.375c-1.25,0.022-2.241,1.051-2.219,2.298
	l0.472,27.106c0.018,0.912,0.579,1.728,1.432,2.062c0.282,0.109,0.575,0.162,0.867,0.158c0.59-0.013,1.16-0.252,1.588-0.69
	l8.229-8.521l5.842-0.103c0.99-0.021,1.854-0.672,2.127-1.621l5.332-18.169C1090.099,12.207,1089.961,11.461,1089.525,10.89
	L1089.525,10.89z M1083.363,19.113l-7.938,0.138c-1.247,0.022-2.24,1.052-2.22,2.299c0.021,1.249,1.052,2.242,2.299,2.22
	l6.522-0.114l-1.332,4.543l-5.113,0.089c-0.6,0.01-1.173,0.26-1.589,0.69l-5.088,5.269l-0.338-19.394l16.127-0.282L1083.363,19.113z
	"/>
<g>
	<path fill="#FFFFFF" d="M1131.87,9.046c-0.087,0.028-0.2,0.078-0.256,0.111c-0.137,0.085-0.384,0.358-0.5,0.553
		c-0.054,0.089-2.409,4.263-5.232,9.274l-5.14,9.114l3.335,6.121c2.473,4.53,3.375,6.165,3.484,6.299
		c0.16,0.193,0.368,0.346,0.589,0.43c0.133,0.051,0.253,0.053,2.733,0.053h2.594l0.11-0.061c0.141-0.074,0.223-0.162,0.276-0.295
		c0.052-0.121,0.058-0.365,0.013-0.498c-0.019-0.053-1.502-2.781-3.296-6.062c-2.948-5.395-3.262-5.975-3.237-6.039
		c0.017-0.04,2.312-4.107,5.101-9.04s5.096-9.018,5.124-9.079c0.033-0.072,0.052-0.179,0.052-0.301c0-0.276-0.097-0.439-0.335-0.567
		c-0.094-0.05-0.218-0.053-2.678-0.058C1132.18,8.997,1132.02,9,1131.87,9.046L1131.87,9.046z"/>
	<path fill="#FFFFFF" d="M1112.685,15.329c-0.334,0.057-0.529,0.273-0.529,0.588c0,0.09,0.021,0.215,0.048,0.279
		c0.025,0.064,0.736,1.31,1.579,2.769c0.845,1.459,1.545,2.683,1.562,2.721c0.021,0.062-0.233,0.527-2.427,4.393
		c-1.348,2.38-2.474,4.396-2.502,4.479c-0.112,0.34,0.033,0.672,0.37,0.83c0.094,0.043,0.301,0.049,2.61,0.049
		c2.321,0,2.521-0.004,2.669-0.051c0.229-0.07,0.484-0.257,0.649-0.474c0.076-0.103,1.285-2.21,2.686-4.688l2.546-4.502
		l-1.621-2.828c-0.892-1.557-1.68-2.91-1.752-3.01c-0.166-0.229-0.423-0.426-0.666-0.508l-0.188-0.063l-2.44-0.005
		C1113.885,15.306,1112.774,15.314,1112.685,15.329L1112.685,15.329z"/>
</g>
<g>
	<circle fill="#FFFFFF" cx="1165.423" cy="24.709" r="7"/>
	<circle fill="#FFFFFF" cx="1183.443" cy="15.54" r="5.5"/>
	<circle fill="#FFFFFF" cx="1180.952" cy="35.332" r="5"/>
	
		<line fill="none" stroke="#FFFFFF" stroke-width="2" stroke-miterlimit="10" x1="1165.087" y1="24.962" x2="1184.168" y2="15.376"/>
	
		<line fill="none" stroke="#FFFFFF" stroke-width="2" stroke-miterlimit="10" x1="1181.064" y1="35.644" x2="1164.357" y2="24.505"/>
</g>
</svg>
