<?xml version="1.0" encoding="utf-8"?>
<!-- Generated by IcoMoon.io -->
<!DOCTYPE svg PUBLIC "-//W3C//DTD SVG 1.1//EN" "http://www.w3.org/Graphics/SVG/1.1/DTD/svg11.dtd">

<svg version="1.1" xmlns="http://www.w3.org/2000/svg" xmlns:xlink="http://www.w3.org/1999/xlink" width="140" height="26" viewBox="0 0 140 26">
<defs>
<g id="icon-share">
	<path class="path1" d="M19.5 16.9c-0.894 0-1.713 0.303-2.371 0.809l-6.785-4.070c0.032-0.208 0.056-0.421 0.056-0.638 0-0.218-0.023-0.43-0.056-0.638l6.785-4.070c0.658 0.506 1.477 0.809 2.371 0.809 2.153 0 3.9-1.746 3.9-3.9s-1.747-3.9-3.9-3.9-3.9 1.746-3.9 3.9c0 0.217 0.023 0.43 0.057 0.638l-6.785 4.072c-0.658-0.507-1.478-0.81-2.373-0.81-2.154 0-3.9 1.746-3.9 3.9 0 2.153 1.746 3.9 3.9 3.9 0.894 0 1.715-0.303 2.373-0.809l6.785 4.070c-0.034 0.208-0.057 0.42-0.057 0.638 0 2.153 1.747 3.9 3.9 3.9s3.9-1.747 3.9-3.9-1.747-3.9-3.9-3.9z"></path>
</g>
<g id="icon-house">
	<path class="path1" d="M24.401 13.39l-10.431-10.44c-0.533-0.554-1.405-0.554-1.938 0l-10.432 10.44c-0.534 0.553-0.335 1.006 0.442 1.006h2.175v8.018c0 0.578 0.025 1.052 1.071 1.052h5.064v-8.044h5.297v8.044h5.316c0.798 0 0.82-0.472 0.82-1.052v-8.018h2.174c0.776 0 0.976-0.452 0.443-1.006z"></path>
</g>
<g id="icon-search">
	<path class="path1" d="M22.808 20.108l-4.913-4.913c0.741-1.218 1.167-2.646 1.167-4.176 0-4.441-3.849-8.29-8.291-8.29-4.441 0-8.042 3.601-8.042 8.042 0 4.442 3.848 8.291 8.29 8.291 1.477 0 2.86-0.4 4.050-1.096l4.939 4.94c0.485 0.484 1.268 0.484 1.75 0l1.226-1.225c0.482-0.484 0.307-1.092-0.176-1.574zM5.205 10.772c0-3.075 2.492-5.568 5.567-5.568 3.076 0 5.816 2.74 5.816 5.816s-2.492 5.568-5.568 5.568-5.815-2.74-5.815-5.816z"></path>
</g>
<g id="icon-list">
	<path class="path1" d="M20.8 11.7h-15.6c-0.718 0-1.3 0.582-1.3 1.3s0.582 1.3 1.3 1.3h15.6c0.719 0 1.3-0.582 1.3-1.3s-0.581-1.3-1.3-1.3zM5.2 9.1h15.6c0.719 0 1.3-0.582 1.3-1.3s-0.581-1.3-1.3-1.3h-15.6c-0.718 0-1.3 0.582-1.3 1.3s0.582 1.3 1.3 1.3zM20.8 16.9h-15.6c-0.718 0-1.3 0.581-1.3 1.3s0.582 1.3 1.3 1.3h15.6c0.719 0 1.3-0.581 1.3-1.3s-0.581-1.3-1.3-1.3z"></path>
</g>
</defs>

<g fill="#82817d">
	<use xlink:href="#icon-share" transform="translate(0 0)"></use>
	<use xlink:href="#icon-house" transform="translate(38 0)"></use>
	<use xlink:href="#icon-search" transform="translate(76 0)"></use>
	<use xlink:href="#icon-list" transform="translate(114 0)"></use>
</g>

</svg>
